<?xml version="1.0" standalone="no"?>
<!DOCTYPE svg PUBLIC "-//W3C//DTD SVG 20010904//EN"
 "http://www.w3.org/TR/2001/REC-SVG-20010904/DTD/svg10.dtd">
<svg version="1.0" xmlns="http://www.w3.org/2000/svg"
 width="225.000000pt" height="225.000000pt" viewBox="0 0 225.000000 225.000000"
 preserveAspectRatio="xMidYMid meet">

<g transform="translate(0.000000,225.000000) scale(0.100000,-0.100000)"
fill="#000000" stroke="none">
<path d="M430 1945 l0 -207 100 -110 100 -111 0 -404 0 -403 -55 0 c-30 0 -55
-1 -55 -3 0 -1 -22 -135 -50 -297 -27 -162 -50 -301 -50 -307 0 -10 147 -13
701 -13 l701 0 -5 23 c-3 12 -27 151 -53 310 l-47 287 -59 0 -58 0 0 399 0
399 105 117 105 118 -2 201 -3 201 -117 3 -118 3 0 -101 0 -100 -70 0 -69 0
-3 98 -3 97 -117 3 -118 3 0 -101 0 -100 -70 0 -69 0 -3 98 -3 97 -117 3 -118
3 0 -101 0 -100 -70 0 -69 0 -3 98 -3 97 -117 3 -118 3 0 -206z m405 -580 l0
-110 -40 0 -40 0 -3 99 c-1 55 0 106 3 113 3 10 17 13 42 11 l38 -3 0 -110z
m325 0 l0 -115 -40 0 -40 0 0 115 0 115 40 0 40 0 0 -115z m325 0 l0 -110 -40
0 -40 0 -3 99 c-1 55 0 106 3 113 3 10 17 13 42 11 l38 -3 0 -110z"/>
</g>
</svg>
