<?xml version="1.0" standalone="no"?>
<!DOCTYPE svg PUBLIC "-//W3C//DTD SVG 20010904//EN"
 "http://www.w3.org/TR/2001/REC-SVG-20010904/DTD/svg10.dtd">
<svg version="1.0" xmlns="http://www.w3.org/2000/svg"
 width="960.000000pt" height="960.000000pt" viewBox="0 0 960.000000 960.000000"
 preserveAspectRatio="xMidYMid meet">

<g transform="translate(0.000000,960.000000) scale(0.100000,-0.100000)"
fill="#000000" stroke="none">
<path d="M160 4790 l0 -4630 4640 0 4640 0 0 4630 0 4630 -4640 0 -4640 0 0
-4630z m1263 2963 c-7 -2 -21 -2 -30 0 -10 3 -4 5 12 5 17 0 24 -2 18 -5z
m149 -2 c-13 -3 -23 -10 -22 -15 0 -5 -12 -11 -27 -12 -21 -2 -24 -1 -13 6 10
7 11 10 3 10 -7 0 -13 3 -13 8 0 4 21 8 48 8 28 1 38 -1 24 -5z m276 2 c-32
-2 -84 -2 -115 0 -32 2 -6 3 57 3 63 0 89 -1 58 -3z m131 3 c-12 -10 -59 -15
-59 -6 0 5 14 10 32 10 17 0 29 -2 27 -4z m99 -26 c1 -22 0 -23 -11 -9 -6 8
-20 20 -31 26 -16 9 -15 10 11 9 23 -1 29 -6 31 -26z m-613 -6 c-22 -11 -24
-13 -7 -10 26 5 28 0 5 -13 -13 -6 -22 -5 -31 5 -11 12 -9 16 10 23 37 15 56
11 23 -5z m535 6 c18 -12 2 -12 -25 0 -13 6 -15 9 -5 9 8 0 22 -4 30 -9z
m-616 -16 c9 -3 16 -12 16 -20 0 -12 -4 -12 -20 -2 -30 19 -27 34 4 22z m706
-40 c31 -29 51 -41 55 -34 4 7 2 17 -5 23 -10 9 -11 9 -5 -3 8 -13 7 -13 -8
-1 -22 18 -21 21 6 21 26 0 34 -32 12 -50 -10 -8 -25 1 -65 40 -64 62 -57 66
10 4z m-716 -6 c-3 -5 -9 -6 -14 -3 -5 3 -12 -1 -17 -8 -4 -8 -21 -22 -38 -33
-26 -16 -28 -17 -16 -1 9 11 10 17 2 17 -6 0 -11 5 -11 12 0 9 3 9 12 0 16
-16 28 -15 28 2 0 13 17 21 47 22 7 1 10 -3 7 -8z m796 -82 c0 -5 -7 -3 -15 4
-8 7 -12 17 -9 22 7 10 24 -9 24 -26z m-925 -6 c-10 -11 -20 -18 -23 -16 -5 6
21 35 32 36 5 0 1 -9 -9 -20z m965 -8 c0 -15 -2 -15 -10 -2 -13 20 -13 33 0
25 6 -3 10 -14 10 -23z m30 -1 c0 -17 -4 -33 -10 -36 -5 -3 -10 -18 -9 -33 0
-24 1 -25 9 -7 l9 20 0 -20 c1 -48 -16 -45 -39 7 -13 29 -26 56 -28 61 -2 4 1
7 7 7 6 0 11 -6 11 -14 0 -8 7 -16 15 -20 16 -6 32 35 20 53 -3 6 -1 11 4 11
6 0 11 -13 11 -29z m-1036 -6 c3 -9 0 -15 -9 -15 -8 0 -15 7 -15 15 0 8 4 15
9 15 5 0 11 -7 15 -15z m-36 -37 c-2 -6 -14 -13 -26 -15 -19 -2 -21 -1 -10 12
16 17 41 20 36 3z m-22 -40 c-9 -5 -14 -13 -11 -19 4 -5 1 -9 -4 -9 -6 0 -11
6 -11 13 0 18 21 37 33 30 5 -3 2 -10 -7 -15z m-40 -81 c-16 -32 -23 -39 -28
-28 -8 19 -11 10 -13 -44 -2 -22 -7 -62 -13 -90 -10 -49 -10 -49 -11 -12 0 21
3 46 8 55 6 11 6 37 0 67 -6 30 -6 52 0 58 6 6 8 1 5 -14 l-5 -24 15 25 c14
22 15 23 16 5 0 -16 2 -17 9 -6 5 8 7 21 3 29 -3 10 -1 13 6 8 6 -3 13 -2 17
4 15 25 10 6 -9 -33z m1144 23 c0 -5 -2 -10 -4 -10 -3 0 -8 5 -11 10 -3 6 -1
10 4 10 6 0 11 -4 11 -10z m30 -11 c0 -6 -4 -7 -10 -4 -5 3 -10 11 -10 16 0 6
5 7 10 4 6 -3 10 -11 10 -16z m35 -6 c0 -21 -1 -22 -12 -6 -7 9 -13 20 -13 23
0 4 6 7 13 7 6 0 12 -11 12 -24z m1345 17 c-36 -12 -60 -12 -60 0 0 6 19 10
43 9 36 -1 38 -2 17 -9z m93 3 c-7 -2 -21 -2 -30 0 -10 3 -4 5 12 5 17 0 24
-2 18 -5z m200 0 c-7 -2 -19 -2 -25 0 -7 3 -2 5 12 5 14 0 19 -2 13 -5z m174
1 c-3 -3 -12 -4 -19 -1 -8 3 -5 6 6 6 11 1 17 -2 13 -5z m-396 -23 c-8 -5 24
-7 75 -4 49 3 104 1 122 -3 41 -11 -197 -10 -247 1 -28 6 -33 5 -28 -8 3 -9
-4 -19 -19 -26 -32 -14 -32 -14 -30 7 0 9 12 22 26 29 29 13 122 17 101 4z
m334 -8 c22 -3 51 -14 65 -23 14 -9 32 -20 40 -23 10 -4 8 -6 -7 -6 -12 -1
-29 6 -38 15 -9 9 -24 14 -37 11 -11 -3 -28 -2 -37 2 -16 9 -52 24 -81 35 -8
4 1 4 20 0 19 -3 53 -8 75 -11z m95 7 c0 -5 -2 -10 -4 -10 -3 0 -8 5 -11 10
-3 6 -1 10 4 10 6 0 11 -4 11 -10z m-1840 -57 c0 -2 -4 -2 -9 2 -6 3 -14 -3
-20 -12 -10 -17 -10 -17 -11 0 0 9 -4 17 -10 17 -5 0 -10 5 -10 11 0 8 6 7 16
-2 15 -12 16 -11 9 11 l-7 25 21 -24 c11 -13 21 -26 21 -28z m1215 -3 c-8 -13
1 -13 26 0 28 15 23 -5 -6 -24 -31 -20 -30 -21 -31 9 -1 14 2 25 8 25 5 0 6
-4 3 -10z m692 4 c-3 -3 -12 -4 -19 -1 -8 3 -5 6 6 6 11 1 17 -2 13 -5z m32
-14 c-20 -16 -21 -19 -7 -20 9 0 20 5 23 10 3 6 13 10 21 10 8 0 14 -4 14 -10
0 -5 -7 -10 -15 -10 -8 0 -15 -4 -15 -9 0 -6 -20 -3 -45 6 -45 15 -63 30 -24
20 12 -3 28 0 36 9 8 8 19 14 25 14 6 0 0 -9 -13 -20z m-759 -19 c0 -5 -7 -14
-15 -21 -13 -10 -15 -9 -15 9 0 12 6 21 15 21 8 0 15 -4 15 -9z m-1188 -10 c7
11 8 9 4 -4 -4 -12 3 -30 19 -49 14 -16 25 -39 24 -51 l0 -22 -9 23 c-5 12
-13 22 -18 22 -4 0 -14 17 -22 38 -16 40 -22 60 -13 41 4 -8 8 -7 15 2z m2004
-20 c5 -5 20 -11 34 -14 l25 -4 -26 -2 c-14 0 -34 6 -45 14 -10 8 -14 15 -8
15 5 0 14 -4 20 -9z m-1936 -21 c0 -5 -2 -10 -4 -10 -3 0 -8 5 -11 10 -3 6 -1
10 4 10 6 0 11 -4 11 -10z m1092 -27 c-10 -16 -22 -35 -25 -43 -3 -10 -6 -6
-6 9 -1 13 9 32 21 42 29 26 33 24 10 -8z m-1075 -25 c-3 -7 -5 -2 -5 12 0 14
2 19 5 13 2 -7 2 -19 0 -25z m2000 10 c1 -10 0 -18 -1 -18 -2 0 -10 8 -19 18
-15 16 -15 18 1 18 10 0 19 -8 19 -18z m-2010 -39 c-15 -9 -16 -13 -5 -26 7
-9 13 -37 14 -62 l1 -46 -13 30 c-7 17 -13 38 -14 48 0 9 -4 17 -10 17 -6 0
-5 10 2 25 6 14 18 25 27 25 13 -1 13 -2 -2 -11z m1004 -5 c10 -13 10 -17 -2
-24 -10 -7 -11 -12 -2 -21 15 -15 35 21 27 48 -5 17 -5 17 6 -1 10 -15 7 -30
-20 -85 -18 -36 -39 -73 -46 -81 -7 -8 -14 -26 -17 -40 -4 -24 -4 -24 -6 3 0
16 6 35 14 43 13 13 19 46 18 91 -1 7 3 11 7 8 4 -2 7 9 6 25 -1 17 -4 30 -8
30 -5 0 -8 5 -8 10 0 15 16 12 31 -6z m1054 6 c-3 -5 -12 -10 -18 -10 -7 0 -6
4 3 10 19 12 23 12 15 0z m33 -26 c0 -18 -3 -22 -9 -13 -5 8 -9 10 -9 6 0 -5
-5 -5 -11 -1 -8 5 -6 10 5 16 9 5 13 14 10 20 -4 6 -3 8 3 5 6 -4 11 -18 11
-33z m44 -62 c-3 -9 -1 -13 5 -9 10 6 38 -41 29 -50 -2 -2 -7 5 -11 17 -5 17
-10 19 -21 9 -14 -12 -19 -3 -15 30 2 8 -2 10 -10 5 -7 -4 -10 -3 -6 3 10 16
36 11 29 -5z m18 -62 c0 -5 -2 -10 -4 -10 -3 0 -8 5 -11 10 -3 6 -1 10 4 10 6
0 11 -4 11 -10z m-2111 -41 c17 -56 9 -59 -11 -4 -10 25 -13 45 -9 45 4 0 13
-18 20 -41z m46 -58 c-3 -2 -5 1 -5 8 0 7 -4 9 -10 6 -5 -3 -10 0 -10 8 0 8
-2 30 -5 48 -5 29 -3 26 14 -15 11 -28 18 -52 16 -55z m836 15 c5 -6 9 -14 9
-20 0 -5 -7 -1 -15 10 -8 10 -14 30 -13 44 l1 25 4 -25 c3 -14 9 -29 14 -34z
m1246 32 c-3 -8 -6 -5 -6 6 -1 11 2 17 5 13 3 -3 4 -12 1 -19z m-3493 -203
c-4 -25 -3 -27 5 -10 8 17 10 14 10 -15 0 -19 -4 -44 -8 -55 -9 -22 -17 42
-25 190 l-5 90 13 -85 c8 -47 12 -98 10 -115z m2237 131 c15 9 11 -6 -20 -70
-17 -34 -35 -74 -41 -91 -8 -21 -13 -26 -19 -16 -6 9 -10 5 -15 -13 -4 -16
-11 -24 -17 -20 -8 4 -7 9 2 15 10 6 14 31 14 82 0 62 2 71 14 60 10 -10 12
-27 7 -59 -7 -52 10 -52 20 1 3 18 12 36 20 39 19 7 18 24 -3 29 -10 2 -8 3 5
2 21 -2 22 1 18 29 -3 17 -3 25 0 18 3 -6 10 -10 15 -6z m-821 -5 c0 -6 -4
-13 -10 -16 -5 -3 -10 1 -10 9 0 9 5 16 10 16 6 0 10 -4 10 -9z m2127 -83 c-2
-18 -4 -6 -4 27 0 33 2 48 4 33 2 -15 2 -42 0 -60z m-30 -10 c-2 -13 -4 -3 -4
22 0 25 2 35 4 23 2 -13 2 -33 0 -45z m-2058 11 c5 -16 15 -29 20 -29 6 0 11
-5 11 -11 0 -8 -4 -8 -12 -2 -7 6 -20 9 -29 8 -12 -2 -15 3 -12 15 3 10 0 21
-6 24 -6 4 -11 14 -11 21 0 24 28 5 39 -26z m38 -11 c-3 -8 -6 -5 -6 6 -1 11
2 17 5 13 3 -3 4 -12 1 -19z m-7 -69 c0 8 3 12 6 8 3 -3 1 -14 -4 -24 -10 -16
-12 -15 -21 10 -15 39 -13 47 4 17 8 -14 14 -19 15 -11z m2046 -26 c-14 -14
-23 4 -13 27 l10 25 5 -23 c2 -13 1 -26 -2 -29z m-1385 -40 c-12 -20 -14 -14
-5 12 4 9 9 14 11 11 3 -2 0 -13 -6 -23z m-2111 -9 c0 -8 -4 -14 -10 -14 -5 0
-10 9 -10 21 0 11 5 17 10 14 6 -3 10 -13 10 -21z m-45 -46 c-4 -61 -15 -58
-12 4 1 31 5 51 9 45 3 -5 5 -28 3 -49z m2087 1 c8 -22 13 -28 22 -19 8 8 7
13 -4 20 -12 8 -11 10 7 10 19 0 21 -3 13 -22 -6 -13 -13 -31 -16 -41 -5 -14
-11 -10 -25 23 -19 43 -23 60 -13 60 3 0 10 -14 16 -31z m-2040 -4 c-2 -14 0
-25 6 -25 9 0 31 -49 48 -109 5 -21 4 -22 -9 -10 -8 8 -15 16 -14 19 2 15 -16
80 -23 80 -4 0 -12 12 -19 27 -10 21 -9 28 1 34 7 5 14 9 14 9 1 0 -1 -11 -4
-25z m1508 7 c0 -4 -5 -13 -12 -20 -9 -9 -9 -18 0 -37 7 -14 12 -35 12 -46 0
-11 4 -18 9 -15 13 9 22 -23 12 -42 -8 -15 -10 -15 -14 -2 -3 8 -13 38 -23 66
-17 51 -14 104 6 104 6 0 10 -4 10 -8z m1940 -103 c-11 -37 -14 -41 -21 -24
-11 29 -10 42 2 25 8 -11 9 -8 5 15 -5 23 -4 27 4 15 9 -12 10 -7 6 20 -5 29
-4 32 5 14 8 -15 7 -33 -1 -65z m-1918 46 c3 -13 1 -22 -3 -19 -9 5 -13 44 -5
44 2 0 6 -11 8 -25z m495 3 c-3 -8 -6 -5 -6 6 -1 11 2 17 5 13 3 -3 4 -12 1
-19z m-2042 -8 c3 -5 -1 -10 -9 -10 -9 0 -16 5 -16 10 0 6 4 10 9 10 6 0 13
-4 16 -10z m2050 -35 c0 -14 -3 -25 -7 -25 -10 0 -10 34 -1 43 3 4 7 7 7 7 1
0 1 -11 1 -25z m1375 -96 c-7 -22 -16 -39 -20 -39 -4 0 1 22 9 49 9 27 18 45
20 39 2 -6 -2 -28 -9 -49z m36 24 c-11 -20 -15 -23 -16 -10 0 17 21 49 28 42
2 -2 -3 -16 -12 -32z m-3386 -8 c0 5 5 4 11 -2 6 -6 8 -21 4 -32 l-7 -22 -17
23 c-10 13 -21 32 -25 42 -7 19 -6 19 14 1 11 -10 20 -14 20 -10z m1905 -65
c3 -39 2 -41 -7 -20 -5 14 -11 45 -13 70 -2 38 -1 41 7 20 5 -14 11 -45 13
-70z m52 83 c-2 -5 -11 -25 -21 -45 -9 -21 -18 -38 -19 -38 -12 0 2 59 17 73
20 18 30 22 23 10z m-1983 -58 c3 -8 1 -15 -4 -15 -6 0 -10 7 -10 15 0 8 2 15
4 15 2 0 6 -7 10 -15z m3393 -7 c-3 -8 -6 -5 -6 6 -1 11 2 17 5 13 3 -3 4 -12
1 -19z m-1859 -35 c11 -30 26 -108 16 -83 -26 61 -41 110 -34 110 4 0 12 -12
18 -27z m19 -5 c-3 -7 -5 -2 -5 12 0 14 2 19 5 13 2 -7 2 -19 0 -25z m29 -24
c-7 -27 -26 -33 -26 -8 0 9 5 12 12 8 8 -5 9 2 5 27 -5 27 -4 30 4 16 6 -10 8
-29 5 -43z m1759 -12 c-9 -22 -12 -75 -5 -82 3 -3 3 -18 -1 -35 l-7 -30 -1 33
c0 18 -4 31 -8 29 -5 -3 -8 7 -8 21 1 32 28 108 33 92 2 -6 1 -18 -3 -28z
m-1428 6 c-3 -8 -6 -5 -6 6 -1 11 2 17 5 13 3 -3 4 -12 1 -19z m-1822 -27
c-10 -17 17 -62 34 -56 8 3 12 2 7 -2 -4 -4 -20 -8 -36 -9 -23 0 -27 3 -20 16
5 8 4 22 0 31 -5 9 -6 26 -3 38 5 20 7 21 15 7 5 -9 7 -20 3 -25z m1761 -31
c4 -22 11 -40 17 -40 6 0 7 16 3 40 -4 25 -2 40 4 40 5 0 10 -8 10 -17 1 -16
2 -16 17 2 l16 20 -8 -20 c-5 -11 -16 -42 -26 -70 -11 -29 -18 -41 -19 -28 0
12 -4 24 -9 27 -5 3 -7 -15 -5 -42 2 -32 0 -40 -5 -27 -5 11 -7 37 -6 58 2 21
0 51 -5 67 -5 18 -5 30 1 30 5 0 12 -18 15 -40z m-270 -85 c-3 -5 -5 -1 -5 11
-1 11 -6 25 -12 31 -7 7 -8 20 -3 34 7 21 9 18 16 -21 4 -25 6 -49 4 -55z
m1724 19 c0 -8 -11 -24 -24 -35 -19 -17 -24 -29 -20 -53 3 -23 2 -26 -4 -12
-8 19 -9 19 -16 1 -3 -10 -3 -21 1 -24 5 -3 9 -19 10 -36 3 -27 2 -28 -7 -7
-5 12 -14 22 -20 22 -12 0 25 96 45 117 8 8 15 23 15 34 0 11 5 17 10 14 6 -3
10 -13 10 -21z m-3140 -19 c0 6 12 -10 25 -34 14 -24 23 -46 21 -48 -9 -9 -27
9 -46 47 -21 40 -27 66 -10 40 5 -8 10 -10 10 -5z m1453 -85 l9 -25 13 35 c17
45 18 29 1 -33 l-12 -48 -17 54 c-16 49 -23 92 -10 57 3 -8 10 -26 16 -40z
m-1339 -62 c10 -12 25 -30 33 -40 12 -13 12 -17 1 -24 -7 -4 -10 -4 -7 0 3 3
-6 19 -20 35 -17 19 -28 25 -33 17 -8 -12 -28 9 -28 29 0 6 4 3 10 -5 5 -8 12
-11 16 -7 4 4 0 15 -9 25 -10 10 -17 22 -17 27 0 8 12 -5 54 -57z m-77 36 c-3
-3 -12 -4 -19 -1 -8 3 -5 6 6 6 11 1 17 -2 13 -5z m1456 -74 c3 -36 3 -56 0
-45 -3 11 -9 25 -14 31 -7 9 -1 90 6 82 2 -2 5 -32 8 -68z m131 54 c10 -25 -1
-29 -14 -5 -6 12 -7 21 -1 21 5 0 12 -7 15 -16z m-2 -45 c5 -3 -6 -41 -23 -85
-45 -116 -56 -137 -63 -126 -3 5 0 15 8 21 9 8 13 26 10 54 -3 31 -2 35 4 17
l8 -25 8 25 c4 14 7 36 7 50 -2 20 0 22 8 10 9 -12 11 -10 11 11 0 14 -5 30
-11 36 -6 6 -8 21 -4 34 7 21 8 21 18 3 6 -10 14 -22 19 -25z m1426 10 c-1
-16 -4 -25 -8 -19 -9 15 -31 -36 -24 -57 5 -14 4 -15 -4 -4 -7 10 -11 10 -17
1 -4 -6 -2 -17 4 -23 14 -14 14 -67 0 -67 -7 0 -9 11 -6 30 4 16 2 32 -3 35
-6 3 -10 -3 -10 -14 0 -11 -9 -26 -20 -34 -12 -8 -23 -27 -26 -43 -3 -16 -10
-34 -16 -41 -6 -8 -8 -17 -4 -20 4 -4 12 -1 17 7 9 13 10 13 6 0 -2 -10 -17
-15 -39 -16 -29 0 -35 3 -30 15 4 10 7 11 10 3 2 -7 8 -12 14 -12 5 0 7 9 3
19 -4 14 0 23 15 31 11 6 19 14 16 18 -2 4 11 32 30 62 18 30 34 61 34 68 0 6
3 12 8 12 4 0 15 18 25 40 20 48 26 50 25 9z m38 -27 c-4 -3 -11 0 -16 8 -15
24 -11 33 6 15 9 -9 13 -19 10 -23z m-2876 -80 c-14 -5 -60 40 -53 51 3 5 18
-4 35 -20 16 -15 24 -29 18 -31z m-50 14 c0 -3 -4 -8 -10 -11 -5 -3 -10 -1
-10 4 0 6 5 11 10 11 6 0 10 -2 10 -4z m95 -56 c3 -5 -1 -10 -10 -10 -9 0 -13
5 -10 10 3 6 8 10 10 10 2 0 7 -4 10 -10z m1272 -27 c-3 -10 -5 -4 -5 12 0 17
2 24 5 18 2 -7 2 -21 0 -30z m-1295 -25 c-9 -9 -12 -7 -12 12 0 19 3 21 12 12
9 -9 9 -15 0 -24z m86 -60 c-11 -21 -16 -23 -26 -11 -7 7 -10 14 -7 14 3 1 10
3 15 4 6 1 13 3 17 4 4 0 2 6 -5 13 -7 7 -12 17 -12 22 0 6 7 3 15 -5 13 -13
14 -19 3 -41z m70 -44 c28 -26 49 -51 46 -55 -9 -16 -21 -10 -27 13 -5 18 -8
19 -22 8 -8 -7 -18 -10 -22 -6 -3 3 -1 6 5 6 7 0 12 7 12 15 0 8 -8 15 -19 15
-12 0 -20 9 -23 25 -3 14 -4 25 -3 25 1 0 25 -21 53 -46z m2472 -15 c0 -11 -7
-27 -16 -36 -14 -14 -17 -14 -30 -1 -13 13 -12 18 6 41 23 29 40 28 40 -4z
m-2522 -27 c-10 -5 -38 23 -38 37 0 6 10 0 23 -12 12 -12 19 -23 15 -25z m92
-63 c10 -18 9 -19 -8 -8 -10 7 -24 21 -31 31 -11 17 -10 18 8 8 11 -6 25 -20
31 -31z m80 -34 c0 -4 8 -14 18 -21 10 -8 12 -13 5 -14 -14 0 -73 55 -73 69 0
5 -5 11 -12 13 -6 2 -8 9 -4 16 5 8 17 1 36 -22 17 -19 30 -37 30 -41z m2288
45 c3 -8 -1 -11 -10 -7 -17 6 -46 -23 -40 -41 2 -7 -1 -12 -7 -12 -17 0 -13
18 11 51 22 30 38 33 46 9z m-2331 -82 c-3 -8 -6 -5 -6 6 -1 11 2 17 5 13 3
-3 4 -12 1 -19z m2253 16 c0 -4 -12 -17 -26 -30 -23 -22 -24 -25 -9 -40 19
-20 16 -48 -6 -52 -9 -2 -24 4 -33 13 -15 15 -21 12 -17 -8 1 -5 -3 -6 -8 -3
-5 3 -14 0 -20 -8 -7 -8 -8 -16 -3 -18 5 -1 12 -16 16 -33 7 -29 7 -29 -8 -10
-8 11 -16 27 -16 35 0 10 -3 11 -11 3 -8 -8 -8 -17 0 -31 9 -16 7 -19 -12 -18
-12 1 -28 -3 -36 -8 -31 -24 -3 15 69 94 41 46 81 91 88 101 13 18 32 26 32
13z m-2161 -34 c-10 -7 -10 -12 1 -25 7 -9 19 -14 26 -11 8 3 11 0 8 -8 -5
-13 17 -38 32 -35 20 3 34 -2 34 -12 0 -8 -5 -8 -15 1 -12 10 -15 10 -15 -3 0
-8 7 -20 15 -27 17 -14 21 -35 4 -24 -6 3 -15 0 -20 -7 -7 -9 -7 -5 -3 13 5
23 0 33 -31 60 -20 18 -41 41 -46 50 -11 20 -1 51 13 42 6 -4 5 -10 -3 -14z
m2181 0 c0 -5 -4 -10 -10 -10 -5 0 -10 5 -10 10 0 6 5 10 10 10 6 0 10 -4 10
-10z m-3150 -24 c0 -5 6 -3 13 3 10 8 14 7 14 -5 0 -12 -7 -14 -30 -10 -16 3
-36 6 -43 6 -8 0 -14 4 -14 8 0 4 14 8 30 7 17 0 30 -4 30 -9z m65 -616 l0
-610 -55 -1 c-43 0 -50 -2 -32 -9 12 -5 22 -12 22 -15 0 -4 -4 -3 -10 0 -5 3
-10 1 -10 -4 0 -6 -5 -11 -11 -11 -5 0 -7 5 -4 10 3 6 1 10 -4 10 -6 0 -11 -5
-11 -11 0 -5 -4 -7 -10 -4 -5 3 -10 11 -10 16 0 6 5 7 10 4 6 -3 10 -1 10 4 0
6 -3 11 -7 11 -12 0 -10 1194 2 1202 6 5 29 5 53 2 28 -4 42 -3 42 5 0 6 6 11
13 11 9 0 12 -129 12 -610z m-148 558 c-3 -7 -5 -2 -5 12 0 14 2 19 5 13 2 -7
2 -19 0 -25z m1058 -6 c-8 -8 -25 10 -25 26 0 13 2 13 14 -4 8 -10 13 -21 11
-22z m132 -53 c7 -13 13 -20 13 -15 0 5 31 -23 70 -62 46 -47 68 -76 64 -87
-3 -8 -9 -15 -13 -16 -46 -6 -48 -5 -45 19 3 32 9 36 24 17 11 -13 10 -14 -6
-8 -16 6 -17 5 -4 -9 10 -11 17 -12 26 -4 9 8 7 16 -8 33 -11 12 -25 21 -31
20 -6 -1 -12 4 -13 11 -1 6 -2 15 -3 19 0 3 -10 -2 -21 -12 -36 -33 -69 4 -34
39 15 16 15 17 -8 20 -7 0 -14 10 -17 21 -2 11 -11 26 -20 33 -13 11 -13 12
-1 9 8 -2 21 -14 27 -28z m1808 -68 c-3 -6 -11 -11 -17 -11 -6 0 -6 6 2 15 14
17 26 13 15 -4z m29 -6 c-6 -14 -35 -35 -49 -35 -5 0 46 49 52 50 1 0 0 -7 -3
-15z m-71 -35 c-3 -11 -9 -17 -15 -14 -5 3 -4 12 3 20 16 19 18 18 12 -6z
m-13 -36 c11 -12 10 -18 -3 -32 -16 -15 -18 -15 -34 0 -13 14 -14 20 -3 32 7
9 16 16 20 16 4 0 13 -7 20 -16z m-1457 -171 c15 -21 16 -24 2 -11 -17 16 -19
15 -38 -5 l-19 -22 15 26 c9 15 12 31 7 39 -6 10 -9 10 -13 -1 -2 -8 -3 -6 -2
4 3 16 -6 21 -31 18 -6 -1 -17 6 -24 14 -9 11 -9 15 -1 15 7 0 9 5 6 10 -4 6
-11 7 -17 4 -7 -5 -9 -1 -5 9 3 9 0 18 -9 21 -9 3 -12 10 -9 16 6 9 92 -77
138 -137z m1403 135 c4 -7 3 -8 -4 -4 -7 4 -12 2 -12 -3 0 -6 -5 -11 -11 -11
-8 0 -8 5 1 15 15 18 17 18 26 3z m-2048 -21 c7 -5 12 -4 12 2 0 6 5 11 10 11
16 0 12 -17 -6 -24 -8 -3 -24 -1 -35 4 -11 6 -26 7 -34 3 -12 -7 -9 -12 15
-26 17 -10 30 -14 30 -9 0 5 9 12 20 15 25 6 26 -1 3 -20 -17 -14 -17 -14 2
-8 11 3 16 3 12 -1 -3 -4 9 -24 28 -46 19 -21 35 -44 35 -51 0 -8 3 -8 9 2 11
17 10 38 19 -332 7 -280 8 -300 26 -313 24 -17 38 -18 54 -2 9 9 12 9 12 0 0
-16 27 -15 33 1 3 6 6 2 6 -10 1 -13 4 -23 9 -23 4 0 7 -13 7 -30 1 -16 -3
-30 -7 -30 -4 0 -8 13 -8 29 0 31 -14 49 -25 31 -3 -5 -1 -10 5 -10 7 0 10 -6
7 -12 -2 -7 -9 -12 -14 -11 -5 1 -9 -8 -9 -20 1 -21 -3 -22 -74 -20 -97 2
-109 5 -103 20 3 7 0 13 -7 13 -6 0 -8 5 -5 10 3 6 1 10 -4 10 -6 0 -11 -5
-11 -11 0 -7 -9 -9 -24 -5 -15 4 -28 0 -36 -9 -7 -8 -17 -15 -24 -15 -6 0 2
12 18 27 19 17 31 23 34 15 2 -7 8 -12 14 -12 5 0 7 9 3 19 -3 11 -1 22 5 26
5 3 10 12 10 19 0 6 -27 -14 -60 -46 -32 -32 -67 -58 -77 -58 -13 0 -10 -5 12
-20 35 -23 29 -26 -11 -5 -22 11 -30 12 -36 2 -4 -7 -32 -12 -70 -13 -35 0
-78 -4 -96 -8 -35 -8 -140 13 -121 25 6 3 0 9 -16 13 -37 9 -53 -4 -24 -20 13
-7 33 -14 44 -14 12 -1 15 -4 7 -7 -8 -3 -31 3 -53 12 -38 18 -39 19 -22 38
17 20 17 20 -1 14 -13 -5 -17 -3 -13 7 3 8 -1 20 -9 27 -20 16 -54 83 -54 106
0 15 -2 16 -10 3 -7 -11 -8 -4 -5 23 3 20 7 53 9 72 3 20 1 33 -4 30 -5 -3 -8
29 -8 71 1 53 4 70 10 55 4 -13 6 -27 3 -32 -4 -5 0 -15 6 -22 11 -11 18 -7
42 20 35 40 99 78 145 88 18 4 30 10 28 14 -3 4 12 6 32 4 l37 -3 -30 10 c-36
12 -96 3 -74 -11 22 -14 -5 -10 -42 5 l-34 15 30 0 c17 -1 108 1 203 3 131 3
175 7 182 17 4 8 12 11 18 8 19 -13 45 33 49 88 5 66 -5 91 -27 67 -13 -14
-12 -15 4 -9 19 8 19 9 0 -60 -4 -14 -2 -23 5 -23 22 0 -6 -45 -30 -47 -13 0
-35 -4 -49 -8 -24 -6 -25 -6 -5 10 11 9 30 14 43 12 17 -3 22 -1 18 9 -3 8 -1
14 4 14 5 0 7 6 5 13 -2 6 -6 39 -9 72 -3 41 -2 55 5 45 8 -12 9 -11 7 4 -2
11 -19 29 -38 40 -71 42 -300 26 -300 -21 0 -9 -5 -11 -12 -7 -10 6 -10 4 -2
-7 6 -8 11 -30 11 -49 0 -19 -2 -27 -4 -17 -3 9 -11 17 -18 17 -7 0 -15 3 -18
8 -2 4 -2 1 -1 -5 2 -7 0 -13 -5 -13 -4 0 -12 -17 -17 -37 -9 -38 -9 -38 -59
-36 -84 2 -100 5 -107 17 -14 20 -8 31 7 12 17 -22 38 -12 30 15 -4 11 -2 19
4 19 6 0 11 4 11 10 0 15 -28 0 -33 -18 -3 -10 -5 6 -5 33 0 44 1 47 9 20 7
-25 8 -23 4 14 -2 27 0 39 5 31 12 -19 43 13 43 46 0 28 12 39 44 39 17 1 20
-2 11 -13 -8 -9 -13 -10 -18 -2 -5 7 -11 6 -20 -5 -10 -12 -10 -15 0 -15 7 0
1 -14 -14 -34 -14 -19 -26 -45 -25 -58 1 -18 3 -16 12 11 15 46 107 137 147
146 23 5 29 10 21 18 -8 8 -14 8 -23 -1 -7 -7 -17 -12 -22 -12 -6 0 -3 7 7 14
11 9 34 12 60 10 l42 -4 -39 10 c-22 6 -41 12 -43 14 -8 7 373 0 385 -7z
m-424 -16 c-21 -21 -29 -19 -21 4 4 8 14 15 23 15 16 0 16 -2 -2 -19z m406 -1
c13 -8 13 -10 -2 -10 -9 0 -20 5 -23 10 -8 13 5 13 25 0z m2034 4 c19 -7 22
-35 4 -31 -7 1 -12 -4 -10 -10 3 -19 -25 -16 -32 3 -4 9 -1 23 5 30 13 16 12
16 33 8z m-63 -57 c-10 -9 -11 -8 -5 6 3 10 9 15 12 12 3 -3 0 -11 -7 -18z
m-1841 -15 c0 -12 -3 -12 -15 -2 -9 7 -18 10 -22 6 -4 -3 2 -13 13 -20 10 -8
16 -17 13 -20 -3 -3 -17 7 -31 23 l-26 29 34 -1 c22 -1 34 -6 34 -15z m1840
-11 c0 -9 -43 -51 -53 -51 -5 0 -4 6 2 13 6 8 8 17 4 21 -4 4 -2 11 5 15 14 9
42 10 42 2z m-2113 -39 c7 -5 -11 -8 -41 -8 -30 1 -49 4 -43 8 16 10 69 10 84
0z m-140 -8 c-3 -3 -12 -4 -19 -1 -8 3 -5 6 6 6 11 1 17 -2 13 -5z m206 -1
c-7 -2 -19 -2 -25 0 -7 3 -2 5 12 5 14 0 19 -2 13 -5z m1947 -58 c-13 -14 -28
-25 -34 -25 -6 0 3 13 19 29 36 34 48 31 15 -4z m-2453 -17 c-3 -8 -6 -5 -6 6
-1 11 2 17 5 13 3 -3 4 -12 1 -19z m1323 -14 c0 -8 5 -14 10 -14 6 0 10 -5 10
-11 0 -6 14 -38 30 -71 25 -49 29 -65 21 -87 l-9 -26 -1 26 c-1 15 -8 29 -16
33 -10 3 -15 19 -15 45 0 31 -3 39 -14 35 -8 -3 -17 0 -22 7 -5 9 -2 10 9 6
10 -3 17 -2 17 3 0 6 -4 10 -10 10 -5 0 -10 6 -10 14 0 7 -7 20 -16 27 -15 12
-16 11 -10 -9 8 -25 -1 -62 -14 -62 -6 0 -5 11 0 26 12 32 12 37 0 29 -5 -3
-5 7 1 25 9 25 14 28 25 19 8 -6 14 -18 14 -25z m-569 -36 c0 -31 3 -37 8 -24
7 18 8 18 14 -5 9 -34 9 -499 -1 -499 -4 0 -16 9 -25 21 -16 19 -18 44 -16
285 1 145 6 264 10 264 5 0 9 -19 10 -42z m29 35 c0 -5 -5 -15 -10 -23 -8 -12
-10 -11 -10 8 0 12 5 22 10 22 6 0 10 -3 10 -7z m-561 -60 c1 -7 -3 -13 -9
-13 -5 0 -10 17 -9 38 1 33 2 34 9 12 4 -14 8 -31 9 -37z m2151 12 c-13 -14
-27 -25 -32 -25 -5 0 3 13 19 29 34 35 46 31 13 -4z m-2180 -5 c0 -5 -4 -10
-10 -10 -5 0 -10 5 -10 10 0 6 5 10 10 10 6 0 10 -4 10 -10z m2130 -14 c0 -3
-4 -8 -10 -11 -5 -3 -10 -1 -10 4 0 6 5 11 10 11 6 0 10 -2 10 -4z m1853 -19
c-3 -5 4 -6 16 -2 12 3 21 2 21 -4 0 -24 -14 -41 -35 -41 -14 0 -33 -12 -45
-27 -12 -16 -29 -31 -38 -34 -9 -4 12 -7 47 -8 65 -1 81 6 23 11 -18 1 -32 6
-32 11 0 5 7 6 16 3 9 -3 32 -6 52 -6 28 0 33 -3 22 -10 -8 -5 -10 -10 -5 -10
6 0 10 -16 11 -36 0 -31 -3 -36 -28 -41 -15 -3 -28 -9 -28 -13 0 -4 -20 -5
-44 -3 -64 8 -86 -8 -84 -60 l1 -42 7 45 7 45 1 -42 2 -43 78 -1 c42 -1 80 -1
85 0 4 0 7 -3 7 -9 0 -5 -6 -10 -12 -10 -8 0 -9 -3 -3 -8 6 -4 10 -16 10 -26
0 -15 -9 -20 -40 -22 -30 -2 -35 -1 -20 6 14 6 4 7 -30 4 -75 -8 -75 -8 -75
-64 l0 -50 51 0 c31 0 48 4 44 10 -3 6 -2 10 4 10 5 0 12 -6 15 -12 5 -10 7
-10 12 0 3 6 15 12 27 11 21 0 21 -1 2 -9 -17 -7 -18 -9 -4 -14 11 -5 16 -20
16 -50 l0 -42 -118 -2 c-69 -2 -120 1 -124 7 -3 6 -12 8 -20 4 -10 -3 -15 1
-15 12 0 9 3 14 8 12 4 -3 6 85 4 196 -2 155 0 202 10 209 10 7 10 9 -2 5 -12
-3 -16 -38 -20 -208 l-6 -204 -2 190 c-1 105 -4 206 -6 225 -2 19 -1 27 1 17
4 -15 7 -16 19 -6 9 7 39 12 67 12 29 -1 44 1 35 4 -23 6 -23 20 1 33 15 7 18
18 15 42 -3 26 -2 29 5 13 5 -11 10 -15 11 -10 2 9 4 18 8 36 1 4 20 6 41 6
22 -1 37 -5 34 -10z m-1883 -42 c-13 -14 -28 -25 -34 -25 -6 0 3 13 19 29 36
34 48 31 15 -4z m1933 -12 c-7 -2 -9 -11 -6 -19 3 -9 -2 -14 -17 -14 -12 0
-18 4 -15 10 4 7 -3 9 -22 5 -21 -5 -24 -4 -13 4 8 6 25 11 37 11 12 0 25 5
28 11 4 6 10 7 14 3 3 -4 1 -9 -6 -11z m-4123 -28 c7 -9 8 -15 2 -15 -5 0 -12
7 -16 15 -3 8 -4 15 -2 15 2 0 9 -7 16 -15z m2575 5 c8 -13 -15 -13 -35 0 -12
8 -11 10 7 10 12 0 25 -4 28 -10z m71 -18 c4 -10 8 -96 9 -192 1 -126 1 -135
-2 -30 -3 161 -9 203 -24 179 -5 -7 -8 -86 -7 -174 l2 -160 6 165 6 165 2
-160 c2 -153 11 -209 26 -170 3 9 6 98 6 197 0 100 3 179 6 176 3 -4 5 -92 4
-197 l-1 -191 40 0 c22 0 51 4 65 10 16 6 26 6 26 0 0 -8 -19 -13 -95 -24 -16
-2 -5 -3 26 -3 56 2 79 -9 79 -35 0 -9 -3 -9 -10 2 -6 9 -10 10 -10 3 0 -6 4
-14 10 -18 5 -3 1 -14 -10 -25 -20 -20 -36 -27 -27 -12 3 4 -52 7 -121 6 -70
0 -120 1 -112 3 13 3 15 36 12 233 l-3 230 33 1 c18 1 36 1 41 0 12 -2 8 11
-9 30 -15 16 -14 17 4 12 12 -3 24 -12 28 -21z m226 16 c-7 -7 -12 -23 -13
-37 0 -15 -3 -20 -6 -13 -7 19 6 62 19 62 9 0 9 -3 0 -12z m248 2 c0 -5 -4
-10 -10 -10 -5 0 -10 5 -10 10 0 6 5 10 10 10 6 0 10 -4 10 -10z m340 6 c0 -2
-7 -6 -15 -10 -8 -3 -15 -1 -15 4 0 6 7 10 15 10 8 0 15 -2 15 -4z m124 -8
c-12 -5 -5 -6 19 -2 30 4 37 2 31 -7 -5 -9 -2 -10 9 -6 9 3 19 2 22 -3 8 -13
35 -13 35 -1 0 5 -12 12 -26 15 -15 4 -24 9 -22 12 3 2 18 0 33 -6 21 -8 30
-8 35 1 4 6 8 0 8 -14 0 -18 -5 -24 -14 -20 -10 4 -12 0 -7 -13 6 -17 5 -17
-17 -1 -14 9 -31 17 -40 17 -8 0 2 -9 23 -20 21 -11 43 -17 50 -13 7 4 5 -2
-3 -13 -8 -10 -10 -15 -5 -11 6 6 17 -12 28 -45 17 -51 17 -51 12 -12 -3 25 0
47 8 58 11 15 13 7 11 -51 -2 -50 -1 -60 5 -38 l9 30 2 -30 c3 -28 3 -27 10
10 l8 40 -2 -45 c-1 -40 -3 -45 -22 -42 -20 3 -21 -1 -19 -55 1 -32 4 -65 7
-73 16 -40 17 -68 3 -80 -14 -11 -15 -8 -12 26 3 21 2 31 0 21 -2 -9 -9 -14
-15 -11 -7 5 -8 2 -3 -6 4 -7 4 -15 -1 -19 -5 -3 -17 -17 -25 -31 -14 -21 -14
-27 -3 -38 22 -20 16 -48 -11 -60 -31 -14 -45 -15 -45 -3 0 5 14 11 30 15 33
6 41 31 13 40 -10 3 -31 1 -48 -4 l-30 -9 30 0 c51 2 51 -1 0 -23 -35 -14 -76
-21 -135 -22 -49 -1 -72 1 -55 5 17 3 22 7 13 8 -10 0 -18 4 -18 9 0 4 42 6
92 4 64 -2 88 0 78 7 -8 6 -33 7 -57 4 -23 -3 -56 -3 -75 1 l-33 6 3 220 c2
121 0 220 -5 220 -4 0 -7 -87 -5 -192 3 -199 -2 -254 -19 -227 -5 7 -9 103 -9
211 0 240 -5 231 110 229 30 -1 62 3 70 9 11 8 1 9 -37 5 -29 -4 -66 -4 -82 0
-49 11 -17 30 52 31 40 0 54 -2 41 -8z m353 6 c-3 -3 -12 -4 -19 -1 -8 3 -5 6
6 6 11 1 17 -2 13 -5z m436 -6 c-5 -10 -74 -10 -90 0 -6 4 13 7 42 7 29 0 51
-3 48 -7z m287 8 c0 -3 -4 -8 -10 -11 -5 -3 -10 -1 -10 4 0 6 5 11 10 11 6 0
10 -2 10 -4z m27 -22 c-15 -14 -27 -33 -28 -42 0 -10 -3 -12 -6 -4 -8 21 19
68 40 70 19 1 18 -1 -6 -24z m58 16 c3 -5 1 -10 -4 -10 -6 0 -11 5 -11 10 0 6
2 10 4 10 3 0 8 -4 11 -10z m475 0 c0 -12 -17 -12 -45 0 -17 7 -15 9 13 9 17
1 32 -3 32 -9z m380 0 c0 -5 -2 -10 -4 -10 -3 0 -8 5 -11 10 -3 6 -1 10 4 10
6 0 11 -4 11 -10z m95 0 c-3 -5 -21 -10 -38 -9 -31 1 -31 1 -7 9 36 11 52 11
45 0z m211 3 c-4 -5 -47 -11 -94 -14 l-87 -6 125 -2 c69 -1 119 -5 113 -8 -17
-6 -17 -90 -1 -95 6 -2 8 -10 4 -17 -6 -9 -11 -8 -22 6 -11 16 -13 16 -14 2 0
-14 -6 -15 -38 -6 -21 5 -55 7 -75 3 -36 -7 -37 -8 -37 -51 0 -57 19 -59 22
-2 l1 42 4 -42 4 -43 65 -1 c78 -2 80 -2 90 -11 4 -5 0 -8 -10 -8 -9 0 -14 -5
-11 -10 4 -6 11 -8 16 -5 5 4 9 -3 9 -15 0 -23 -31 -41 -38 -22 -2 7 -13 12
-25 11 -21 0 -21 -1 -2 -9 18 -8 -61 -4 -90 5 -6 1 -9 -20 -8 -54 l1 -56 39
-6 c30 -5 27 -6 -17 -4 -30 1 -46 0 -35 -3 19 -5 19 -5 1 -12 -11 -3 8 -6 42
-6 33 1 59 5 59 10 -1 5 4 11 11 13 6 3 12 -2 12 -11 0 -14 3 -14 20 -4 11 7
21 19 24 28 2 9 4 6 5 -7 0 -13 -3 -23 -8 -23 -6 0 -6 -12 0 -32 5 -18 9 -36
9 -39 0 -12 -223 -9 -257 3 l-33 12 0 217 c0 197 2 217 18 224 9 4 66 6 127 5
60 0 107 1 105 4 -3 2 -56 6 -118 7 -61 1 -112 6 -112 11 0 11 35 18 120 21
41 2 79 4 84 5 5 1 6 -1 2 -5z m195 -12 c6 10 9 10 9 2 0 -7 5 -13 11 -13 6 0
9 6 6 13 -3 8 1 14 9 14 25 0 15 -26 -13 -33 -46 -10 -50 -14 -13 -12 19 1 43
8 52 16 22 18 35 9 40 -27 2 -17 1 -28 -4 -25 -4 3 -8 14 -8 25 0 10 -5 19
-11 19 -7 0 -8 -7 -3 -17 4 -10 7 -28 7 -40 -1 -14 4 -20 13 -16 8 3 14 0 14
-6 0 -6 -4 -11 -10 -11 -19 0 -10 -21 13 -30 17 -7 18 -9 4 -9 -14 -1 -16 -6
-11 -28 4 -16 13 -32 19 -38 20 -16 36 -76 25 -90 -7 -8 -7 -21 -1 -36 l10
-24 1 25 c0 14 1 36 2 50 1 14 -1 35 -6 47 -6 18 -4 21 12 18 16 -3 22 5 30
37 7 27 7 49 1 66 -13 33 -1 108 14 93 8 -8 7 -18 -2 -35 -10 -18 -10 -28 -2
-42 11 -18 11 -18 9 1 -2 23 11 68 22 75 5 3 30 4 57 2 l48 -4 0 -232 0 -231
-37 0 -38 0 -1 75 c0 41 0 116 0 165 l0 90 -14 -50 c-15 -54 -18 -82 -5 -50 6
15 8 10 8 -20 0 -49 -17 -107 -29 -100 -4 3 -7 -11 -6 -32 2 -31 -1 -38 -15
-37 -13 1 -18 -6 -18 -23 0 -18 -4 -23 -14 -20 -8 3 -17 0 -19 -7 -4 -10 1
-12 16 -10 12 2 16 2 9 -2 -6 -3 -10 -9 -8 -13 3 -4 -8 -8 -24 -8 -16 0 -27 4
-24 8 2 4 -2 10 -8 12 -8 4 -7 6 4 6 9 1 20 6 24 12 4 8 -1 9 -16 4 -15 -5
-20 -4 -16 4 4 6 4 21 1 32 -6 17 -9 19 -16 8 -6 -9 -7 -1 -3 24 4 23 2 37 -4
37 -6 0 -13 -12 -15 -27 -4 -26 -4 -26 -6 5 0 17 4 32 9 32 13 0 13 30 0 50
-7 12 -11 8 -16 -17 -9 -47 -22 -41 -22 10 1 34 2 38 8 17 l8 -25 1 27 c1 15
-3 29 -8 33 -6 3 -10 33 -10 66 0 33 -2 63 -5 67 -3 3 -6 -75 -6 -172 0 -154
-2 -177 -15 -172 -8 3 -15 1 -15 -4 0 -6 7 -10 15 -10 8 0 15 -7 15 -15 0 -8
-8 -15 -17 -15 -15 0 -16 2 -3 10 12 7 8 10 -15 10 -24 0 -27 -2 -15 -11 12
-9 12 -10 -3 -5 -10 3 -21 6 -23 6 -2 0 -4 5 -4 10 0 6 9 10 20 10 11 0 20 4
20 9 0 5 -10 7 -22 4 -19 -4 -20 -3 -8 6 10 7 11 11 3 11 -17 0 -15 450 2 450
5 0 3 5 -5 10 -13 8 -12 10 3 10 9 0 18 8 18 18 1 15 2 14 6 -2 4 -15 7 -16
14 -5z m282 12 c-26 -10 -12 -22 30 -26 23 -2 12 -3 -25 -3 -38 1 -68 4 -68 7
0 6 49 27 65 27 6 0 4 -2 -2 -5z m62 -3 c-3 -5 -16 -10 -28 -10 -18 0 -19 2
-7 10 20 13 43 13 35 0z m227 -5 c60 0 97 -4 95 -10 -1 -6 -41 -10 -94 -10
-50 0 -86 -3 -80 -8 13 -8 236 -6 235 3 -4 49 28 56 37 8 3 -18 5 -127 3 -243
-3 -190 -5 -210 -20 -213 -10 -2 -18 2 -18 8 0 7 7 9 15 6 14 -5 16 20 14 218
0 125 -5 229 -11 237 -6 10 -8 -4 -5 -43 4 -60 0 -67 -22 -45 -10 10 -12 9
-11 -3 4 -29 0 -50 -10 -50 -6 0 -8 11 -6 25 5 25 4 25 -61 25 l-66 0 7 -37
c3 -21 6 -50 6 -65 0 -27 1 -28 60 -28 60 0 60 0 60 -29 0 -20 -6 -31 -17 -35
-11 -3 -7 -4 7 -3 21 2 25 7 24 35 0 17 3 32 8 32 13 0 9 -70 -4 -72 -7 -1
-40 -2 -73 -2 -58 -1 -60 -2 -63 -30 -2 -15 -1 -39 2 -52 5 -20 13 -24 46 -24
21 0 42 5 45 10 3 6 23 10 43 9 l37 -1 -35 -9 c-19 -5 -58 -13 -87 -17 -51 -8
-51 -8 -57 21 -3 16 -6 42 -6 58 0 16 -4 29 -10 29 -13 0 -13 -66 1 -92 6 -11
8 -23 4 -26 -13 -13 -25 24 -25 77 0 48 2 53 20 48 11 -3 20 -1 20 4 0 5 -11
9 -25 9 -24 0 -25 -2 -25 -62 0 -35 4 -68 8 -74 4 -6 40 -10 84 -10 42 1 69 4
60 8 -15 6 -14 7 3 7 11 1 31 4 45 6 24 5 24 5 3 -4 -13 -6 -23 -13 -23 -16 0
-4 10 -4 23 0 20 6 21 5 5 -8 -10 -8 -18 -23 -18 -34 0 -16 -9 -22 -37 -27
-56 -9 -154 -7 -190 3 -32 9 -32 9 -27 -22 3 -26 2 -28 -5 -12 l-10 20 0 -20
c-1 -16 -3 -17 -11 -5 -5 8 -5 17 -1 20 5 3 9 104 10 224 2 172 -1 221 -11
227 -11 7 -10 9 1 9 11 0 11 3 1 15 -8 9 -8 15 -2 15 6 0 14 10 17 21 4 12 10
17 14 12 3 -5 50 -9 103 -8z m138 -6 c0 -5 -4 -9 -10 -9 -5 0 -10 7 -10 16 0
8 5 12 10 9 6 -3 10 -10 10 -16z m110 2 c0 -4 -3 -11 -7 -14 -3 -4 -7 -105 -7
-225 l0 -217 -5 200 -6 200 -5 -200 -6 -200 0 236 c0 222 1 236 18 231 10 -2
18 -8 18 -11z m24 4 c-4 -9 0 -15 10 -15 9 0 16 7 16 15 0 16 12 20 23 8 4 -3
-1 -12 -11 -19 -9 -7 -13 -16 -8 -21 5 -4 11 -2 13 5 7 18 19 15 20 -7 1 -10
13 -30 27 -44 28 -28 33 -52 14 -60 -8 -4 -9 -6 -2 -6 6 -1 17 6 24 14 10 12
9 20 -4 40 -9 14 -12 25 -6 25 5 0 10 -6 11 -12 0 -7 7 1 14 17 11 23 14 26
15 10 0 -12 3 -16 8 -9 17 25 78 37 101 20 11 -9 13 -7 9 4 -2 8 -22 18 -44
21 -30 5 -37 12 -8 8 4 0 11 5 15 13 7 10 9 10 9 1 0 -7 9 -13 20 -13 11 0 20
5 20 10 0 6 5 10 12 10 9 0 9 -3 0 -12 -18 -18 -17 -464 1 -471 7 -3 5 -6 -5
-6 -16 -1 -18 17 -21 207 l-3 207 -1 -215 -1 -215 -48 0 c-46 0 -47 1 -61 39
-16 49 -21 54 -34 36 -8 -11 -12 -12 -16 -2 -2 6 -11 12 -19 12 -8 0 -14 10
-14 22 l0 21 19 -21 c22 -26 27 -27 35 -6 4 10 2 13 -6 8 -8 -5 -9 -2 -5 11 4
9 3 23 -3 30 -6 7 -13 23 -15 35 -2 13 -7 25 -11 29 -4 3 -4 -3 -1 -14 6 -18
6 -19 -6 -3 -12 15 -13 4 -13 -72 0 -49 4 -84 8 -77 4 6 10 8 14 4 8 -8 -23
-41 -45 -48 -11 -4 -10 -9 3 -22 16 -16 16 -17 -3 -17 -12 0 -21 6 -21 15 0 8
-4 15 -10 15 -5 0 -10 -5 -10 -11 0 -6 -7 -3 -16 6 -14 14 -16 46 -15 241 2
199 9 274 25 274 3 0 3 -7 0 -15z m196 11 c0 -2 -9 -6 -20 -9 -11 -3 -20 -1
-20 4 0 5 9 9 20 9 11 0 20 -2 20 -4z m132 -8 c-7 -7 -12 -21 -12 -32 0 -14
-3 -17 -11 -9 -12 12 8 53 25 53 6 0 5 -5 -2 -12z m321 3 c4 11 6 11 6 -1 1
-13 -20 -15 -131 -14 l-133 1 115 -7 115 -6 -143 0 c-101 0 -139 3 -132 10 13
13 282 25 291 12 4 -4 9 -2 12 5z m52 0 c3 -5 1 -12 -5 -16 -5 -3 -10 0 -11 7
0 7 -5 0 -9 -16 -5 -16 -8 -42 -6 -58 2 -15 -1 -28 -5 -28 -5 0 -9 3 -9 8 0 4
-27 5 -61 4 l-60 -4 3 -204 c3 -183 1 -205 -13 -201 -12 3 -15 -2 -12 -22 l3
-26 -11 27 c-6 17 -15 25 -25 21 -12 -4 -14 24 -14 184 l0 190 -32 0 c-18 0
-42 2 -53 5 -11 3 -14 3 -7 1 6 -3 12 -8 12 -13 0 -13 -43 4 -48 18 -2 7 4 12
13 12 9 0 13 5 10 11 -4 6 -13 8 -21 5 -10 -4 -14 2 -13 22 1 17 3 20 6 10 6
-24 21 -23 25 2 3 20 10 21 146 23 87 1 143 -2 146 -8 1 -5 6 5 10 23 7 30 28
43 41 23z m-4635 -10 l-85 -5 90 -7 90 -6 -112 1 c-62 0 -113 2 -113 3 0 13
58 22 130 20 l85 -1 -85 -5z m1407 3 c-3 -3 -12 -4 -19 -1 -8 3 -5 6 6 6 11 1
17 -2 13 -5z m633 -3 l-45 -5 55 -7 c50 -6 47 -6 -24 -5 l-80 1 -8 -34 c-14
-50 -6 -427 9 -442 9 -9 12 -7 10 10 -1 11 -5 21 -9 21 -4 0 -8 36 -8 80 0 47
4 80 10 80 6 0 10 18 10 40 0 22 -4 40 -10 40 -6 0 -10 33 -10 80 0 44 4 80 9
80 5 0 8 8 7 18 -1 15 7 17 64 14 36 -2 85 1 110 7 28 6 49 6 55 0 5 -5 0 -9
-15 -10 -23 -1 -23 -1 5 -10 19 -5 31 -5 36 3 4 7 11 2 19 -12 11 -20 10 -21
-8 -16 -19 6 -19 5 -9 -18 7 -13 14 -21 17 -16 3 4 5 -20 5 -55 0 -39 -4 -61
-10 -57 -5 3 -4 -2 3 -11 12 -14 12 -19 -1 -32 -10 -9 -18 -11 -22 -5 -3 5 -1
10 4 10 6 0 11 5 11 10 0 16 -17 12 -24 -6 -3 -8 1 -22 8 -30 13 -12 16 -12
25 3 9 15 10 14 9 -9 -1 -15 -6 -24 -11 -21 -5 3 -6 -4 -3 -15 4 -12 7 -48 7
-82 1 -45 4 -60 15 -60 19 0 18 -39 -1 -46 -8 -4 -15 -13 -15 -21 0 -13 -3
-13 -16 -2 -13 10 -17 10 -25 -2 -8 -12 -10 -12 -19 1 -8 12 -3 16 25 18 19 2
35 8 35 13 0 6 -15 8 -35 5 -19 -3 -34 -3 -34 2 1 4 1 31 0 60 -1 42 -4 52
-18 53 -11 0 -13 3 -5 6 15 6 16 49 0 59 -8 5 -9 0 -6 -14 4 -15 2 -22 -7 -22
-8 0 -16 -8 -18 -17 -3 -11 -5 -7 -6 10 0 16 3 26 8 23 5 -3 11 5 13 19 4 17
1 25 -9 25 -8 0 -12 -3 -9 -8 2 -4 -3 -16 -11 -27 -15 -19 -15 -19 -11 6 3 14
0 26 -6 26 -7 0 -10 -30 -8 -90 2 -62 0 -87 -7 -82 -6 3 -12 44 -13 93 l-2 87
-6 -90 c-3 -49 -10 -98 -14 -107 -5 -10 -5 -18 -2 -18 4 0 11 10 16 23 9 22 9
22 9 1 1 -22 -16 -34 -47 -34 -15 0 -15 2 -2 10 12 8 10 10 -8 10 -13 0 -20
-4 -17 -10 7 -11 -6 -13 -29 -4 -9 3 -16 15 -16 26 0 10 -3 17 -7 15 -9 -6 -7
321 2 400 6 47 9 54 33 59 15 3 32 7 37 9 6 2 28 3 50 2 l40 0 -45 -6z m83 2
c-7 -2 -19 -2 -25 0 -7 3 -2 5 12 5 14 0 19 -2 13 -5z m445 -10 c3 -10 -20
-13 -95 -11 l-98 2 95 5 95 5 -125 6 -125 6 124 0 c90 -1 126 -4 129 -13z
m-4321 -25 c-3 -7 -5 -2 -5 12 0 14 2 19 5 13 2 -7 2 -19 0 -25z m853 -3 c-28
-29 -40 -32 -35 -7 2 9 4 21 4 25 1 5 10 5 21 2 13 -4 20 -2 20 6 0 7 3 9 7 6
3 -4 -4 -18 -17 -32z m1797 28 c-11 -10 -58 -13 -52 -2 4 5 18 9 32 9 15 0 23
-3 20 -7z m522 -14 l-24 -21 24 7 c14 4 21 3 17 -3 -5 -9 14 -30 43 -47 11 -6
13 -4 8 9 -5 13 -2 17 10 14 9 -2 18 -10 20 -18 4 -13 3 -13 -6 0 -9 13 -11
13 -11 -2 0 -9 5 -20 10 -23 6 -3 10 -21 10 -38 -1 -30 -1 -31 -15 -13 -8 11
-12 29 -9 39 4 13 2 17 -5 13 -6 -4 -11 -23 -11 -42 0 -27 5 -37 23 -43 l22
-9 -27 -10 c-14 -6 -29 -19 -32 -29 -12 -34 -57 -56 -125 -63 -59 -5 -62 -7
-34 -14 18 -4 37 -5 43 -1 5 3 10 1 10 -4 0 -6 -15 -11 -33 -11 -42 0 -52 -9
-29 -26 9 -7 12 -14 7 -14 -6 0 -9 -19 -7 -45 3 -28 0 -45 -7 -45 -6 0 -11 -9
-11 -20 0 -11 -1 -20 -3 -20 -1 0 -17 4 -35 9 -20 6 -30 6 -27 0 4 -5 2 -9 -4
-9 -5 0 -9 9 -8 19 0 11 5 17 9 15 4 -3 8 97 8 223 0 151 -4 223 -10 213 -8
-13 -10 -13 -10 2 0 15 14 18 113 21 61 1 116 4 121 5 5 1 -2 -8 -15 -19z
m821 11 c0 -5 -4 -10 -10 -10 -5 0 -10 5 -10 10 0 6 5 10 10 10 6 0 10 -4 10
-10z m-3936 -53 c4 -49 -9 -67 -15 -19 -4 29 0 76 6 70 3 -2 6 -25 9 -51z
m1249 46 c-7 -2 -19 -2 -25 0 -7 3 -2 5 12 5 14 0 19 -2 13 -5z m587 -3 l-25
-8 25 -2 c18 -2 20 -4 8 -7 -10 -2 -18 -9 -18 -14 0 -5 8 -9 18 -10 9 0 12 -3
6 -5 -6 -3 -9 -16 -6 -29 2 -15 0 -25 -7 -25 -6 0 -11 8 -11 18 0 11 -3 13 -8
6 -4 -7 -16 -14 -27 -17 -15 -4 -14 -5 8 -6 15 0 27 -6 27 -12 0 -7 -7 -8 -17
-4 -29 11 -122 22 -117 13 3 -4 0 -8 -5 -8 -6 0 -11 5 -11 10 0 6 -4 10 -10
10 -5 0 -10 -7 -10 -15 0 -8 5 -15 10 -15 6 0 11 -19 12 -42 l1 -43 7 45 7 45
1 -42 2 -43 63 -1 c34 -1 68 -1 76 0 7 2 10 -2 7 -7 -3 -6 0 -13 6 -16 7 -3 3
-3 -8 -1 -18 5 -21 1 -21 -20 0 -29 -13 -47 -20 -27 -3 6 -9 12 -14 12 -6 0
-7 -4 -4 -10 3 -5 0 -8 -7 -6 -33 11 -118 16 -118 7 0 -5 9 -7 20 -4 18 5 20
1 18 -48 l-1 -54 -7 50 c-6 42 -7 45 -8 15 -1 -19 -6 -50 -11 -68 -6 -20 -6
-32 0 -32 5 0 9 8 10 18 0 14 2 14 7 2 5 -10 23 -15 59 -15 28 -1 50 2 48 5
-2 3 3 14 10 24 13 17 14 17 21 -8 3 -15 13 -26 23 -26 10 0 12 -3 5 -8 -20
-13 -23 -52 -6 -69 16 -15 16 -16 -5 -11 -12 3 -24 1 -26 -6 -2 -6 -2 -1 0 12
4 22 1 23 -39 18 -24 -3 -77 -3 -118 2 l-75 7 -5 220 -6 220 -2 -211 c-2 -197
-10 -264 -34 -264 -9 0 -21 60 -14 67 3 4 6 -1 6 -10 0 -9 6 -17 13 -17 9 0
11 47 9 210 -3 260 -13 245 147 241 74 -2 111 1 111 8 0 6 12 11 28 10 l27 -1
-25 -8z m277 -15 c-9 -19 -13 -21 -15 -9 -3 13 12 33 25 34 0 0 -4 -11 -10
-25z m1198 -74 c-12 -35 -12 -35 -10 29 4 80 5 83 15 41 5 -22 3 -47 -5 -70z
m100 89 c-3 -5 1 -10 9 -10 9 0 16 5 16 10 0 6 5 10 10 10 6 0 9 -3 8 -7 -1
-5 1 -25 6 -47 7 -34 9 -36 20 -20 7 9 21 19 30 20 13 2 15 -3 10 -24 -9 -38
-14 -40 -15 -6 -1 29 -1 29 -9 4 -11 -36 -11 -52 0 -45 6 3 10 3 10 -2 0 -4 3
-19 6 -33 5 -25 5 -25 -12 -5 -13 16 -15 16 -11 3 3 -9 11 -36 17 -60 7 -24
15 -47 18 -53 3 -5 7 -22 8 -36 1 -15 14 -38 27 -52 26 -25 42 -78 35 -114 -3
-15 -13 -18 -58 -19 -51 -1 -52 -1 -7 3 26 2 47 7 47 12 0 4 -15 5 -33 3 -27
-3 -37 1 -51 23 -11 16 -15 34 -10 48 5 18 4 20 -7 9 -11 -10 -11 -19 -1 -44
13 -34 7 -52 -9 -28 -9 14 -8 65 2 100 3 12 -8 16 -54 18 -55 3 -58 2 -48 -17
6 -11 11 -28 11 -38 -1 -11 -6 -6 -15 15 -21 47 -25 39 -8 -15 14 -44 28 -144
16 -115 -4 10 -8 10 -19 1 -16 -13 -19 2 -3 18 6 6 9 21 7 34 -3 21 -6 18 -25
-21 -12 -25 -22 -39 -23 -33 0 9 -7 10 -26 3 -33 -13 -43 -12 -24 1 12 8 9 9
-12 5 -16 -4 -28 -2 -28 4 0 5 6 10 14 10 8 0 22 3 32 7 12 4 15 3 10 -5 -4
-7 -1 -12 8 -12 9 0 16 4 16 9 0 14 -23 19 -56 14 -22 -3 -26 -2 -14 6 8 6 10
11 5 11 -15 0 -13 99 2 104 7 3 10 -1 7 -9 -3 -8 -1 -22 6 -32 10 -15 10 -14
5 10 -3 17 -2 26 4 23 5 -4 5 10 0 35 -10 43 0 69 27 69 15 0 19 25 7 33 -5 2
-2 2 6 0 9 -2 12 3 8 17 -3 11 -1 18 4 14 10 -6 13 16 10 54 -1 16 2 21 10 16
9 -5 10 -1 7 14 -4 12 -2 20 3 16 5 -3 9 -1 9 5 0 5 3 18 6 28 5 15 4 15 -5 3
-19 -26 -12 -3 10 34 13 22 29 36 41 36 10 0 16 -4 13 -10z m630 0 c-19 -5 23
-8 108 -9 96 -1 136 2 132 10 -5 7 4 9 26 7 26 -2 35 -9 40 -28 10 -34 11
-418 2 -423 -5 -3 -7 87 -5 200 3 189 1 205 -14 199 -14 -5 -15 -4 -4 9 10 12
10 15 -4 15 -9 0 -16 -8 -16 -20 0 -11 7 -20 15 -20 9 0 15 -9 14 -22 -1 -17
-2 -19 -6 -5 -4 14 -15 17 -66 15 -50 -1 -54 -2 -19 -5 36 -4 42 -7 41 -26 -1
-17 -2 -18 -6 -4 -2 9 -9 17 -15 17 -6 0 -8 -3 -5 -7 4 -3 3 -11 -2 -17 -5 -6
-11 -99 -13 -207 -2 -148 -6 -193 -14 -184 -7 6 -10 25 -8 41 4 29 3 29 -8 -3
-10 -30 -38 -47 -38 -23 0 6 4 10 9 10 18 0 25 49 30 208 5 123 3 161 -6 158
-7 -3 -14 6 -16 22 -2 15 -5 -64 -6 -175 0 -128 -5 -203 -11 -203 -5 0 -10 -5
-10 -11 0 -6 -7 -17 -15 -25 -12 -12 -15 -12 -15 -2 0 9 -2 10 -8 2 -5 -9 -11
-8 -20 2 -11 12 -8 14 18 14 16 0 30 4 30 10 0 5 -7 7 -15 4 -13 -5 -15 21
-15 201 l0 207 -65 -4 c-65 -4 -75 1 -75 37 0 23 30 45 58 44 27 -1 27 -1 -3
-9z m-5315 -7 c-8 -3 -21 -12 -27 -21 -11 -14 -13 -14 -13 -1 0 21 10 29 34
28 14 0 16 -2 6 -6z m3790 -226 c3 -141 1 -226 -5 -233 -7 -7 -10 68 -10 227
0 131 2 235 5 232 3 -2 7 -104 10 -226z m3814 170 c3 -49 2 -55 -15 -54 -11 1
-19 7 -19 15 0 7 5 10 10 7 6 -4 10 14 10 46 0 68 10 58 14 -14z m-6364 11 c0
-13 -5 -30 -10 -38 -7 -11 -10 -5 -10 23 0 20 5 37 10 37 6 0 10 -10 10 -22z
m775 12 c-3 -5 -12 -10 -18 -10 -7 0 -6 4 3 10 19 12 23 12 15 0z m482 -312
c-1 -62 -3 -14 -3 107 0 121 2 172 3 113 2 -59 2 -158 0 -220z m4715 195 c-2
-65 -6 -120 -8 -122 -2 -2 -4 53 -4 123 0 70 4 125 8 122 5 -3 7 -58 4 -123z
m-7316 102 c14 -13 13 -17 -1 -37 l-17 -23 7 23 c4 13 1 29 -5 37 -16 20 -3
19 16 0z m33 6 c8 -5 9 -11 3 -15 -5 -3 -15 1 -22 9 -14 16 -3 20 19 6z m3778
-13 c-3 -8 -6 -5 -6 6 -1 11 2 17 5 13 3 -3 4 -12 1 -19z m50 -15 c-3 -10 -5
-4 -5 12 0 17 2 24 5 18 2 -7 2 -21 0 -30z m-1787 2 c-7 -9 -10 -19 -6 -23 4
-4 13 1 20 11 16 21 26 22 26 2 0 -8 -6 -14 -12 -12 -7 1 -12 -4 -10 -10 3
-19 -25 -16 -32 3 -6 15 9 44 21 44 3 0 0 -7 -7 -15z m3410 -15 c-10 -6 -11
-10 -2 -10 9 0 12 -45 12 -190 0 -104 -3 -190 -7 -190 -5 0 -8 83 -8 184 0
143 -3 182 -13 179 -7 -3 -18 0 -26 6 -7 6 -21 9 -30 5 -11 -4 -16 -1 -16 10
0 13 11 16 53 16 37 0 48 -3 37 -10z m197 -22 c-3 -7 -5 -2 -5 12 0 14 2 19 5
13 2 -7 2 -19 0 -25z m1160 20 c0 -9 -17 -13 -49 -13 -46 0 -56 4 -41 18 12
13 90 8 90 -5z m820 -13 c2 -11 0 -14 -3 -7 -3 7 -25 12 -55 12 -28 0 -49 5
-49 11 0 6 20 9 52 7 44 -3 53 -6 55 -23z m-753 0 c3 -8 1 -15 -4 -15 -6 0
-10 7 -10 15 0 8 2 15 4 15 2 0 6 -7 10 -15z m-4869 -14 c-3 -6 -11 -11 -16
-11 -5 0 -4 6 3 14 14 16 24 13 13 -3z m2140 9 c-27 -12 -43 -12 -25 0 8 5 22
9 30 9 10 0 8 -3 -5 -9z m-2785 -50 c0 -22 -4 -40 -10 -40 -5 0 -10 18 -10 40
0 22 5 40 10 40 6 0 10 -18 10 -40z m3520 -39 c0 -73 -9 -60 -14 18 -2 37 0
57 5 49 5 -7 9 -37 9 -67z m2540 -81 c0 -100 -4 -160 -10 -160 -6 0 -10 60
-10 160 0 100 4 160 10 160 6 0 10 -60 10 -160z m120 0 c0 -100 -4 -160 -10
-160 -6 0 -10 60 -10 160 0 100 4 160 10 160 6 0 10 -60 10 -160z m-5556 134
c9 -3 16 -14 16 -23 -1 -13 -3 -13 -15 3 -12 16 -18 17 -27 8 -9 -9 -8 -15 8
-27 16 -12 16 -14 3 -15 -22 0 -33 29 -18 46 13 16 12 16 33 8z m2669 -9 c4
-8 2 -17 -3 -20 -6 -4 -10 3 -10 14 0 25 6 27 13 6z m1667 -5 c0 -5 -4 -10
-10 -10 -5 0 -10 5 -10 10 0 6 5 10 10 10 6 0 10 -4 10 -10z m-4395 -39 c-3
-6 -11 -11 -16 -11 -5 0 -4 6 3 14 14 16 24 13 13 -3z m1905 -58 c0 -31 -4
-53 -8 -47 -8 9 -4 104 4 104 2 0 4 -26 4 -57z m417 10 c-3 -10 -5 -2 -5 17 0
19 2 27 5 18 2 -10 2 -26 0 -35z m285 15 c-17 -17 -15 -33 3 -18 8 7 15 8 15
2 0 -5 -6 -15 -14 -21 -11 -9 -15 -9 -19 1 -4 8 -8 9 -14 3 -13 -17 -33 -16
-26 1 3 8 8 13 11 10 2 -3 14 6 24 20 11 14 23 22 26 19 3 -3 0 -11 -6 -17z
m-2628 6 c19 -7 22 -35 4 -31 -7 1 -12 -4 -10 -10 1 -7 -5 -13 -13 -13 -20 0
-19 10 2 26 10 7 15 16 11 20 -4 4 -16 1 -25 -7 -16 -13 -17 -12 -4 4 15 19
14 19 35 11z m1296 -41 c0 -14 -2 -15 -9 -4 -7 11 -9 11 -14 0 -4 -10 -6 -9
-6 4 -1 9 6 17 14 17 8 0 15 -8 15 -17z m-1880 -9 c0 -8 -4 -12 -10 -9 -6 4
-10 -6 -11 -22 l-1 -28 -7 25 c-5 17 -2 29 8 37 21 16 21 16 21 -3z m521 -7
c-10 -9 -11 -8 -5 6 3 10 9 15 12 12 3 -3 0 -11 -7 -18z m2738 -41 c-1 -17 -2
-16 -9 6 -4 14 -11 32 -15 40 -3 7 1 4 9 -6 9 -11 16 -29 15 -40z m-2739 2 c0
-7 -5 -6 -13 1 -11 8 -18 6 -32 -9 -20 -22 -8 -28 14 -7 9 8 12 8 7 0 -3 -6 0
-14 6 -16 7 -3 -2 -4 -19 -3 -35 4 -60 -15 -47 -35 4 -7 3 -9 -3 -6 -13 8 -36
-17 -25 -28 4 -5 2 -5 -4 -2 -6 3 -20 0 -31 -8 -15 -11 -19 -23 -17 -47 4 -29
3 -30 -9 -13 -9 11 -19 15 -27 10 -10 -6 -9 -11 6 -23 17 -14 18 -14 1 -8 -10
3 -28 1 -40 -5 -12 -7 22 33 76 88 54 55 105 110 113 122 13 17 19 20 30 10 8
-6 14 -16 14 -21z m3075 22 c3 -5 -1 -10 -10 -10 -9 0 -13 5 -10 10 3 6 8 10
10 10 2 0 7 -4 10 -10z m-3575 -18 c0 -11 -9 -29 -20 -42 -24 -28 -26 -15 -4
28 18 37 24 40 24 14z m5737 3 c8 -9 13 -19 9 -22 -7 -7 -36 16 -36 28 0 13
10 11 27 -6z m-3246 -32 c-8 -15 -10 -15 -11 -2 0 17 10 32 18 25 2 -3 -1 -13
-7 -23z m1296 -5 c-3 -8 -6 -5 -6 6 -1 11 2 17 5 13 3 -3 4 -12 1 -19z m-5161
-65 c-6 -7 -45 61 -39 69 2 5 13 -8 24 -28 10 -21 17 -39 15 -41z m4827 60
c-13 -2 -35 -2 -50 0 -16 2 -5 4 22 4 28 0 40 -2 28 -4z m154 -25 c-3 -8 -6
-5 -6 6 -1 11 2 17 5 13 3 -3 4 -12 1 -19z m-3620 -10 c-3 -8 -6 -5 -6 6 -1
11 2 17 5 13 3 -3 4 -12 1 -19z m1550 16 c-3 -3 -12 -4 -19 -1 -8 3 -5 6 6 6
11 1 17 -2 13 -5z m960 -16 c-3 -8 -6 -5 -6 6 -1 11 2 17 5 13 3 -3 4 -12 1
-19z m-2539 -104 l-15 -57 1 85 c1 78 2 83 14 57 12 -23 12 -37 0 -85z m1805
109 c-13 -2 -33 -2 -45 0 -13 2 -3 4 22 4 25 0 35 -2 23 -4z m3286 -40 c1 -7
-3 -13 -9 -13 -5 0 -10 15 -9 33 0 27 2 29 9 12 5 -11 9 -26 9 -32z m-6445 10
c18 -21 18 -22 -1 -20 -12 0 -20 9 -21 26 -1 13 -1 23 1 20 1 -2 11 -14 21
-26z m2929 20 c-7 -2 -19 -2 -25 0 -7 3 -2 5 12 5 14 0 19 -2 13 -5z m3304
-30 c-3 -10 -5 -4 -5 12 0 17 2 24 5 18 2 -7 2 -21 0 -30z m-2347 7 c0 -5 -4
-10 -10 -10 -5 0 -10 5 -10 10 0 6 5 10 10 10 6 0 10 -4 10 -10z m3294 -6 c9
-24 2 -26 -12 -4 -7 11 -8 20 -3 20 5 0 12 -7 15 -16z m-5364 -4 c0 -5 -5 -10
-11 -10 -5 0 -7 5 -4 10 3 6 8 10 11 10 2 0 4 -4 4 -10z m1437 -22 c-3 -8 -6
-5 -6 6 -1 11 2 17 5 13 3 -3 4 -12 1 -19z m-3504 -18 c-7 -28 -13 -25 -13 6
0 14 4 23 9 20 5 -3 7 -15 4 -26z m1074 -4 c-4 -27 -2 -36 11 -39 12 -3 11 -5
-5 -6 -26 -1 -40 16 -24 32 6 6 11 19 11 29 0 10 3 18 6 18 4 0 4 -15 1 -34z
m4830 2 c-3 -8 -6 -5 -6 6 -1 11 2 17 5 13 3 -3 4 -12 1 -19z m1338 2 c3 -11
1 -28 -5 -37 -7 -12 -10 -13 -7 -3 2 8 0 25 -4 38 -5 12 -5 22 1 22 5 0 11 -9
15 -20z m-6485 0 c0 -5 -5 -10 -11 -10 -5 0 -7 5 -4 10 3 6 8 10 11 10 2 0 4
-4 4 -10z m3008 -33 c-13 -13 -15 -12 -15 14 0 26 2 28 15 15 13 -13 13 -16 0
-29z m1658 6 c-11 -11 -17 4 -9 23 7 18 8 18 11 1 2 -10 1 -21 -2 -24z m1763
-6 c1 -5 -3 -5 -9 -2 -5 3 -10 16 -9 28 0 21 1 21 9 2 5 -11 9 -24 9 -28z m23
8 c-6 -34 -12 -32 -12 6 0 16 4 28 9 25 4 -3 6 -17 3 -31z m378 25 c0 -5 -6
-10 -12 -10 -10 0 -10 -2 -1 -8 8 -5 9 -12 2 -22 -8 -13 -11 -12 -24 4 -12 16
-23 18 -65 13 -31 -4 -48 -2 -45 3 4 6 31 10 61 10 30 0 54 5 54 10 0 6 7 10
15 10 8 0 15 -4 15 -10z m-6805 -19 c-3 -6 -11 -11 -17 -11 -6 0 -6 6 2 15 14
17 26 13 15 -4z m121 1 c-18 -4 -18 -5 5 -18 13 -7 18 -13 11 -14 -7 0 -22 5
-33 10 -15 9 -17 13 -7 24 7 7 20 11 28 8 12 -5 11 -7 -4 -10z m204 -2 c0 -5
-2 -10 -4 -10 -3 0 -8 5 -11 10 -3 6 -1 10 4 10 6 0 11 -4 11 -10z m2059 -12
c0 -16 -2 -18 -6 -8 -3 8 -11 18 -17 22 -7 5 -4 8 7 8 11 0 17 -7 16 -22z
m271 0 c10 -6 -17 -7 -76 -3 -61 4 -94 3 -99 -4 -8 -14 -25 -14 -25 -1 0 6 8
10 18 10 11 0 13 3 5 8 -6 4 28 5 75 3 48 -1 94 -7 102 -13z m753 2 c3 -11 1
-20 -4 -20 -5 0 -9 9 -9 20 0 11 2 20 4 20 2 0 6 -9 9 -20z m27 10 c0 -5 -2
-10 -4 -10 -3 0 -8 5 -11 10 -3 6 -1 10 4 10 6 0 11 -4 11 -10z m229 -19 c0
-10 -2 -11 -6 -3 -2 6 -17 12 -31 11 -20 0 -23 -2 -10 -7 10 -4 -29 -7 -86 -7
-80 0 -100 3 -90 12 6 7 46 13 90 15 106 4 134 0 133 -21z m169 12 c16 -16 16
-16 -1 -10 -10 4 -31 7 -45 8 l-27 1 25 8 c14 4 26 8 28 9 2 1 11 -7 20 -16z
m507 7 c3 -5 1 -10 -4 -10 -6 0 -11 5 -11 10 0 6 2 10 4 10 3 0 8 -4 11 -10z
m895 -5 c0 -8 -7 -15 -16 -15 -14 0 -14 3 -4 15 7 8 14 15 16 15 2 0 4 -7 4
-15z m214 3 c-2 -3 2 -9 8 -11 7 -3 -24 -6 -68 -6 -45 -1 -97 -3 -115 -6 -29
-4 -30 -3 -9 4 17 6 20 9 8 10 -10 1 -18 4 -18 9 0 4 45 7 99 7 54 0 97 -3 95
-7z m540 6 c8 -3 12 -12 9 -20 -7 -19 -23 -18 -23 1 0 8 -4 15 -10 15 -5 0
-10 -7 -10 -15 0 -19 -16 -20 -23 -1 -8 21 25 32 57 20z m364 -2 c-16 -2 -28
-7 -28 -12 0 -5 -38 -10 -85 -12 -63 -2 -84 0 -81 9 3 6 -2 13 -11 15 -9 2 40
3 108 3 68 0 112 -1 97 -3z m-7028 -12 c0 -5 -4 -10 -10 -10 -5 0 -10 5 -10
10 0 6 5 10 10 10 6 0 10 -4 10 -10z m37 4 c-3 -3 -12 -4 -19 -1 -8 3 -5 6 6
6 11 1 17 -2 13 -5z m889 -12 c1 -7 0 -8 -3 -2 -2 5 -23 9 -46 9 l-42 -2 35
-7 35 -7 -31 -2 c-18 0 -37 6 -44 15 -12 13 -7 15 40 12 33 -2 54 -8 56 -16z
m1867 11 c-7 -2 -19 -2 -25 0 -7 3 -2 5 12 5 14 0 19 -2 13 -5z m211 1 c35
-13 12 -19 -78 -19 -71 0 -92 3 -89 13 5 13 137 18 167 6z m2166 -5 c0 -5 -4
-7 -10 -4 -5 3 -10 1 -10 -4 0 -6 -5 -11 -11 -11 -8 0 -8 5 1 15 14 17 30 20
30 4z m1030 7 c0 -2 -11 -6 -25 -8 -14 -3 -25 -1 -25 3 0 5 11 9 25 9 14 0 25
-2 25 -4z m980 -15 c0 -4 -7 -8 -15 -8 -8 0 -15 6 -15 13 0 8 6 11 15 8 8 -4
15 -9 15 -13z m490 4 c0 -8 -5 -15 -11 -15 -5 0 -8 4 -5 9 4 5 0 12 -6 14 -8
3 -6 6 5 6 9 1 17 -6 17 -14z m44 0 c-4 -8 -8 -15 -10 -15 -2 0 -4 7 -4 15 0
8 4 15 10 15 5 0 7 -7 4 -15z m-7489 -13 c-3 -3 -11 0 -18 7 -9 10 -8 11 6 5
10 -3 15 -9 12 -12z m2895 8 c0 -5 -5 -10 -11 -10 -5 0 -7 5 -4 10 3 6 8 10
11 10 2 0 4 -4 4 -10z m1966 1 c-3 -5 -23 -9 -43 -9 -29 0 -33 2 -18 9 28 11
67 11 61 0z m34 -1 c0 -5 -4 -10 -10 -10 -5 0 -10 5 -10 10 0 6 5 10 10 10 6
0 10 -4 10 -10z m110 0 c0 -5 -4 -10 -10 -10 -5 0 -10 5 -10 10 0 6 5 10 10
10 6 0 10 -4 10 -10z m80 0 c13 -9 13 -10 0 -9 -8 0 -24 4 -35 9 l-20 9 20 0
c11 0 27 -4 35 -9z m1720 0 c0 -5 -4 -10 -10 -10 -5 0 -10 5 -10 10 0 6 5 10
10 10 6 0 10 -4 10 -10z m385 0 c-3 -5 -11 -10 -16 -10 -6 0 -7 5 -4 10 3 6
11 10 16 10 6 0 7 -4 4 -10z m-6838 -6 c-3 -3 -12 -4 -19 -1 -8 3 -5 6 6 6 11
1 17 -2 13 -5z m2820 0 c-3 -3 -12 -4 -19 -1 -8 3 -5 6 6 6 11 1 17 -2 13 -5z
m1076 -1 c-7 -2 -19 -2 -25 0 -7 3 -2 5 12 5 14 0 19 -2 13 -5z m1280 0 c-7
-2 -21 -2 -30 0 -10 3 -4 5 12 5 17 0 24 -2 18 -5z m-3953 -59 c0 -13 -4 -24
-9 -24 -4 0 -7 12 -5 26 1 16 -2 24 -9 21 -7 -2 -12 -12 -12 -23 0 -11 -7 -19
-17 -19 -9 0 -33 -16 -53 -35 -19 -18 -35 -30 -35 -26 0 5 26 34 58 65 59 60
82 64 82 15z m-318 -76 c3 -29 11 -54 17 -56 6 -2 11 -8 11 -14 0 -6 -6 -6
-15 2 -8 7 -15 19 -15 26 0 8 -4 14 -10 14 -5 0 -10 18 -10 40 0 58 17 49 22
-12z m226 2 c-7 -11 -19 -22 -28 -25 -8 -4 -4 5 9 19 29 31 36 33 19 6z m-71
-34 c-10 -8 -14 -16 -10 -18 4 -3 2 -3 -5 -2 -18 5 -62 -17 -56 -27 3 -5 -3
-6 -12 -2 -11 4 -15 3 -11 -4 8 -12 -50 -30 -60 -19 -4 3 3 6 15 6 11 0 27 8
34 18 7 9 27 23 43 31 17 7 37 17 45 22 24 13 37 10 17 -5z m-13 -42 c31 -12
16 -29 -25 -30 -35 0 -38 2 -20 9 11 6 21 14 21 19 0 10 3 10 24 2z m-1536
-51 c88 -3 132 -1 132 6 0 6 5 11 10 11 7 0 7 -6 0 -20 -7 -12 -7 -20 -1 -20
5 0 13 9 16 20 3 11 11 20 16 20 6 0 7 -4 4 -10 -3 -5 0 -10 7 -10 9 0 9 -3
-2 -10 -11 -7 -11 -10 -2 -10 7 0 11 -4 7 -9 -3 -5 6 -42 20 -83 17 -50 23
-61 18 -33 -3 22 -10 50 -14 63 -5 13 -5 22 1 22 6 0 10 -8 10 -17 1 -16 2
-16 15 1 14 19 15 18 15 -15 0 -19 -4 -51 -9 -71 -6 -25 -5 -38 1 -38 6 0 8
-12 4 -27 -3 -16 -3 -22 0 -15 8 18 24 4 24 -21 0 -18 -2 -19 -10 -7 -17 26
-11 1 15 -60 14 -33 25 -68 25 -79 0 -31 28 -14 39 23 8 29 8 27 7 -16 0 -25
-4 -41 -8 -35 -5 8 -8 6 -8 -6 0 -11 -5 -15 -11 -11 -8 4 -8 1 -1 -12 5 -11
12 -26 16 -34 3 -8 4 -3 2 13 -2 15 1 27 7 27 6 0 7 -15 4 -37 -4 -23 0 -56
11 -88 20 -58 20 -60 27 -53 3 3 -2 24 -10 48 -8 23 -15 45 -15 48 0 12 28
-34 33 -53 2 -11 3 -2 1 20 -2 32 -1 36 8 21 6 -10 8 -38 4 -64 -7 -51 2 -51
14 0 8 30 8 29 7 -13 -1 -26 -5 -45 -9 -42 -5 2 -8 0 -8 -6 0 -5 5 -13 10 -16
6 -3 10 -18 10 -33 -1 -25 -2 -24 -19 13 -27 56 -25 43 10 -55 19 -57 27 -72
23 -45 -5 38 -5 39 10 20 17 -22 22 -65 7 -65 -4 0 -6 -11 -3 -25 2 -14 9 -25
14 -25 6 0 7 11 4 26 -5 17 -3 23 4 19 5 -3 14 4 19 17 6 13 10 19 10 13 1 -5
-6 -29 -15 -52 -16 -41 -16 -47 6 -123 12 -44 26 -77 31 -75 4 3 1 22 -7 41
-8 20 -13 41 -10 47 2 7 5 4 5 -6 1 -10 5 -16 10 -12 5 3 13 0 17 -6 4 -8 3
-9 -4 -5 -14 8 -15 -3 -3 -22 6 -10 10 -7 15 13 4 16 3 32 -3 38 -6 6 -11 22
-11 37 1 25 1 25 16 -5 l14 -30 -5 28 c-4 17 -1 26 6 25 17 -4 25 37 24 122
-1 41 0 67 3 58 2 -10 8 -18 13 -18 5 0 9 -7 9 -16 0 -8 -3 -13 -7 -11 -5 3
-9 -11 -10 -32 l-1 -36 14 40 c8 22 12 45 10 51 -7 19 14 85 25 79 14 -10 11
2 -7 20 -15 15 -15 18 5 39 11 12 22 35 22 52 l1 29 7 -30 6 -30 12 37 c8 29
8 47 -1 78 -7 22 -16 37 -21 33 -4 -4 -5 0 -2 10 4 10 7 27 7 38 0 10 5 19 10
19 6 0 8 -10 5 -22 -2 -13 1 -36 9 -53 l13 -30 10 35 c6 19 14 44 19 54 5 14
4 17 -5 12 -7 -5 -16 -18 -21 -30 -8 -20 -9 -20 -9 4 0 29 23 65 37 56 6 -4 9
18 6 57 l-3 62 13 -40 c8 -22 14 -32 15 -23 1 9 4 25 7 35 5 15 4 15 -5 3 -8
-11 -11 -12 -11 -2 0 23 21 53 32 46 7 -4 8 -2 4 5 -4 6 -3 17 2 24 10 13 44
111 47 137 1 8 7 26 12 40 l10 24 139 -3 c76 -1 137 -1 134 2 -3 3 -68 7 -144
9 -117 2 -140 1 -143 -12 -3 -8 -7 -22 -10 -30 -3 -8 -7 -26 -9 -39 -6 -46
-12 -31 -11 27 1 33 5 55 9 49 5 -8 8 -6 8 5 0 9 -6 19 -12 22 -7 2 5 2 27 -1
78 -12 295 -15 295 -4 0 6 5 11 11 11 5 0 7 -4 4 -10 -4 -6 8 -10 27 -11 27 0
30 -2 13 -9 -17 -7 -18 -9 -2 -9 14 -1 15 -4 5 -20 -9 -14 -9 -23 -1 -33 6 -7
9 -26 6 -41 -4 -20 -8 -25 -14 -16 -5 9 -10 4 -14 -17 -4 -16 -11 -40 -16 -54
-7 -21 -8 -19 -3 10 3 19 8 44 11 55 3 11 2 17 -2 13 -14 -14 -43 -110 -38
-128 3 -10 -4 -27 -14 -37 -25 -25 -35 -52 -26 -66 10 -16 12 -96 3 -102 -5
-3 -6 4 -3 15 3 11 0 20 -6 20 -6 0 -11 -9 -11 -21 0 -14 -5 -19 -15 -16 -8 4
-17 1 -21 -5 -4 -6 -3 -8 3 -5 6 4 10 -18 11 -61 0 -46 -2 -59 -7 -42 -5 14
-6 37 -3 53 2 15 0 27 -6 27 -19 0 -24 -68 -7 -94 17 -25 13 -66 -6 -66 -6 0
-6 7 1 19 13 24 13 34 1 26 -6 -3 -15 3 -21 12 -9 15 -10 15 -4 -6 4 -17 3
-21 -6 -16 -9 6 -11 4 -5 -5 4 -7 4 -15 -1 -19 -20 -14 -34 -62 -24 -81 5 -10
10 -29 9 -42 -1 -18 -3 -15 -11 12 -6 19 -12 30 -15 24 -56 -154 -70 -203 -60
-214 9 -10 8 -12 -6 -7 -16 6 -16 4 -3 -28 14 -32 15 -100 2 -112 -3 -3 -4 14
-1 39 3 30 0 51 -10 64 -13 17 -14 15 -10 -29 3 -40 1 -47 -10 -37 -18 15 -29
-3 -20 -31 5 -13 3 -19 -3 -15 -15 9 -19 -12 -17 -109 1 -49 0 -82 -3 -72 -2
9 -7 17 -12 17 -4 0 -11 10 -15 23 -6 20 -8 18 -20 -18 -7 -22 -14 -49 -14
-60 -1 -34 18 5 20 40 1 24 3 25 6 7 2 -12 9 -20 14 -17 5 4 9 -8 9 -26 0 -31
-1 -32 -15 -13 -14 18 -14 18 -15 0 0 -13 -5 -17 -19 -13 -35 9 -50 -92 -17
-115 7 -6 6 -11 -4 -18 -11 -7 -11 -10 -2 -10 7 0 10 -5 6 -11 -9 -15 -24 9
-24 41 -1 22 -2 23 -11 8 -9 -16 -29 -18 -187 -18 -157 0 -179 2 -192 18 -8 9
-15 23 -16 30 -4 46 -4 46 -16 34 -10 -10 -10 -15 2 -23 11 -8 12 -12 3 -16
-9 -3 -6 -12 10 -29 22 -23 26 -24 212 -26 l190 -3 -190 -5 c-179 -5 -191 -4
-213 15 -25 22 -35 70 -21 97 6 12 0 39 -20 90 -16 40 -31 82 -34 93 -4 17 -5
16 -6 -5 l-2 -25 -10 25 c-7 16 -7 26 0 28 5 2 7 11 4 20 -6 13 -9 10 -20 -13
l-13 -30 5 39 c3 21 8 42 10 47 3 4 -6 6 -21 3 -16 -3 -23 -1 -19 6 3 5 -6 26
-21 45 -19 26 -25 41 -20 60 4 14 11 23 16 20 13 -8 13 -42 1 -47 -5 -1 6 -18
25 -36 19 -19 34 -29 34 -24 0 6 -7 18 -16 26 -8 9 -13 20 -10 24 3 5 -1 20
-9 35 -7 14 -16 41 -21 59 l-7 33 -14 -35 -13 -35 5 51 c3 31 0 65 -9 90 -12
33 -15 35 -15 14 -1 -15 4 -31 11 -38 8 -8 8 -12 1 -12 -10 0 -20 20 -37 74
-4 10 -2 24 4 31 8 9 7 23 -4 47 -13 28 -14 29 -10 6 3 -15 1 -35 -5 -45 -9
-16 -10 -15 -10 7 0 14 -2 48 -5 75 -5 62 -50 183 -61 165 -4 -7 -4 -15 1 -19
5 -3 14 -19 20 -36 6 -16 15 -39 20 -50 7 -19 7 -19 -9 -3 -9 9 -17 19 -17 23
0 3 -9 26 -20 49 -13 29 -19 61 -17 95 2 50 -13 78 -35 65 -4 -3 -5 2 -1 11 5
14 8 14 15 3 12 -17 -1 31 -14 52 -7 11 -8 10 -3 -6 3 -11 -1 -28 -8 -38 -12
-16 -13 -9 -10 45 3 51 2 60 -8 46 -6 -11 -9 -33 -6 -50 5 -29 5 -30 -5 -9 -8
16 -8 36 -1 66 10 43 9 44 -14 40 -18 -3 -23 0 -23 15 0 11 -4 23 -10 26 -5 3
-10 14 -9 23 0 14 2 13 10 -3 6 -12 20 -27 32 -34 21 -14 21 -14 4 13 -10 15
-15 32 -11 38 5 7 3 8 -6 3 -9 -5 -10 -2 -5 14 8 27 -3 27 -26 -1 -15 -16 -19
-18 -19 -5 0 25 11 47 21 41 5 -3 9 1 9 10 0 26 -12 46 -28 46 -8 0 -13 3 -9
6 3 3 79 5 168 5 90 -1 161 1 158 3 -3 3 -63 6 -135 7 -99 1 -134 5 -149 16
-19 15 -19 15 5 7 14 -4 85 -9 158 -11z m1225 10 c-7 -2 -19 -2 -25 0 -7 3 -2
5 12 5 14 0 19 -2 13 -5z m276 -11 c62 -2 126 1 142 7 18 6 31 6 34 0 4 -5 -1
-9 -9 -9 -9 0 -16 -4 -16 -10 0 -5 7 -10 15 -10 8 0 15 -4 15 -10 0 -5 -4 -10
-10 -10 -7 0 -10 -240 -10 -700 0 -486 3 -700 11 -700 5 0 7 5 4 10 -3 6 -1
10 4 10 8 0 12 210 13 683 2 375 4 597 5 492 5 -319 8 -1196 5 -1186 -2 6 -12
1 -23 -10 -17 -17 -34 -19 -180 -19 -152 0 -161 1 -166 20 -3 11 -8 18 -12 16
-3 -2 -5 102 -4 232 7 624 7 1160 1 1144 -5 -14 -7 -13 -7 6 -1 14 5 22 17 23
14 0 14 2 -3 9 -18 8 -17 9 8 9 19 1 26 5 21 13 -5 8 -2 9 12 2 10 -5 70 -10
133 -12z m206 -12 c0 -16 -3 -30 -7 -30 -5 0 -8 14 -8 30 0 17 3 30 8 30 4 0
7 -13 7 -30z m615 21 c-16 -10 -95 -9 -105 1 -3 3 23 6 57 6 41 1 58 -2 48 -7z
m557 -3 c4 -7 -3 -9 -19 -5 -18 5 -28 2 -32 -8 -3 -8 -10 -15 -15 -15 -6 0 -8
7 -5 15 7 16 -17 19 -50 6 -15 -6 -11 -9 19 -18 28 -9 42 -9 56 0 14 9 21 9
31 -1 9 -9 7 -12 -13 -13 -15 0 -18 -3 -9 -6 8 -3 26 -14 39 -24 13 -11 29
-19 35 -19 7 0 6 4 -2 9 -8 4 5 7 32 7 37 -1 42 -3 33 -15 -9 -11 -9 -15 1
-18 6 -3 12 -9 12 -14 0 -6 -9 -5 -21 1 -12 7 -18 18 -15 26 6 16 -10 19 -19
4 -7 -11 43 -59 61 -60 7 0 14 -6 17 -14 7 -17 50 -30 44 -13 -2 7 -12 11 -22
10 -12 -1 -14 2 -6 10 8 8 15 7 27 -5 16 -16 11 -43 -7 -33 -5 3 -6 -1 -3 -9
3 -9 10 -14 14 -11 4 3 11 -6 14 -20 6 -24 26 -36 26 -15 0 6 -5 10 -12 10 -6
0 -8 3 -5 7 4 3 17 -2 29 -13 19 -17 21 -17 15 -1 -4 9 -3 17 2 17 5 0 8 -18
7 -41 -1 -33 -2 -36 -10 -20 -5 12 -13 21 -17 21 -4 0 0 -13 9 -29 12 -21 20
-27 29 -20 8 8 10 5 6 -10 -3 -12 -2 -29 2 -38 5 -10 8 -21 7 -25 -1 -4 8 -12
19 -19 16 -8 19 -17 15 -35 -6 -23 7 -34 19 -14 7 12 -17 71 -40 93 -9 10 -15
20 -12 23 20 21 66 -75 64 -136 0 -25 -2 -37 -5 -27 -2 9 -7 17 -12 17 -8 0
-2 -37 9 -55 13 -19 19 -178 11 -292 -2 -35 -3 -36 -16 -18 -14 19 -29 20
-522 20 l-507 0 1 -40 c1 -22 7 -67 14 -100 11 -50 14 -56 21 -37 13 35 21 26
13 -15 -6 -34 -5 -37 9 -25 9 8 13 21 10 30 -3 9 -3 14 2 10 4 -4 9 -28 10
-53 1 -37 8 -52 35 -80 46 -48 109 -80 124 -64 8 9 8 10 -1 5 -7 -4 -20 -3
-29 2 -11 6 25 9 99 8 63 -1 110 -5 104 -9 -7 -4 -45 -5 -86 -1 -52 4 -71 3
-67 -5 4 -6 1 -11 -6 -12 -7 0 2 -5 21 -10 18 -6 36 -8 39 -5 3 3 -2 6 -11 6
-9 0 -17 5 -17 10 0 14 12 12 36 -4 13 -10 44 -14 87 -14 44 1 63 5 55 11 -9
6 -6 7 10 4 32 -7 87 12 124 45 18 15 25 25 16 22 -10 -3 -18 -1 -18 5 0 6 5
11 11 11 5 0 7 5 4 10 -11 17 -31 11 -32 -10 -1 -11 2 -20 8 -20 16 0 10 -15
-13 -29 -16 -9 -19 -10 -11 -1 7 7 9 25 6 41 -7 36 15 47 50 25 22 -15 25 -15
43 6 10 12 14 18 7 14 -13 -7 -31 40 -19 51 3 4 6 -3 6 -14 0 -39 37 -20 41
22 3 30 24 35 163 36 88 0 133 4 121 9 -15 6 -9 9 25 8 37 0 41 -1 20 -8 l-25
-8 25 -2 c14 -1 20 -4 13 -6 -9 -4 -9 -11 -1 -30 10 -20 9 -27 -2 -34 -12 -7
-12 -13 0 -34 7 -14 10 -29 7 -33 -4 -3 -7 1 -7 10 0 9 -5 19 -11 22 -7 5 -8
-6 -5 -32 4 -24 3 -31 -2 -19 -6 14 -11 16 -16 8 -4 -7 -4 -16 -1 -22 3 -5 -1
-10 -9 -10 -10 0 -13 6 -10 15 11 27 -5 16 -22 -16 -8 -17 -12 -29 -7 -26 4 3
9 -10 9 -28 0 -23 -3 -32 -13 -28 -7 3 -13 -2 -13 -11 0 -19 -36 -40 -45 -26
-3 5 1 10 9 10 8 0 20 8 25 19 20 37 -1 28 -47 -21 -26 -28 -69 -66 -97 -85
-54 -38 -53 -38 18 -5 26 13 47 29 47 37 0 8 4 15 10 15 10 0 3 -27 -13 -48
-6 -7 -16 -11 -23 -8 -7 3 -16 1 -19 -4 -4 -6 5 -10 19 -10 14 0 28 5 31 10 3
6 11 10 18 10 7 0 5 -6 -4 -15 -10 -10 -40 -17 -86 -20 -42 -2 -85 -11 -105
-21 -18 -10 -37 -17 -41 -16 -5 1 -6 -2 -2 -8 4 -6 17 -4 36 6 17 8 33 13 36
11 2 -3 -20 -16 -49 -30 -51 -24 -133 -33 -121 -13 4 6 -1 6 -13 1 -24 -10
-212 -12 -284 -3 -39 5 -49 4 -35 -3 18 -8 17 -9 -5 -4 -14 2 -32 5 -40 6 -10
0 -8 3 5 8 16 7 13 9 -20 15 -21 4 -62 19 -89 33 -42 21 -47 22 -31 6 12 -11
33 -23 48 -27 16 -4 25 -11 21 -17 -4 -8 -10 -7 -17 0 -13 13 -37 15 -37 2 0
-13 43 -22 54 -11 15 15 43 12 43 -4 0 -17 -74 -14 -108 5 -20 10 -21 13 -7
18 14 5 12 11 -13 41 -16 19 -29 29 -29 22 0 -7 -7 -12 -16 -12 -14 0 -14 3
-4 15 7 8 8 15 4 15 -5 0 -27 15 -49 32 -45 38 -103 47 -122 21 -7 -9 -13 -15
-14 -12 0 2 -2 20 -4 39 -2 19 -1 25 2 13 8 -39 26 -27 19 12 -4 22 -3 35 4
35 5 0 10 -9 10 -19 0 -11 10 -27 22 -35 26 -18 41 -10 15 8 -9 7 -17 16 -17
20 0 4 -14 27 -31 52 -16 24 -38 62 -48 83 -13 31 -20 37 -32 30 -12 -8 -11
-11 4 -20 21 -12 22 -26 3 -26 -21 0 -43 74 -28 98 9 14 9 32 -3 81 -8 35 -15
76 -15 91 0 18 -4 26 -11 21 -11 -6 -9 -32 6 -66 4 -11 3 -18 -3 -18 -29 0
-46 249 -24 340 5 22 7 -20 5 -115 -3 -116 -1 -146 8 -131 7 12 10 54 7 121
-2 69 0 101 7 98 5 -4 7 -3 3 1 -3 4 -2 22 3 39 5 18 12 81 14 141 2 60 7 111
10 114 3 3 5 -6 5 -19 0 -13 7 -33 16 -44 13 -18 14 -17 9 15 -4 24 -3 29 3
16 8 -19 9 -18 15 4 3 13 2 27 -4 31 -7 4 -5 12 5 22 9 8 16 26 16 39 0 38 16
55 38 42 16 -10 27 -3 82 52 35 35 58 64 51 64 -7 0 -11 10 -9 23 2 17 10 22
33 22 39 1 58 13 51 32 -6 14 -3 14 18 0 20 -14 26 -14 42 -2 18 13 18 14 -2
9 -12 -3 -30 3 -45 15 -24 20 -24 20 -1 14 12 -3 25 -9 28 -14 3 -5 13 -5 23
0 10 6 23 6 32 0 18 -11 32 -12 25 0 -3 5 3 11 14 14 11 3 18 2 15 -2 -2 -5 8
-6 23 -3 23 5 24 6 7 12 -11 4 96 7 238 8 169 0 259 -4 264 -10z m542 -28 c4
0 13 9 21 20 8 11 18 20 21 20 4 0 5 -9 2 -20 -5 -19 0 -20 100 -20 60 0 109
4 112 10 3 6 14 10 23 10 15 0 15 -2 2 -10 -8 -5 -10 -10 -5 -10 6 0 9 -39 7
-102 -2 -66 1 -98 7 -89 5 8 7 20 4 27 -2 6 1 15 8 20 8 4 10 3 5 -4 -14 -22
-1 -12 54 44 30 31 46 52 34 46 -16 -8 -21 -8 -21 2 0 8 10 12 26 10 29 -3 64
13 56 26 -3 6 1 7 10 4 10 -4 15 -2 13 6 -2 7 3 15 11 18 9 3 11 0 6 -8 -12
-20 17 0 33 22 12 16 32 17 237 15 124 -1 217 -5 207 -10 -12 -5 -8 -6 11 -4
15 3 27 0 27 -5 0 -5 8 -11 18 -15 9 -3 25 -13 35 -21 15 -14 17 -13 17 6 0
12 -8 23 -20 27 -27 8 -26 25 2 25 12 0 18 -3 15 -7 -4 -3 -2 -12 4 -20 6 -7
9 -22 6 -33 -3 -12 1 -24 11 -30 15 -8 15 -9 1 -10 -9 0 -27 10 -40 23 -26 25
-99 57 -127 56 -13 0 -14 -2 -2 -5 80 -27 153 -72 199 -126 13 -15 27 -25 32
-22 5 3 -2 17 -16 32 -13 14 -23 26 -22 27 1 0 13 9 25 20 l24 20 -13 -29
c-12 -25 -11 -30 7 -45 17 -13 18 -19 8 -28 -9 -10 -9 -19 4 -46 10 -19 20
-33 24 -31 10 6 -2 37 -19 51 -10 8 -11 13 -3 18 7 4 15 3 20 -1 13 -15 19
-71 9 -81 -6 -6 -6 -18 1 -34 8 -18 10 -19 7 -4 -2 11 2 26 9 33 15 13 8 72
-9 83 -5 4 -7 13 -5 20 3 10 8 7 17 -9 18 -33 16 -112 -4 -167 -5 -16 -5 -17
4 -5 9 12 11 11 11 -10 6 -322 3 -1110 -5 -1110 -5 0 -3 -5 5 -11 12 -8 9 -10
-12 -6 -15 2 -25 0 -22 -4 3 -5 -55 -9 -128 -9 -73 0 -143 -3 -155 -6 -13 -4
-23 -2 -23 3 0 6 58 11 142 12 79 1 145 4 147 7 2 2 -59 4 -137 4 -124 0 -142
2 -151 18 -9 15 -10 14 -11 -6 0 -13 -4 -21 -9 -17 -8 4 -18 782 -13 950 4
139 2 156 -28 194 -46 61 -149 89 -260 72 -35 -5 -44 -9 -25 -10 23 -1 27 -3
15 -11 -12 -8 -11 -10 6 -10 12 0 24 7 28 15 3 8 13 14 23 14 17 -1 17 -2 1
-6 -23 -6 -23 -23 -2 -23 9 0 34 5 56 12 29 9 41 9 50 0 7 -7 21 -12 32 -13
21 0 21 0 1 -9 -31 -13 -45 -12 -39 5 5 11 -1 15 -17 15 -19 0 -21 -2 -9 -10
9 -6 -5 -8 -43 -7 -31 1 -57 0 -57 -4 0 -3 -27 -5 -59 -5 -48 0 -58 3 -49 13
12 15 32 18 23 3 -3 -6 4 -10 17 -10 l22 0 -22 15 c-23 17 -47 10 -71 -19 -8
-9 -18 -13 -23 -10 -6 4 -6 -1 0 -13 8 -15 5 -23 -14 -42 -19 -18 -28 -21 -36
-13 -9 9 -19 0 -39 -35 -15 -26 -25 -51 -22 -55 2 -5 -1 -15 -7 -23 -7 -8 -9
-24 -5 -36 5 -14 4 -19 -4 -15 -8 5 -11 -121 -10 -463 0 -259 -2 -474 -4 -478
-3 -5 -61 -6 -129 -3 l-123 5 125 5 125 6 -155 0 c-85 1 -143 -1 -127 -3 15
-2 27 -8 27 -12 0 -14 -39 -20 -44 -7 -3 7 -8 6 -15 -4 -7 -11 -10 211 -10
750 0 555 3 759 11 743 6 -13 14 -23 17 -23z m241 17 c8 -3 -32 -5 -90 -4 -98
1 -100 1 -22 4 55 3 82 8 82 16 0 8 3 9 8 1 4 -6 14 -14 22 -17z m33 16 c-7
-2 -19 -2 -25 0 -7 3 -2 5 12 5 14 0 19 -2 13 -5z m237 -2 c-26 -15 -66 -24
-55 -13 6 5 19 12 30 15 32 8 41 7 25 -2z m1239 -23 c-10 -6 -7 -8 10 -6 14 2
26 9 29 17 3 8 0 11 -7 7 -6 -4 -11 -2 -11 3 0 17 27 13 34 -4 3 -8 1 -15 -5
-15 -5 0 -2 -14 7 -31 8 -17 11 -28 5 -25 -8 5 -11 -19 -11 -75 l0 -82 32 44
c17 24 47 58 67 75 l36 32 -28 -3 c-15 -2 -25 0 -22 5 2 4 17 6 32 4 31 -3 66
13 58 26 -3 6 1 7 9 4 11 -4 16 0 16 10 0 9 5 16 11 16 5 0 7 -4 4 -10 -3 -5
9 -3 27 4 18 7 40 16 48 19 8 4 -8 4 -36 2 -28 -2 -58 -7 -66 -10 -8 -3 -15 0
-15 8 0 11 49 14 267 14 146 1 271 -2 278 -6 6 -4 8 -12 3 -20 -7 -10 -13 -11
-27 -2 -18 10 -18 10 0 11 11 0 17 3 14 6 -3 3 -21 1 -39 -5 -19 -5 -27 -10
-18 -10 26 -1 90 -33 130 -63 39 -30 49 -34 49 -18 0 6 -7 10 -16 10 -8 0 -12
4 -9 10 4 6 -1 7 -12 3 -15 -6 -15 -5 -3 8 12 13 19 9 61 -34 30 -31 45 -54
42 -64 -4 -11 -12 -5 -26 21 -20 35 -37 47 -37 26 0 -5 4 -10 8 -10 4 0 15
-12 24 -27 9 -16 25 -38 36 -51 12 -13 18 -30 15 -38 -4 -10 0 -12 11 -8 21 8
20 20 -5 45 -11 11 -18 23 -15 26 8 9 36 -17 36 -33 0 -17 16 -18 24 -1 3 6 4
3 1 -8 -16 -75 -17 -80 -5 -65 10 12 11 10 6 -10 -19 -75 -19 -83 -6 -75 10 6
11 4 4 -11 -5 -11 -9 -244 -9 -539 l-1 -520 6 490 5 490 3 -497 c2 -393 -1
-498 -10 -498 -10 0 -10 -2 0 -9 12 -7 -64 -6 -280 2 -43 2 -78 0 -78 -5 0 -4
-7 -8 -15 -8 -8 0 -15 5 -15 11 0 5 4 8 9 5 5 -3 14 1 21 9 9 10 9 15 1 15 -8
0 -10 122 -9 448 l3 447 2 -438 c3 -382 5 -441 19 -454 14 -14 15 28 13 446
-1 254 -6 456 -11 449 -5 -8 -7 6 -4 34 2 26 -1 45 -5 42 -5 -3 -10 -20 -10
-37 -1 -25 -3 -27 -6 -9 -3 13 1 37 7 52 9 22 9 33 0 47 -10 16 -11 15 -7 -9
2 -16 0 -28 -4 -28 -5 0 -9 13 -9 29 0 16 -6 31 -12 34 -7 2 -5 3 5 2 23 -4
22 5 -7 44 -27 36 -55 60 -71 60 -5 0 -3 -5 6 -12 15 -11 15 -14 1 -27 -14
-13 -15 -12 -9 3 3 9 2 17 -3 17 -6 0 -10 6 -10 14 0 8 -7 17 -16 20 -31 12
-120 16 -164 7 -25 -5 -37 -9 -27 -10 10 -1 15 -6 12 -11 -4 -6 -10 -8 -15 -5
-5 3 -24 -1 -42 -10 l-33 -16 30 26 30 27 -35 -18 c-19 -9 -39 -23 -43 -31 -5
-7 -13 -10 -19 -7 -6 4 -8 3 -5 -3 4 -6 -2 -13 -13 -16 -11 -3 -24 -17 -30
-31 -5 -14 -12 -26 -15 -26 -4 0 -3 5 1 12 4 6 3 8 -3 5 -6 -4 -10 -35 -8 -73
1 -36 -1 -60 -5 -53 -6 8 -9 6 -13 -7 -3 -10 -3 0 -1 24 2 27 0 42 -8 42 -6 0
-8 -3 -5 -7 4 -3 1 -16 -6 -27 -19 -30 -29 -58 -17 -51 6 3 10 -2 10 -12 0
-15 2 -16 11 -3 9 12 10 12 5 -3 -3 -10 -6 -34 -6 -53 0 -19 -3 -34 -8 -34 -4
0 -6 18 -4 40 3 25 0 40 -7 40 -8 0 -11 -122 -11 -429 0 -236 -3 -443 -6 -460
l-6 -31 -158 0 -157 0 -6 30 c-8 40 -10 1407 -2 1420 3 5 13 10 21 10 8 0 12
-4 9 -10 -4 -6 34 -9 107 -8 l113 2 -90 6 -90 6 98 2 c69 1 97 6 98 15 0 8 2
8 6 -2 3 -7 -1 -17 -8 -23z m811 22 c0 -5 -5 -10 -11 -10 -5 0 -7 5 -4 10 3 6
8 10 11 10 2 0 4 -4 4 -10z m38 -4 c-7 -8 -17 -12 -22 -9 -4 3 -2 9 5 14 22
13 31 11 17 -5z m759 0 c4 -4 -1 -4 -12 0 -14 5 -17 4 -10 -3 6 -6 21 -14 35
-18 19 -5 21 -4 10 4 -13 10 -13 11 0 11 11 0 12 3 3 8 -6 4 6 7 29 7 l40 0
-28 -12 c-40 -17 -19 -16 41 2 39 12 94 15 252 13 112 -2 196 -5 187 -8 -12
-5 -9 -9 12 -19 18 -8 24 -15 16 -20 -20 -12 41 -40 79 -36 27 3 30 2 16 -6
-9 -6 -23 -7 -30 -3 -9 5 -9 4 0 -6 10 -10 18 -11 37 -2 22 10 24 9 19 -6 -3
-9 -3 -14 2 -10 11 10 45 -10 45 -27 0 -18 16 -20 24 -2 3 6 4 3 1 -9 -5 -18
-1 -20 23 -16 18 2 33 -2 41 -12 8 -10 9 -16 3 -16 -6 0 -14 5 -17 10 -9 14
-45 12 -45 -2 0 -7 -11 4 -25 22 -21 29 -64 58 -69 48 -3 -6 135 -134 139
-130 9 9 -16 42 -32 42 -13 0 -14 3 -5 12 13 13 42 -6 42 -28 0 -17 17 -18 23
-1 2 6 4 -7 3 -30 0 -22 -4 -39 -8 -37 -4 3 -5 -2 -2 -10 3 -9 12 -16 20 -16
7 0 11 -6 8 -13 -3 -8 2 -14 10 -14 8 0 12 6 9 14 -3 7 0 13 7 13 12 0 10 -25
-5 -65 -7 -18 -6 -19 9 -5 9 9 17 28 18 42 1 15 4 25 7 22 9 -9 9 -89 0 -104
-6 -10 -7 -3 -4 20 5 31 4 32 -6 13 -9 -18 -7 -34 14 -88 14 -37 25 -72 23
-78 -1 -7 -1 -8 2 -3 2 4 9 2 14 -5 6 -9 8 1 3 31 -4 29 -3 41 4 35 13 -14 15
-44 6 -85 -7 -29 -9 -31 -16 -15 -6 15 -8 9 -8 -20 0 -25 2 -35 8 -27 4 7 6
-23 3 -66 -2 -44 0 -82 4 -85 5 -3 10 7 11 21 0 15 4 41 8 57 4 21 4 26 -3 16
-11 -15 -6 61 7 114 6 21 8 7 7 -45 -1 -41 2 -104 6 -140 4 -39 3 -55 -2 -40
-6 18 -8 20 -9 7 -1 -15 -5 -16 -21 -7 -17 9 -20 8 -20 -7 0 -17 -24 -18 -452
-15 -249 2 -486 0 -525 -3 -64 -6 -73 -9 -73 -26 0 -11 5 -17 10 -14 6 4 8 11
5 16 -4 5 -1 9 5 9 8 0 9 -7 5 -17 -4 -10 -10 -31 -13 -47 -3 -22 -2 -27 8
-21 10 6 12 2 7 -14 -3 -12 1 -37 8 -54 13 -31 14 -30 10 28 -2 33 -7 69 -10
80 -6 17 -5 18 5 5 9 -12 10 -9 6 15 -5 22 -4 26 4 15 6 -10 10 -11 10 -2 0 9
105 12 490 12 270 0 490 -3 490 -7 0 -5 -217 -7 -482 -5 -265 1 -485 -1 -490
-6 -5 -5 -9 -52 -10 -104 l-2 -96 37 -45 c20 -25 57 -58 82 -75 40 -26 49 -29
87 -21 61 12 98 11 98 -2 0 -7 -11 -9 -29 -6 -15 3 -41 2 -57 -3 -35 -10 -27
-11 106 -15 57 -1 109 3 130 11 32 11 29 12 -45 9 l-80 -4 73 9 c40 4 79 11
88 14 8 3 12 2 9 -4 -3 -6 1 -7 9 -4 9 3 14 10 11 14 -11 18 8 40 35 40 15 0
33 7 40 15 8 9 8 15 2 15 -6 0 -12 -4 -14 -9 -1 -5 -10 -2 -18 7 -13 14 -12
15 2 10 10 -4 19 -1 23 10 5 13 8 14 14 3 6 -9 14 -5 30 18 12 17 23 40 24 51
1 19 8 20 158 20 l157 0 -1 -55 c-1 -30 -5 -55 -9 -55 -4 0 -5 8 -2 18 5 13 4
14 -4 3 -11 -15 -5 -41 9 -41 5 0 9 -7 9 -16 0 -12 -5 -11 -20 7 -10 13 -19
19 -20 14 0 -6 5 -16 11 -22 8 -8 7 -17 -2 -32 -11 -16 -11 -27 -2 -52 12 -30
12 -31 -7 -14 -10 9 -24 14 -29 10 -6 -3 -11 -1 -11 4 0 6 4 11 8 11 10 0 32
45 32 63 0 7 -13 -9 -28 -34 -15 -26 -43 -66 -62 -89 -21 -26 -34 -53 -33 -66
1 -16 -2 -21 -13 -17 -7 3 -14 1 -14 -5 0 -5 7 -13 16 -16 35 -13 6 -30 -54
-32 -34 0 -59 3 -56 8 4 5 -3 4 -15 -4 -12 -7 -21 -16 -21 -20 0 -4 -8 -4 -17
-1 -17 7 -17 6 0 -11 19 -19 15 -36 -9 -36 -9 0 -12 -5 -8 -12 5 -8 2 -9 -12
-4 -10 5 -23 8 -29 7 -5 -1 -95 -4 -200 -6 -194 -4 -278 1 -255 15 7 4 -3 10
-26 15 -21 3 -66 19 -101 35 -34 16 -65 25 -68 20 -7 -11 -66 -7 -63 5 3 11
14 11 41 0 13 -5 16 -3 11 8 -3 9 -11 14 -18 11 -7 -3 -21 5 -32 17 -12 14
-13 19 -4 14 8 -4 -6 11 -32 34 -26 23 -65 72 -87 107 -27 46 -40 60 -44 50
-13 -34 -29 -16 -26 28 3 26 0 44 -6 43 -6 -1 -9 16 -8 38 l2 40 -16 -30 c-10
-16 -16 -37 -15 -45 2 -11 -1 -10 -9 3 -8 13 -8 22 1 32 14 17 24 95 11 95 -5
0 -12 -19 -14 -42 -2 -24 -4 -11 -3 29 1 41 5 66 9 60 5 -7 6 -1 2 13 -9 37
-13 483 -3 468 4 -7 5 -20 2 -30 -2 -9 0 -19 5 -22 6 -4 6 -18 0 -38 -12 -43
-4 -48 10 -6 8 25 7 47 -3 90 l-13 57 29 -1 c16 -1 25 -4 19 -7 -11 -7 -26
-61 -17 -61 9 0 38 73 38 98 0 12 7 22 14 22 20 0 17 18 -3 23 -14 4 -13 5 4
6 13 0 30 13 40 29 10 15 24 32 32 38 12 9 12 15 4 25 -6 8 -10 25 -9 39 1 20
6 24 33 25 18 0 38 6 44 12 6 6 18 9 25 6 17 -6 19 13 2 20 -7 3 -2 5 12 4 28
-1 124 59 115 73 -3 4 5 6 17 3 23 -5 23 -5 3 10 -25 20 -33 20 -67 3 -16 -8
-28 -11 -28 -6 0 4 6 11 13 13 9 4 9 8 0 14 -6 5 9 8 38 7 27 0 52 -4 56 -8z
m609 -5 c0 -16 -3 -18 -20 -9 -20 11 -20 11 -1 19 11 4 20 8 20 8 1 1 1 -8 1
-18z m-7569 -7 c-3 -3 -12 -4 -19 -1 -8 3 -5 6 6 6 11 1 17 -2 13 -5z m3093
-4 c0 -5 -4 -10 -10 -10 -5 0 -10 5 -10 10 0 6 5 10 10 10 6 0 10 -4 10 -10z
m3094 -26 c4 -10 1 -14 -6 -12 -15 5 -23 28 -10 28 5 0 13 -7 16 -16z m711 -7
c-15 -23 -63 -52 -72 -43 -2 2 10 10 26 17 18 8 31 21 31 31 0 10 7 18 15 18
14 0 14 -3 0 -23z m-3824 0 c-1 -12 -15 -9 -19 4 -3 6 1 10 8 8 6 -3 11 -8 11
-12z m-3081 -4 c0 -5 -5 -15 -10 -23 -7 -12 -9 -10 -7 8 1 19 17 33 17 15z
m3941 -34 c-12 -5 -26 -19 -31 -31 l-9 -23 0 25 c-1 25 33 52 53 41 5 -2 0 -8
-13 -12z m1116 -1001 c-1 -189 -2 -35 -2 342 0 377 1 531 2 343 2 -189 2 -497
0 -685z m418 1012 c3 -5 -1 -10 -10 -10 -9 0 -13 5 -10 10 3 6 8 10 10 10 2 0
7 -4 10 -10z m1355 6 c0 -3 -4 -8 -10 -11 -5 -3 -10 -1 -10 4 0 6 5 11 10 11
6 0 10 -2 10 -4z m891 -23 c13 -17 13 -17 -6 -3 -11 8 -22 16 -24 17 -2 2 0 3
6 3 6 0 17 -8 24 -17z m-3751 -13 c0 -5 -4 -10 -10 -10 -5 0 -10 5 -10 10 0 6
5 10 10 10 6 0 10 -4 10 -10z m1473 -2 c3 -10 7 -10 20 0 9 8 24 12 34 9 15
-3 13 -6 -9 -15 -16 -6 -28 -17 -28 -23 0 -6 -8 -22 -19 -35 l-18 -24 0 26 c0
19 2 22 8 13 6 -10 9 -11 9 -1 0 19 -4 27 -12 25 -5 -2 -8 6 -8 17 0 22 16 27
23 8z m-1503 -27 c0 -11 -4 -22 -9 -25 -5 -3 -8 6 -8 19 0 14 3 25 8 25 5 0 9
-9 9 -19z m-2965 -48 c-1 -21 0 -29 2 -18 6 25 33 63 33 47 0 -23 -29 -82 -39
-82 -6 0 -11 -8 -12 -17 -1 -10 -6 -4 -11 14 -8 24 -7 40 2 63 17 41 29 38 25
-7z m1279 10 c-13 -12 -26 -23 -31 -23 -4 0 -2 5 5 12 15 15 16 32 2 23 -5 -3
-10 -2 -10 3 0 5 13 9 29 9 l29 0 -24 -24z m4116 2 c-7 -9 -15 -13 -17 -11 -6
6 20 36 26 30 2 -2 -2 -10 -9 -19z m-4953 -17 c-3 -8 -6 -5 -6 6 -1 11 2 17 5
13 3 -3 4 -12 1 -19z m-957 -28 c0 -13 -1 -13 -10 0 -5 8 -10 22 -10 30 0 13
1 13 10 0 5 -8 10 -22 10 -30z m937 -2 c-3 -7 -5 -2 -5 12 0 14 2 19 5 13 2
-7 2 -19 0 -25z m-1387 1 c0 -5 -4 -9 -10 -9 -5 0 -10 7 -10 16 0 8 5 12 10 9
6 -3 10 -10 10 -16z m6643 -26 c-4 -11 -3 -14 5 -9 17 11 15 -19 -3 -34 -14
-12 -35 -6 -35 10 0 5 7 7 15 4 8 -4 15 -1 15 5 0 6 -5 11 -11 11 -8 0 -8 5 1
15 16 20 21 19 13 -2z m37 7 c0 -5 -2 -10 -4 -10 -3 0 -8 5 -11 10 -3 6 -1 10
4 10 6 0 11 -4 11 -10z m-920 -24 c0 -2 -9 -6 -20 -9 -11 -3 -18 -1 -14 4 5 9
34 13 34 5z m92 -20 c-2 -5 2 -13 10 -18 9 -7 8 -8 -5 -4 -10 3 -53 7 -95 7
l-77 2 58 7 c32 4 61 10 64 14 10 10 49 3 45 -8z m-1442 -30 c0 -7 11 -21 25
-30 24 -16 34 -46 15 -46 -5 0 -7 8 -3 18 6 16 5 16 -13 0 -20 -18 -69 -14
-58 4 3 5 14 6 25 3 14 -5 19 -2 19 10 0 13 -6 16 -25 11 -15 -4 -25 -2 -25 4
0 6 5 8 10 5 6 -3 10 1 10 10 0 10 -5 13 -12 9 -7 -4 -8 -3 -4 4 10 17 36 15
36 -2z m1257 8 c-3 -3 -12 -4 -19 -1 -8 3 -5 6 6 6 11 1 17 -2 13 -5z m-5157
-36 c0 -36 -4 -35 -14 5 -4 16 -2 27 4 27 5 0 10 -14 10 -32z m817 10 c-3 -8
-6 -5 -6 6 -1 11 2 17 5 13 3 -3 4 -12 1 -19z m763 12 c0 -5 -4 -10 -10 -10
-5 0 -10 5 -10 10 0 6 5 10 10 10 6 0 10 -4 10 -10z m1314 -14 c-6 -15 -24
-23 -24 -11 0 8 24 34 28 30 1 -1 0 -10 -4 -19z m2536 9 c0 -9 7 -18 15 -21 8
-4 15 -10 15 -15 0 -5 -7 -9 -15 -9 -8 0 -15 7 -15 15 0 8 -4 15 -10 15 -5 0
-10 7 -10 15 0 8 5 15 10 15 6 0 10 -7 10 -15z m-5439 -57 c5 -10 5 -19 0 -23
-5 -3 -14 9 -20 27 -14 40 -13 72 1 38 5 -14 14 -33 19 -42z m822 -13 l6 -40
-14 35 c-15 40 -20 85 -6 60 5 -8 11 -33 14 -55z m4211 41 c-3 -7 2 -16 10
-19 10 -4 13 -1 10 7 -3 8 0 17 6 21 8 5 11 -1 8 -16 -4 -34 -46 -40 -43 -7 3
26 3 28 10 28 2 0 2 -6 -1 -14z m396 -28 c0 -18 -17 -7 -29 19 -13 28 -13 28
8 9 12 -11 21 -23 21 -28z m-5873 0 c-3 -8 -6 -5 -6 6 -1 11 2 17 5 13 3 -3 4
-12 1 -19z m3350 -10 c-3 -7 -5 -2 -5 12 0 14 2 19 5 13 2 -7 2 -19 0 -25z
m643 12 c0 -5 -5 -10 -11 -10 -5 0 -7 5 -4 10 3 6 8 10 11 10 2 0 4 -4 4 -10z
m407 -92 c-2 -13 -4 -3 -4 22 0 25 2 35 4 23 2 -13 2 -33 0 -45z m-3140 10
c-3 -8 -6 -5 -6 6 -1 11 2 17 5 13 3 -3 4 -12 1 -19z m2636 -15 c10 -37 19
-98 13 -92 -11 11 -33 109 -25 109 4 0 10 -8 12 -17z m3957 -3 c0 -5 -2 -10
-4 -10 -3 0 -8 5 -11 10 -3 6 -1 10 4 10 6 0 11 -4 11 -10z m50 6 c0 -3 -4 -8
-10 -11 -5 -3 -10 -1 -10 4 0 6 5 11 10 11 6 0 10 -2 10 -4z m-7085 -94 c-9
-9 -25 19 -24 43 0 16 2 15 15 -8 9 -16 13 -32 9 -35z m7092 26 c-3 -7 -5 -2
-5 12 0 14 2 19 5 13 2 -7 2 -19 0 -25z m-4010 -323 c2 -165 4 -366 6 -447 1
-81 -1 -140 -5 -130 -4 9 -7 193 -8 407 -1 215 -5 413 -10 440 -6 44 -8 46 -9
15 -4 -80 0 -833 4 -863 l5 -32 -10 29 c-11 34 -15 872 -4 900 7 18 7 18 18 0
7 -12 12 -125 13 -319z m2020 -358 c-1 -127 -2 -23 -2 233 0 256 1 360 2 232
2 -127 2 -337 0 -465z m-5836 646 c-8 -15 -10 -15 -11 -2 0 17 10 32 18 25 2
-3 -1 -13 -7 -23z m14 -33 c-4 -12 -9 -19 -12 -17 -3 3 -2 15 2 27 4 12 9 19
12 17 3 -3 2 -15 -2 -27z m1832 -7 c-3 -10 -5 -4 -5 12 0 17 2 24 5 18 2 -7 2
-21 0 -30z m3490 0 c-3 -10 -5 -4 -5 12 0 17 2 24 5 18 2 -7 2 -21 0 -30z
m-4685 -42 c-5 -3 -12 -13 -15 -21 -3 -8 -6 0 -6 19 -1 29 1 32 14 21 9 -7 12
-16 7 -19z m2645 7 c-3 -8 -6 -5 -6 6 -1 11 2 17 5 13 3 -3 4 -12 1 -19z
m-2237 -26 c0 -4 -9 -13 -20 -20 -24 -15 -26 -9 -4 12 17 18 24 20 24 8z m777
-94 c-2 -18 -4 -4 -4 32 0 36 2 50 4 33 2 -18 2 -48 0 -65z m1473 32 c-6 -42
-8 -47 -9 -20 -1 34 8 84 14 78 2 -2 0 -28 -5 -58z m-2651 28 c0 -13 -3 -17
-6 -10 -2 6 -10 9 -16 5 -7 -4 -6 1 2 10 18 22 21 21 20 -5z m2681 -23 c-6
-30 -8 -33 -9 -13 -1 25 8 62 14 56 2 -2 -1 -21 -5 -43z m-2335 -80 c0 -30 -2
-50 -4 -44 -2 8 -6 7 -12 -2 -16 -27 -18 -2 -3 49 9 29 16 52 17 52 1 0 2 -25
2 -55z m-928 13 c-3 -8 -6 -5 -6 6 -1 11 2 17 5 13 3 -3 4 -12 1 -19z m20 -25
c-3 -10 -5 -4 -5 12 0 17 2 24 5 18 2 -7 2 -21 0 -30z m6293 -3 c0 -22 -4 -40
-10 -40 -5 0 -10 18 -10 40 0 22 5 40 10 40 6 0 10 -18 10 -40z m-5361 -13
c-1 -31 -1 -31 -9 -7 -11 36 -11 52 0 45 6 -3 10 -21 9 -38z m-502 -14 c-3
-10 -5 -4 -5 12 0 17 2 24 5 18 2 -7 2 -21 0 -30z m7288 13 c14 -13 10 -26 -7
-26 -5 0 -6 5 -3 10 3 6 -1 10 -10 10 -9 0 -13 -4 -10 -10 3 -5 1 -10 -4 -10
-13 0 -13 3 -5 24 8 20 21 20 39 2z m-5965 -16 c0 -5 -4 -10 -10 -10 -5 0 -10
5 -10 10 0 6 5 10 10 10 6 0 10 -4 10 -10z m1103 3 c-134 -2 -352 -2 -485 0
-134 1 -25 2 242 2 267 0 376 -1 243 -2z m287 -3 c0 -5 -2 -10 -4 -10 -3 0 -8
5 -11 10 -3 6 -1 10 4 10 6 0 11 -4 11 -10z m-1383 -77 c-3 -10 -5 -2 -5 17 0
19 2 27 5 18 2 -10 2 -26 0 -35z m-1304 -39 c-9 -25 -24 7 -16 36 l6 24 8 -22
c5 -12 6 -29 2 -38z m1737 14 c0 -9 4 -8 10 2 8 13 10 13 10 -2 0 -24 -19 -33
-27 -12 -6 16 -7 15 -20 -2 -14 -19 -17 -15 -7 10 7 19 34 22 34 4z m629 -4
c-9 -11 -15 -11 -25 -3 -19 15 -18 17 11 17 21 0 23 -3 14 -14z m94 9 c-13 -2
-33 -2 -45 0 -13 2 -3 4 22 4 25 0 35 -2 23 -4z m4694 1 c-3 -3 -12 -4 -19 -1
-8 3 -5 6 6 6 11 1 17 -2 13 -5z m40 0 c-3 -3 -12 -4 -19 -1 -8 3 -5 6 6 6 11
1 17 -2 13 -5z m-4832 -51 l17 37 132 -2 131 -2 -115 -3 c-134 -4 -157 -12
-166 -62 l-7 -35 -15 23 c-9 12 -16 37 -18 54 -2 30 -1 29 10 -8 l13 -40 18
38z m333 30 c-10 -2 -26 -2 -35 0 -10 3 -2 5 17 5 19 0 27 -2 18 -5z m4232 -2
c0 -5 8 -12 18 -14 10 -3 6 -5 -11 -6 -16 0 -26 3 -23 8 4 5 0 12 -6 14 -8 3
-6 6 5 6 9 1 17 -3 17 -8z m242 2 c-6 -2 -10 -9 -6 -14 3 -5 -6 -9 -20 -9 -14
0 -26 4 -26 10 0 5 -39 11 -87 13 -75 2 -70 3 32 4 66 1 114 -1 107 -4z m28
-13 c0 -5 -5 -10 -11 -10 -5 0 -7 5 -4 10 3 6 8 10 11 10 2 0 4 -4 4 -10z
m-956 -55 c-4 -8 -1 -15 6 -15 18 0 42 -29 37 -44 -3 -8 1 -17 9 -20 9 -3 14
1 14 12 0 14 2 14 9 3 6 -10 20 -12 45 -8 31 5 34 4 22 -9 -10 -9 -25 -12 -45
-8 -20 4 -31 2 -31 -5 0 -6 14 -11 30 -11 21 0 30 -5 30 -16 0 -9 8 -23 18
-31 15 -13 15 -13 -4 -4 -12 6 -24 17 -28 26 -3 8 -14 15 -24 15 -22 0 -66 43
-55 54 4 4 -6 17 -22 30 -16 13 -25 28 -21 34 10 17 16 15 10 -3z m46 0 c11
-13 10 -14 -4 -9 -9 3 -16 10 -16 15 0 13 6 11 20 -6z m580 8 c0 -5 -9 -19
-20 -33 -21 -27 -27 -12 -8 20 13 20 28 27 28 13z m-6507 -73 c-6 -7 -23 23
-23 40 0 8 6 4 13 -10 8 -14 12 -27 10 -30z m6457 40 c0 -5 -5 -10 -11 -10 -5
0 -7 5 -4 10 3 6 8 10 11 10 2 0 4 -4 4 -10z m-7192 -21 c-2 -6 -8 -10 -13
-10 -5 0 -11 4 -13 10 -2 6 4 11 13 11 9 0 15 -5 13 -11z m7132 -37 c0 -4 -9
-13 -20 -20 -22 -13 -27 -3 -8 16 14 14 28 16 28 4z m-4925 -21 c-3 -6 -11
-11 -16 -11 -5 0 -4 6 3 14 14 16 24 13 13 -3z m5360 -73 c3 -29 2 -31 -10
-15 -7 10 -11 27 -8 38 7 27 15 17 18 -23z m-752 25 c-7 -2 -19 -2 -25 0 -7 3
-2 5 12 5 14 0 19 -2 13 -5z m134 1 c-3 -3 -12 -4 -19 -1 -8 3 -5 6 6 6 11 1
17 -2 13 -5z m80 0 c-3 -3 -12 -4 -19 -1 -8 3 -5 6 6 6 11 1 17 -2 13 -5z
m-6966 -49 c-9 -30 -9 -30 -10 10 -1 25 2 36 9 29 6 -6 6 -21 1 -39z m2516 38
c-3 -3 -22 -5 -42 -5 -20 0 -39 2 -41 5 -3 3 15 5 41 5 26 0 44 -2 42 -5z
m3751 -14 c19 -30 8 -34 -12 -4 -9 14 -13 25 -9 25 5 0 14 -9 21 -21z m-4506
-25 c-9 -16 -10 -14 -9 8 1 15 6 23 11 18 4 -4 4 -16 -2 -26z m4490 1 c16 -20
16 -21 0 -21 -11 0 -18 9 -19 24 0 13 0 22 1 20 0 -2 9 -12 18 -23z m-6208 -1
c8 -21 8 -24 -3 -24 -5 0 -11 9 -14 20 -6 24 8 27 17 4z m7383 -19 c0 -8 -5
-15 -10 -15 -5 0 -4 -6 2 -14 9 -11 9 -19 -1 -35 -15 -24 -24 -26 -31 -8 -4 9
-8 8 -16 -3 -6 -8 -11 -10 -11 -4 0 5 8 19 19 30 10 11 24 30 30 42 14 26 18
27 18 7z m-1083 -60 l24 -24 -28 2 c-21 2 -27 7 -27 25 -1 28 1 27 31 -3z
m-3472 -28 c-5 -20 -5 -20 -14 2 -4 13 -5 27 -2 33 10 16 22 -11 16 -35z m68
33 c0 -5 -2 -10 -4 -10 -2 0 -12 -3 -22 -7 -16 -6 -17 -5 -4 10 17 19 30 22
30 7z m-1123 -26 c-3 -3 -12 -4 -19 -1 -8 3 -5 6 6 6 11 1 17 -2 13 -5z m53
-14 c0 -11 6 -21 13 -22 6 0 18 -2 24 -2 17 -2 17 -21 1 -22 -23 -1 -47 16
-53 37 -6 17 -9 19 -16 8 -5 -8 -9 -9 -9 -3 0 14 10 24 27 24 7 0 13 -9 13
-20z m-1330 -47 c-11 -17 -11 -17 -6 0 3 10 6 24 7 30 0 9 2 9 5 0 3 -7 0 -20
-6 -30z m1320 -21 c-7 -3 -16 2 -21 9 -16 25 -9 32 12 13 13 -12 16 -20 9 -22z
m53 1 c-7 -2 -19 -2 -25 0 -7 3 -2 5 12 5 14 0 19 -2 13 -5z m797 -13 c0 -5
-5 -10 -11 -10 -5 0 -7 5 -4 10 3 6 8 10 11 10 2 0 4 -4 4 -10z m1386 -50 c8
0 14 -5 14 -11 0 -6 -8 -9 -17 -7 -13 2 -18 13 -19 38 -1 26 -1 28 3 8 2 -16
11 -28 19 -28z m2424 40 c0 -5 8 -10 18 -10 14 0 15 -2 2 -10 -17 -11 -47 -14
-37 -3 4 3 2 12 -4 20 -9 10 -8 13 5 13 9 0 16 -4 16 -10z m-5385 -22 c6 -4 2
-8 -7 -8 -10 0 -18 7 -18 17 0 9 3 12 8 7 4 -5 12 -12 17 -16z m-1039 -25 c-4
-4 -11 -1 -16 7 -16 25 -11 35 7 17 9 -9 13 -20 9 -24z m2604 17 c-13 -8 -13
-10 -1 -10 8 0 12 -2 10 -5 -3 -2 -15 -1 -28 2 l-23 6 23 13 c26 14 42 8 19
-6z m-1204 -4 c9 -9 10 -17 4 -21 -5 -3 -10 -1 -10 4 0 17 -327 15 -333 -1 -3
-8 -6 -6 -6 4 -1 16 15 18 162 21 89 1 163 4 165 5 2 1 10 -4 18 -12z m5134
-14 c13 -14 13 -15 0 -5 -8 6 -28 15 -45 22 l-30 11 30 -6 c17 -3 37 -13 45
-22z m-1900 3 c0 -8 -4 -15 -10 -15 -5 0 -7 7 -4 15 4 8 8 15 10 15 2 0 4 -7
4 -15z m27 -7 c-3 -8 -6 -5 -6 6 -1 11 2 17 5 13 3 -3 4 -12 1 -19z m203 15
c0 -5 -28 -7 -62 -5 -113 5 -125 9 -30 10 50 1 92 -1 92 -5z m30 -9 c0 -8 -4
-12 -10 -9 -5 3 -10 10 -10 16 0 5 5 9 10 9 6 0 10 -7 10 -16z m35 7 c3 -5 1
-12 -4 -15 -5 -3 -11 1 -15 9 -6 16 9 21 19 6z m843 2 c-42 -2 -114 -2 -160 0
-46 1 -11 3 77 3 88 0 125 -2 83 -3z m-4728 -13 c0 -5 -5 -10 -11 -10 -5 0 -7
5 -4 10 3 6 8 10 11 10 2 0 4 -4 4 -10z m3320 0 c0 -5 -5 -10 -11 -10 -5 0 -7
5 -4 10 3 6 8 10 11 10 2 0 4 -4 4 -10z m1175 0 c18 -8 17 -9 -7 -9 -15 -1
-30 4 -33 9 -7 12 12 12 40 0z m944 6 c-2 -2 -22 -6 -44 -9 -28 -5 -34 -4 -20
3 19 8 73 14 64 6z m-3916 -13 c-7 -2 -19 -2 -25 0 -7 3 -2 5 12 5 14 0 19 -2
13 -5z"/>
<path d="M3380 7105 c-6 -8 -10 -19 -8 -26 2 -6 9 0 16 15 13 29 10 33 -8 11z"/>
<path d="M1161 6434 c0 -11 3 -14 6 -6 3 7 2 16 -1 19 -3 4 -6 -2 -5 -13z"/>
<path d="M2890 6028 c0 -9 5 -20 10 -23 13 -8 13 5 0 25 -8 13 -10 13 -10 -2z"/>
<path d="M4122 5700 c-10 -17 -10 -20 2 -20 19 0 31 19 19 31 -5 5 -14 0 -21
-11z"/>
<path d="M3950 5481 c0 -13 29 -35 37 -28 7 8 -15 37 -28 37 -5 0 -9 -4 -9 -9z"/>
<path d="M3850 5380 c0 -5 5 -10 10 -10 6 0 10 5 10 10 0 6 -4 10 -10 10 -5 0
-10 -4 -10 -10z"/>
<path d="M2020 5315 c-18 -22 -5 -30 19 -13 12 8 18 18 14 21 -10 11 -19 8
-33 -8z"/>
<path d="M3714 5239 c-8 -14 11 -33 25 -25 6 4 11 11 11 16 0 13 -29 20 -36 9z"/>
<path d="M2200 5140 c0 -5 5 -10 10 -10 6 0 10 5 10 10 0 6 -4 10 -10 10 -5 0
-10 -4 -10 -10z"/>
<path d="M1361 5186 c2 -2 49 -6 104 -8 55 -3 89 -2 75 2 -25 8 -187 13 -179
6z"/>
<path d="M1628 4683 c-2 -67 -2 -65 7 -92 4 -15 3 -21 -3 -17 -5 3 -13 -1 -16
-10 -9 -24 -7 -27 9 -14 14 11 14 10 5 -14 -13 -36 -12 -46 3 -21 13 22 17
215 5 215 -5 0 -9 -21 -10 -47z"/>
<path d="M1586 4711 c-4 -5 0 -12 6 -14 7 -3 -16 -4 -52 -2 -49 3 -57 2 -30
-4 19 -5 29 -9 23 -10 -7 0 -13 -4 -13 -9 0 -4 18 -6 40 -4 24 3 40 0 40 -6 0
-6 -8 -10 -17 -10 -10 1 -38 -2 -63 -5 -31 -4 -37 -4 -20 2 23 8 24 9 3 10
-12 1 -33 -3 -47 -9 -17 -6 -34 -6 -48 1 -20 8 -19 9 7 4 33 -7 24 10 -10 18
-15 4 -13 5 8 6 15 0 27 -3 27 -8 0 -5 8 -8 18 -6 9 2 26 4 37 5 11 1 -2 6
-30 11 -60 10 -132 1 -100 -13 14 -6 9 -7 -17 -3 -24 4 -41 1 -51 -9 -8 -8
-17 -12 -20 -9 -4 3 -18 -2 -33 -12 -19 -12 -23 -19 -14 -25 9 -6 8 -11 -7
-19 -11 -5 -24 -7 -28 -3 -5 4 -5 1 -1 -6 10 -17 45 -6 68 22 9 11 17 16 18
10 0 -15 -30 -41 -63 -53 -21 -8 -27 -17 -27 -39 0 -15 5 -33 11 -39 7 -7 7
-13 0 -17 -13 -8 -25 55 -16 84 5 15 4 20 -4 16 -16 -11 -13 -72 5 -109 25
-48 69 -83 98 -78 4 1 13 -2 20 -7 6 -6 27 -7 46 -4 l35 6 -40 8 c-29 5 -20 6
30 3 39 -2 61 0 50 4 -12 5 -2 8 30 7 l50 0 -55 -18 c-48 -16 -50 -18 -15 -12
65 10 145 60 145 91 0 7 7 13 15 13 13 0 15 11 13 58 -1 31 2 87 6 125 8 58 7
67 -7 67 -9 0 -18 -4 -21 -9z m-213 -68 c-7 -2 -21 -2 -30 0 -10 3 -4 5 12 5
17 0 24 -2 18 -5z m-113 -18 c-7 -9 -15 -13 -19 -10 -3 3 1 10 9 15 21 14 24
12 10 -5z m16 -160 c-2 -5 -13 -9 -25 -8 -14 2 -21 -3 -21 -13 0 -12 6 -15 25
-10 14 4 25 2 25 -4 0 -5 -3 -9 -7 -7 -5 1 -9 -2 -11 -7 -1 -6 5 -11 14 -12
26 -4 29 -14 5 -14 -12 0 -35 13 -51 28 -26 27 -27 30 -12 43 19 16 64 19 58
4z m277 3 c-28 -14 -30 -32 -3 -23 26 8 25 1 -3 -18 -21 -14 -22 -13 -23 17 0
27 3 32 25 33 26 2 26 2 4 -9z"/>
<path d="M1050 4604 c0 -8 5 -12 10 -9 6 3 10 10 10 16 0 5 -4 9 -10 9 -5 0
-10 -7 -10 -16z"/>
<path d="M1353 4353 c9 -2 23 -2 30 0 6 3 -1 5 -18 5 -16 0 -22 -2 -12 -5z"/>
<path d="M3635 5159 c-4 -6 -5 -13 -2 -16 7 -7 27 6 27 18 0 12 -17 12 -25 -2z"/>
<path d="M2410 4824 c0 -8 5 -12 10 -9 6 4 8 11 5 16 -9 14 -15 11 -15 -7z"/>
<path d="M1793 4660 c0 -124 1 -217 4 -207 2 9 9 17 14 17 5 0 8 85 7 208 l-3
207 -5 -205 -5 -205 -5 205 -6 205 -1 -225z"/>
<path d="M1811 4434 c0 -11 3 -14 6 -6 3 7 2 16 -1 19 -3 4 -6 -2 -5 -13z"/>
<path d="M5215 4840 c-3 -5 1 -10 9 -10 9 0 16 5 16 10 0 6 -4 10 -9 10 -6 0
-13 -4 -16 -10z"/>
<path d="M5150 4680 c36 -3 76 -3 90 1 14 4 -13 7 -65 7 -89 -1 -90 -1 -25 -8z"/>
<path d="M5098 4663 c7 -3 16 -2 19 1 4 3 -2 6 -13 5 -11 0 -14 -3 -6 -6z"/>
<path d="M5097 4493 c-9 -9 -9 -115 1 -128 8 -12 152 -17 152 -5 0 4 -6 8 -12
7 -7 0 -42 1 -77 1 l-63 2 4 65 c2 36 3 65 3 65 -1 0 -5 -3 -8 -7z"/>
<path d="M3780 4361 c0 -6 10 -8 21 -6 33 6 36 15 6 15 -15 0 -27 -4 -27 -9z"/>
<path d="M4658 4773 c12 -2 32 -2 45 0 12 2 2 4 -23 4 -25 0 -35 -2 -22 -4z"/>
<path d="M4594 4520 c0 -113 2 -159 3 -102 2 56 2 148 0 205 -1 56 -3 10 -3
-103z"/>
<path d="M4691 4686 c2 -2 29 -6 59 -9 37 -4 50 -3 40 3 -14 9 -109 15 -99 6z"/>
<path d="M4698 4663 c7 -3 16 -2 19 1 4 3 -2 6 -13 5 -11 0 -14 -3 -6 -6z"/>
<path d="M4727 4648 c-12 -41 -8 -258 4 -258 13 0 -10 -24 -31 -33 -9 -3 -3
-6 13 -6 16 -1 26 3 23 8 -3 5 1 12 10 15 22 8 26 8 19 -4 -10 -16 8 -11 35 9
23 19 24 24 25 136 0 64 -3 119 -8 122 -4 2 -5 9 -2 14 4 5 0 9 -8 9 -8 0 -28
3 -44 6 -26 5 -31 2 -36 -18z m84 -231 c-6 -15 -16 -27 -23 -26 -10 0 -10 2
-1 6 7 2 16 21 20 41 4 20 8 30 10 21 2 -8 -1 -28 -6 -42z"/>
<path d="M4698 4644 c-11 -11 -9 -236 2 -254 5 -8 10 -12 12 -10 7 11 -8 271
-14 264z"/>
<path d="M4832 4520 c0 -14 2 -19 5 -12 2 6 2 18 0 25 -3 6 -5 1 -5 -13z"/>
<path d="M6840 4520 c0 -115 3 -210 8 -210 4 0 7 95 7 210 0 116 -3 210 -7
210 -5 0 -8 -94 -8 -210z"/>
<path d="M6983 4683 c31 -2 57 -8 57 -13 0 -6 7 -10 16 -10 8 0 13 4 9 9 -3 5
3 11 12 14 10 2 -20 3 -67 3 -58 0 -66 -1 -27 -3z"/>
<path d="M6938 4663 c7 -3 16 -2 19 1 4 3 -2 6 -13 5 -11 0 -14 -3 -6 -6z"/>
<path d="M7090 4499 c0 -5 5 -7 10 -4 6 3 10 8 10 11 0 2 -4 4 -10 4 -5 0 -10
-5 -10 -11z"/>
<path d="M6930 4453 c0 -29 5 -53 10 -53 13 0 13 70 0 90 -7 11 -10 0 -10 -37z"/>
<path d="M7372 4545 c0 -11 4 -31 8 -45 6 -20 8 -21 8 -5 0 11 -4 31 -8 45 -6
20 -8 21 -8 5z"/>
<path d="M7485 4467 c4 -19 2 -26 -5 -22 -12 7 -13 -5 -1 -23 6 -10 10 -7 15
12 4 15 2 34 -4 44 -9 14 -10 12 -5 -11z"/>
<path d="M7451 4354 c0 -11 3 -14 6 -6 3 7 2 16 -1 19 -3 4 -6 -2 -5 -13z"/>
<path d="M7712 4760 c0 -14 2 -19 5 -12 2 6 2 18 0 25 -3 6 -5 1 -5 -13z"/>
<path d="M7798 4773 c23 -2 61 -2 85 0 23 2 4 4 -43 4 -47 0 -66 -2 -42 -4z"/>
<path d="M7708 4520 c-2 -116 0 -210 5 -210 4 0 7 95 7 210 0 116 -2 210 -5
210 -2 0 -6 -95 -7 -210z"/>
<path d="M7960 4720 c0 -5 5 -10 10 -10 6 0 10 5 10 10 0 6 -4 10 -10 10 -5 0
-10 -4 -10 -10z"/>
<path d="M7782 4613 c1 -47 2 -50 5 -18 3 22 9 44 14 50 14 14 11 25 -6 25
-12 0 -15 -12 -13 -57z"/>
<path d="M7800 4600 c0 -22 5 -40 10 -40 6 0 10 18 10 40 0 22 -4 40 -10 40
-5 0 -10 -18 -10 -40z"/>
<path d="M8088 4753 c7 -3 16 -2 19 1 4 3 -2 6 -13 5 -11 0 -14 -3 -6 -6z"/>
<path d="M8273 4723 c-9 -3 -14 -35 -15 -106 l-2 -102 -6 105 c-3 58 -7 98 -9
90 -2 -8 -3 -19 -2 -24 1 -5 -5 -27 -14 -48 -8 -22 -11 -37 -6 -34 5 3 12 -12
16 -34 11 -64 41 -135 48 -115 11 28 8 83 -5 88 -10 4 -10 7 0 15 18 12 13
171 -5 165z m4 -240 c-3 -10 -5 -4 -5 12 0 17 2 24 5 18 2 -7 2 -21 0 -30z"/>
<path d="M8143 4460 l0 -155 6 135 c3 74 3 144 0 155 -4 11 -6 -50 -6 -135z"/>
<path d="M8165 4530 c3 -5 8 -10 11 -10 2 0 4 5 4 10 0 6 -5 10 -11 10 -5 0
-7 -4 -4 -10z"/>
<path d="M8493 4683 c15 -2 37 -2 50 0 12 2 0 4 -28 4 -27 0 -38 -2 -22 -4z"/>
<path d="M6237 4690 c4 -5 17 -10 28 -12 22 -4 24 -20 4 -27 -6 -2 -9 1 -6 6
4 6 -7 10 -23 11 -21 0 -30 -4 -31 -16 -1 -9 -5 -3 -9 13 -5 19 -6 7 -3 -34 4
-48 2 -65 -8 -72 -9 -6 2 -9 34 -9 37 0 49 4 53 18 10 30 22 47 33 45 17 -4
13 29 -7 53 -9 12 -30 24 -45 27 -16 2 -25 1 -20 -3z m53 -45 c11 4 20 2 20
-3 0 -13 -39 -22 -46 -11 -3 5 -12 9 -20 9 -10 0 -14 -12 -14 -40 0 -22 -4
-40 -10 -40 -14 0 -12 68 3 84 8 10 17 11 30 4 10 -5 27 -6 37 -3z m-30 -56
c0 -16 -4 -29 -9 -29 -5 0 -9 15 -8 34 2 41 17 37 17 -5z"/>
<path d="M6297 4593 c-4 -3 -7 -13 -7 -22 1 -13 3 -13 11 2 11 19 8 33 -4 20z"/>
<path d="M5438 4753 c23 -2 59 -2 80 0 20 2 1 4 -43 4 -44 0 -61 -2 -37 -4z"/>
<path d="M5440 4679 c0 -6 18 -10 43 -9 57 2 67 1 67 -7 0 -5 -26 -7 -57 -6
-43 2 -52 0 -33 -6 14 -5 19 -9 13 -10 -8 -1 -13 -16 -13 -41 0 -37 2 -40 28
-41 21 -2 18 -3 -13 -9 l-40 -7 45 -1 c50 -2 62 3 79 35 15 30 14 64 -5 91
-12 18 -25 22 -65 22 -28 0 -49 -5 -49 -11z m94 -38 c4 -5 2 -20 -3 -33 -10
-23 -10 -23 -10 4 -1 14 -7 29 -13 31 -8 3 -7 6 4 6 9 1 19 -3 22 -8z m26 -21
c0 -16 -4 -30 -8 -30 -5 0 -7 14 -4 30 2 17 6 30 8 30 2 0 4 -13 4 -30z"/>
<path d="M4158 4683 c23 -2 59 -2 80 0 20 2 1 4 -43 4 -44 0 -61 -2 -37 -4z"/>
<path d="M5857 4613 c-3 -15 -1 -35 4 -45 5 -9 9 -34 8 -55 -1 -34 -2 -35 -9
-13 -4 14 -8 19 -9 12 -1 -7 -5 -11 -10 -8 -5 3 -11 -3 -14 -14 -5 -18 0 -20
45 -20 47 0 49 1 43 23 -12 36 -27 46 -21 12 l6 -30 -11 29 c-9 22 -9 34 -1
47 9 14 9 17 -2 13 -7 -3 -16 3 -20 12 -9 22 2 32 15 14 9 -12 10 -12 5 3 -3
10 -6 25 -6 33 0 25 -18 15 -23 -13z"/>
<path d="M5838 4547 c-3 -19 -2 -25 4 -19 6 6 8 18 6 28 -3 14 -5 12 -10 -9z"/>
<path d="M5724 4467 c3 -10 6 -24 7 -30 0 -7 5 -1 10 12 5 13 7 26 4 29 -3 3
-5 -1 -5 -9 0 -12 -2 -11 -11 1 -9 12 -10 12 -5 -3z"/>
<path d="M6010 4395 c0 -3 6 -21 14 -40 8 -18 12 -36 8 -39 -3 -3 0 -6 6 -6
16 0 15 13 -2 55 -13 31 -26 45 -26 30z"/>
<path d="M5790 4357 c0 -16 -5 -37 -11 -49 -6 -11 -8 -23 -4 -26 3 -3 8 4 12
16 3 12 9 22 14 22 12 0 11 31 -1 50 -8 12 -10 9 -10 -13z"/>
<path d="M5696 4323 c-6 -14 -5 -15 5 -6 7 7 10 15 7 18 -3 3 -9 -2 -12 -12z"/>
<path d="M6768 4753 c6 -2 18 -2 25 0 6 3 1 5 -13 5 -14 0 -19 -2 -12 -5z"/>
<path d="M6680 4664 c13 -4 15 -31 14 -177 -1 -94 0 -158 2 -142 2 17 5 96 6
178 3 142 2 147 -17 146 -13 -1 -15 -3 -5 -5z"/>
<path d="M2178 3963 c7 -3 16 -2 19 1 4 3 -2 6 -13 5 -11 0 -14 -3 -6 -6z"/>
<path d="M2200 3885 c0 -8 2 -15 4 -15 2 0 6 7 10 15 3 8 1 15 -4 15 -6 0 -10
-7 -10 -15z"/>
<path d="M1242 3860 c0 -14 2 -19 5 -12 2 6 2 18 0 25 -3 6 -5 1 -5 -13z"/>
<path d="M2090 3584 c-16 -47 -8 -53 12 -9 9 20 12 37 8 40 -5 3 -14 -11 -20
-31z"/>
<path d="M971 3510 c0 -29 1 -32 10 -17 7 11 7 23 0 35 -9 14 -10 11 -10 -18z"/>
<path d="M1660 3315 c0 -8 5 -15 10 -15 6 0 10 7 10 15 0 8 -4 15 -10 15 -5 0
-10 -7 -10 -15z"/>
<path d="M1651 3244 c0 -11 3 -14 6 -6 3 7 2 16 -1 19 -3 4 -6 -2 -5 -13z"/>
<path d="M1817 2820 c-3 -11 -1 -20 4 -20 5 0 9 9 9 20 0 11 -2 20 -4 20 -2 0
-6 -9 -9 -20z"/>
<path d="M1810 2771 c0 -6 5 -13 10 -16 6 -3 10 1 10 9 0 9 -4 16 -10 16 -5 0
-10 -4 -10 -9z"/>
<path d="M2500 3970 l-145 -6 142 -2 c86 -1 144 2 148 8 3 6 5 9 3 8 -2 -1
-68 -5 -148 -8z"/>
<path d="M3718 3983 c7 -3 16 -2 19 1 4 3 -2 6 -13 5 -11 0 -14 -3 -6 -6z"/>
<path d="M3190 3909 l-25 -20 33 16 c17 8 32 18 32 20 0 10 -16 4 -40 -16z"/>
<path d="M3137 3903 c-10 -9 -9 -23 2 -23 5 0 11 7 15 15 5 15 -5 20 -17 8z"/>
<path d="M2978 3743 c-6 -29 -4 -61 4 -57 5 3 6 15 2 26 -5 16 -3 20 9 15 11
-4 14 -2 10 9 -5 15 -22 19 -25 7z"/>
<path d="M3480 3729 c-56 -11 -100 -29 -100 -40 0 -5 -8 -9 -18 -9 -10 0 -29
-12 -43 -27 -13 -15 -16 -21 -6 -14 14 11 20 11 32 1 20 -17 14 -33 -13 -35
-11 -1 -19 2 -16 6 2 4 -5 7 -17 6 -31 -2 -67 -64 -61 -105 2 -17 8 -29 13
-26 5 3 9 -6 9 -20 l0 -25 298 2 c291 2 297 2 293 22 -2 11 -4 43 -5 70 -1 33
-9 58 -21 72 -18 21 -20 22 -45 7 -14 -10 -20 -11 -12 -3 14 16 16 33 2 24 -5
-3 -10 -1 -10 4 0 6 5 11 11 11 20 0 -7 24 -53 49 -33 17 -38 18 -22 4 19 -18
16 -18 -142 -18 -175 0 -212 7 -61 12 51 1 109 9 130 16 l39 14 -32 7 c-41 8
-93 6 -150 -5z m130 -9 c-20 -13 -90 -13 -90 0 0 6 24 10 53 10 37 0 48 -3 37
-10z m-117 -7 c-7 -2 -19 -2 -25 0 -7 3 -2 5 12 5 14 0 19 -2 13 -5z m-133
-53 c0 -5 -2 -10 -4 -10 -3 0 -8 5 -11 10 -3 6 -1 10 4 10 6 0 11 -4 11 -10z
m-78 -66 c-5 -9 -8 -39 -6 -67 2 -29 1 -42 -2 -30 -3 12 -11 27 -19 33 -11 9
-10 17 7 46 19 33 38 50 20 18z"/>
<path d="M3630 3706 c0 -2 11 -6 25 -8 13 -3 22 -1 19 3 -5 9 -44 13 -44 5z"/>
<path d="M3326 3631 c-3 -5 1 -11 9 -15 8 -3 15 -1 15 4 0 13 -18 22 -24 11z"/>
<path d="M2890 3565 c0 -8 2 -15 4 -15 2 0 6 7 10 15 3 8 1 15 -4 15 -6 0 -10
-7 -10 -15z"/>
<path d="M3214 3486 c-3 -21 -4 -39 -1 -42 3 -4 9 10 13 30 3 21 4 39 1 42 -3
4 -9 -10 -13 -30z"/>
<path d="M3850 3515 c0 -2 7 -19 15 -38 11 -27 12 -37 2 -41 -9 -5 -9 -7 1
-12 6 -3 12 -12 12 -20 0 -11 -57 -14 -347 -17 l-348 -2 353 -3 c329 -2 352
-1 353 16 0 9 2 27 5 40 3 15 0 21 -7 16 -8 -4 -9 1 -4 16 5 17 4 21 -6 15 -9
-6 -11 -2 -7 12 3 12 0 20 -8 20 -8 0 -14 -1 -14 -2z"/>
<path d="M3230 3455 c0 -8 5 -15 10 -15 6 0 10 7 10 15 0 8 -4 15 -10 15 -5 0
-10 -7 -10 -15z"/>
<path d="M3200 3415 c0 -13 43 -15 333 -14 182 0 326 3 319 6 -6 2 -10 9 -6
14 3 5 -126 9 -320 9 -283 0 -326 -2 -326 -15z"/>
<path d="M4201 2903 c-7 -21 -15 -44 -17 -50 -3 -7 -2 -13 3 -13 9 0 37 90 30
96 -2 2 -9 -13 -16 -33z"/>
<path d="M2895 2910 c-4 -12 -5 -24 -2 -27 3 -2 8 5 12 17 4 12 5 24 2 27 -3
2 -8 -5 -12 -17z"/>
<path d="M3255 2920 c-3 -5 -1 -10 4 -10 6 0 11 5 11 10 0 6 -2 10 -4 10 -3 0
-8 -4 -11 -10z"/>
<path d="M4130 2751 c0 -5 5 -13 10 -16 6 -3 10 -2 10 4 0 5 -4 13 -10 16 -5
3 -10 2 -10 -4z"/>
<path d="M3795 2510 c4 -7 -3 -9 -22 -5 -23 5 -25 4 -11 -5 10 -6 29 -8 44 -4
19 5 22 9 12 15 -18 12 -30 11 -23 -1z"/>
<path d="M4970 3980 c-18 -12 -2 -12 25 0 13 6 15 9 5 9 -8 0 -22 -4 -30 -9z"/>
<path d="M5318 3983 c7 -3 16 -2 19 1 4 3 -2 6 -13 5 -11 0 -14 -3 -6 -6z"/>
<path d="M4830 3645 c-9 -11 -10 -19 -3 -26 8 -8 11 -6 10 7 -1 12 4 19 15 18
10 -1 15 2 12 7 -8 13 -20 11 -34 -6z"/>
<path d="M5662 3595 c0 -16 2 -22 5 -12 2 9 2 23 0 30 -3 6 -5 -1 -5 -18z"/>
<path d="M5316 3524 c-3 -9 -5 -230 -4 -492 1 -262 3 -454 5 -427 3 50 9 935
7 935 -1 0 -5 -7 -8 -16z"/>
<path d="M5335 3010 c0 -250 1 -353 2 -228 2 126 2 330 0 455 -1 126 -2 23 -2
-227z"/>
<path d="M7160 3690 c0 -8 5 -22 10 -30 9 -13 10 -13 10 0 0 8 -5 22 -10 30
-9 13 -10 13 -10 0z"/>
<path d="M8293 3970 c47 -25 59 -25 28 0 -13 11 -33 20 -44 20 -17 0 -13 -5
16 -20z"/>
<path d="M7600 3836 c-6 -8 -18 -12 -26 -9 -10 3 -12 0 -8 -10 3 -8 1 -18 -5
-22 -6 -3 -11 1 -11 9 0 8 -5 18 -10 21 -6 4 -9 -3 -7 -16 6 -34 19 -33 57 6
19 19 31 35 28 35 -3 0 -11 -6 -18 -14z"/>
<path d="M8617 3743 c-4 -3 -7 -11 -7 -17 0 -6 5 -5 12 2 6 6 9 14 7 17 -3 3
-9 2 -12 -2z"/>
<path d="M7985 3730 c-89 -14 -212 -93 -200 -129 6 -21 -10 -46 -23 -37 -6 4
-16 -4 -22 -16 -11 -23 -11 -23 6 -3 l17 20 -8 -20 c-4 -11 -7 -27 -7 -35 0
-8 -4 -29 -9 -46 -11 -36 -2 -74 12 -52 7 10 9 10 9 1 0 -17 635 -19 645 -3 7
11 -34 145 -41 137 -2 -2 5 -29 15 -60 l20 -57 -332 2 -332 3 308 2 c235 3
307 6 307 16 0 8 3 7 10 -3 5 -8 12 -11 16 -7 7 6 0 27 -27 79 -5 10 -9 29 -9
43 0 18 -4 24 -12 19 -8 -5 -9 -2 -5 10 4 9 3 15 -2 12 -5 -3 -14 1 -21 9 -7
8 -9 15 -4 15 4 0 -5 13 -21 30 -15 16 -32 27 -37 24 -4 -3 -8 -1 -8 4 0 5
-13 15 -30 22 -25 10 -34 10 -52 -2 -13 -8 -52 -18 -88 -21 -40 -3 -57 -2 -45
3 11 5 39 9 63 9 23 1 42 6 42 11 0 6 8 11 18 11 26 2 -39 17 -73 17 -16 0
-52 -4 -80 -8z m110 -10 c3 -5 -3 -10 -14 -10 -12 0 -21 5 -21 10 0 6 6 10 14
10 8 0 18 -4 21 -10z m-130 -20 c-85 -23 -98 -24 -63 -6 31 16 59 23 103 24
17 1 0 -7 -40 -18z m234 1 c10 -6 5 -11 -18 -16 -18 -4 -35 -4 -38 -1 -4 3 4
6 16 6 12 0 19 4 16 10 -8 12 5 13 24 1z m91 -68 c0 -2 -9 -1 -20 2 -27 9 -25
-9 3 -23 17 -8 18 -11 5 -11 -20 -1 -33 16 -33 45 -1 20 1 21 22 7 13 -9 23
-17 23 -20z m-450 14 c0 -2 -12 -14 -27 -28 -24 -22 -23 -11 2 18 9 11 25 17
25 10z m0 -37 c0 -5 -5 -10 -11 -10 -5 0 -7 5 -4 10 3 6 8 10 11 10 2 0 4 -4
4 -10z m506 -116 l2 -29 -5 30 c-5 27 -6 28 -13 10 -8 -19 -9 -18 -9 3 -1 35
24 21 25 -14z"/>
<path d="M7391 3574 c0 -11 3 -14 6 -6 3 7 2 16 -1 19 -3 4 -6 -2 -5 -13z"/>
<path d="M7720 3513 c0 -4 5 -15 10 -23 8 -13 10 -13 10 2 0 9 -4 20 -10 23
-5 3 -10 3 -10 -2z"/>
<path d="M7705 3462 c-3 -17 -2 -39 4 -50 6 -11 7 -22 4 -26 -3 -3 153 -5 348
-4 l354 3 -340 2 c-186 2 -342 7 -346 11 -12 13 -20 64 -9 57 12 -8 13 5 1 24
-7 10 -11 6 -16 -17z"/>
<path d="M7691 3394 c0 -11 3 -14 6 -6 3 7 2 16 -1 19 -3 4 -6 -2 -5 -13z"/>
<path d="M8285 2819 c-11 -17 1 -21 15 -4 8 9 8 15 2 15 -6 0 -14 -5 -17 -11z"/>
<path d="M8492 2614 c-24 -19 -40 -35 -35 -35 4 -1 27 -3 51 -3 38 -2 41 -1
27 13 -12 13 -19 13 -35 3 -38 -24 -32 -12 8 18 23 17 42 32 42 35 0 11 -17 2
-58 -31z"/>
<path d="M8313 2521 c-52 -21 -68 -36 -28 -27 17 3 45 8 63 10 19 2 37 7 40
11 4 5 -6 5 -22 1 -26 -6 -28 -5 -17 8 8 9 12 16 10 15 -2 -1 -23 -9 -46 -18z"/>
<path d="M7908 2493 c7 -3 16 -2 19 1 4 3 -2 6 -13 5 -11 0 -14 -3 -6 -6z"/>
<path d="M1772 3775 c0 -16 2 -22 5 -12 2 9 2 23 0 30 -3 6 -5 -1 -5 -18z"/>
<path d="M8606 2681 c-4 -7 -5 -15 -2 -18 9 -9 19 4 14 18 -4 11 -6 11 -12 0z"/>
</g>
</svg>
