<?xml version="1.0" standalone="no"?>
<!DOCTYPE svg PUBLIC "-//W3C//DTD SVG 20010904//EN"
 "http://www.w3.org/TR/2001/REC-SVG-20010904/DTD/svg10.dtd">
<svg version="1.0" xmlns="http://www.w3.org/2000/svg"
 width="42.000000pt" height="42.000000pt" viewBox="0 0 42.000000 42.000000"
 preserveAspectRatio="xMidYMid meet">

<g transform="translate(0.000000,42.000000) scale(0.100000,-0.100000)"
fill="#000000" stroke="none">
<path d="M26 285 c-25 -25 -29 -54 -11 -82 9 -14 25 -27 35 -30 10 -3 27 -18
39 -34 28 -37 71 -39 98 -5 l19 24 21 -24 c12 -13 32 -24 45 -24 29 0 68 26
68 46 0 8 8 14 18 14 46 0 70 81 34 113 -27 24 -70 21 -95 -7 l-21 -24 -19 24
c-26 33 -71 32 -102 -2 -14 -15 -25 -22 -25 -16 0 37 -74 56 -104 27z m365
-28 c14 -25 -4 -67 -28 -66 -10 0 -29 14 -42 31 l-25 31 22 17 c26 21 58 16
73 -13z m-280 7 c12 -15 11 -19 -9 -32 -12 -8 -22 -21 -22 -28 0 -23 -40 -16
-51 10 -24 51 46 93 82 50z m138 2 c9 -10 5 -21 -19 -46 -16 -18 -30 -27 -30
-21 0 5 -10 19 -22 30 -17 17 -19 23 -8 36 16 19 64 20 79 1z m-84 -73 c29
-35 18 -63 -25 -63 -34 0 -62 36 -36 46 8 3 18 14 21 25 8 25 12 24 40 -8z
m153 -45 c-11 -22 -61 -24 -78 -3 -10 12 -8 20 12 43 l23 28 26 -25 c20 -20
24 -30 17 -43z"/>
</g>
</svg>
