<?xml version="1.0" standalone="no"?>
<!DOCTYPE svg PUBLIC "-//W3C//DTD SVG 20010904//EN"
 "http://www.w3.org/TR/2001/REC-SVG-20010904/DTD/svg10.dtd">
<svg version="1.0" xmlns="http://www.w3.org/2000/svg"
 width="512.000000pt" height="512.000000pt" viewBox="0 0 512.000000 512.000000"
 preserveAspectRatio="xMidYMid meet">

<g transform="translate(0.000000,512.000000) scale(0.100000,-0.100000)"
fill="#000000" stroke="none">
<path d="M685 3673 c-410 -87 -700 -490 -646 -896 38 -286 208 -523 466 -647
97 -47 183 -70 294 -78 l83 -7 23 -91 c74 -292 296 -516 590 -595 107 -28 279
-31 385 -5 154 38 319 133 417 239 113 124 167 236 208 430 4 22 11 27 34 27
27 0 29 -3 49 -87 73 -297 298 -526 593 -604 115 -31 290 -31 404 0 308 83
541 327 596 624 l12 64 91 6 c361 23 657 280 742 643 23 99 21 268 -5 369 -99
387 -454 647 -849 622 -367 -24 -676 -287 -746 -637 -12 -60 -15 -65 -41 -68
-30 -4 -45 10 -45 45 0 41 -57 192 -99 263 -254 428 -828 529 -1223 216 -141
-112 -258 -310 -284 -481 -6 -43 -8 -45 -38 -45 -31 0 -32 2 -45 62 -90 435
-532 724 -966 631z m356 -223 c210 -65 386 -260 424 -470 l6 -35 -70 -28
c-181 -73 -334 -213 -422 -388 -38 -77 -79 -203 -79 -246 0 -20 -5 -23 -39
-23 -75 0 -194 30 -270 67 -149 73 -279 236 -317 399 -22 94 -14 255 16 341
71 202 263 365 473 403 73 13 203 4 278 -20z m1696 -5 c194 -61 356 -236 408
-439 8 -33 14 -60 12 -61 -1 0 -33 -13 -71 -29 -245 -97 -423 -305 -488 -569
-20 -84 -22 -87 -49 -87 -23 0 -30 5 -35 28 -16 73 -49 172 -76 227 -91 181
-253 332 -438 406 -30 13 -56 24 -58 25 -2 1 4 32 13 69 52 225 253 413 486
454 81 15 207 4 296 -24z m1601 19 c125 -25 214 -74 307 -168 128 -128 185
-260 185 -427 0 -316 -243 -578 -562 -605 l-73 -7 -14 64 c-53 259 -251 495
-503 599 -66 27 -68 33 -42 121 54 183 198 336 377 399 115 40 211 48 325 24z
m-2589 -761 c33 -149 115 -298 224 -411 63 -65 194 -154 274 -186 32 -14 59
-31 61 -41 2 -9 -6 -46 -17 -83 -56 -184 -207 -339 -391 -403 -88 -30 -239
-37 -334 -15 -207 49 -390 226 -451 439 -17 60 -15 87 7 87 24 0 161 70 223
114 158 113 282 305 317 490 12 65 13 66 44 66 29 0 31 -3 43 -57z m1691 -18
c66 -259 234 -460 479 -572 42 -20 77 -37 79 -38 8 -7 -25 -110 -60 -184 -76
-159 -230 -282 -408 -327 -103 -26 -253 -16 -355 24 -94 37 -197 112 -256 185
-49 61 -103 169 -123 247 -13 53 -13 55 8 64 94 40 192 93 248 136 137 104
246 275 290 453 21 87 22 88 51 85 27 -3 31 -8 47 -73z m-2028 -67 c-48 -98
-128 -190 -213 -247 -34 -23 -65 -41 -70 -41 -11 0 22 88 54 142 41 71 104
134 184 188 42 28 78 48 81 45 3 -3 -13 -42 -36 -87z m2404 -33 c65 -64 89
-97 122 -165 23 -46 39 -86 37 -88 -11 -11 -118 61 -177 119 -51 50 -78 87
-108 150 -22 45 -40 89 -40 96 0 26 83 -30 166 -112z m-1767 74 c33 -22 84
-66 111 -97 51 -56 139 -216 127 -228 -12 -12 -136 77 -191 137 -50 54 -126
184 -126 215 0 22 13 17 79 -27z m1065 19 c-37 -121 -167 -274 -281 -332 -41
-21 -41 -12 -2 67 42 83 110 168 173 215 104 79 122 87 110 50z"/>
</g>
</svg>
