<svg id="Calque_1" data-name="Calque 1" xmlns="http://www.w3.org/2000/svg" xmlns:xlink="http://www.w3.org/1999/xlink" viewBox="0 0 396.69 200"><defs><style>.cls-1{fill:#fff;}.cls-2{clip-path:url(#clip-path);}.cls-3{fill:#0a1e47;}.cls-4{fill:#ee334e;}.cls-5{fill:#fcb131;}.cls-6{fill:#00a651;}.cls-7{fill:#0081c8;}.cls-8{fill:#c95226;}.cls-9{fill:#0099be;}.cls-10{fill:#014d5e;}</style><clipPath id="clip-path"><rect class="cls-1" x="354.84" y="130.08" width="42.5" height="58.03"/></clipPath></defs><title>banniere</title><g id="Logo_CDOS_86" data-name="Logo CDOS 86"><rect class="cls-1" x="354.84" y="130.08" width="42.5" height="58.03"/><g class="cls-2"><path class="cls-3" d="M364.91,141.25a1.13,1.13,0,1,1-1.93-.34,1.18,1.18,0,0,1,.86-.47v.41a.75.75,0,0,0-.56.3.67.67,0,0,0,.11,1,.68.68,0,0,0,1-.1.68.68,0,0,0,.14-.64Z"/><path class="cls-3" d="M366.14,140.66a1.08,1.08,0,0,1-1.59,0,1.09,1.09,0,0,1,.13-1.57,1.08,1.08,0,1,1,1.46,1.58Zm-1.2-1.3a.66.66,0,0,0,0,1,.67.67,0,0,0,1,0,.66.66,0,0,0,0-1A.65.65,0,0,0,364.94,139.36Z"/><path class="cls-3" d="M367.84,137.53c0,.37,0,.79,0,1.16l0,0a9.85,9.85,0,0,0-1.07-.48l.79,1.21-.37.23-1.13-1.74.33-.22a.16.16,0,0,1,.13,0,9.18,9.18,0,0,1,1,.39c0-.34,0-.77,0-1.07l.41-.26,1.13,1.74-.38.25Z"/><path class="cls-3" d="M369.88,138.09l-.42.2-.91-1.87.42-.2Z"/><path class="cls-3" d="M371.1,135.74l-.56.21.61,1.62-.43.16-.61-1.62-.56.21-.12-.33,1.55-.58Z"/><path class="cls-3" d="M372.58,134.63v0l-.19.39.5-.12.08.35-1,.23.12.47.89-.21a2.33,2.33,0,0,1,0,.28c0,.08-.05.1-.11.12l-.65.15.11.49a.06.06,0,0,0,.06,0l.95-.23.08.33-1.44.35-.48-2,.5-.13.17-.4Z"/><path class="cls-3" d="M376.57,136.7h-.25a.15.15,0,0,1-.15-.07,10.44,10.44,0,0,0-1.16-1.31l.05,1.42h-.44l-.06-2.08h.31a.18.18,0,0,1,.14.06,12,12,0,0,1,1.1,1.13l0-1.23h.43Z"/><path class="cls-3" d="M376.8,136.7c.31-.59.76-1.45,1.07-2l.55.06a.12.12,0,0,1,.09.08c.17.54.39,1.41.55,2.1l-.51-.06c0-.17-.08-.37-.12-.57l-.89-.11-.26.52Zm1.32-1.55c-.11.19-.26.47-.41.76l.64.08c-.07-.31-.15-.62-.22-.84Z"/><path class="cls-3" d="M381,135.73l-.58-.15-.43,1.67-.45-.12.44-1.67-.58-.15.09-.34,1.6.41Z"/><path class="cls-3" d="M381.24,137.66l-.44-.16.71-1.95.43.15Z"/><path class="cls-3" d="M382.54,138.28a1.08,1.08,0,1,1,1.52-.46A1.09,1.09,0,0,1,382.54,138.28Zm.79-1.59a.66.66,0,0,0-.92.31.67.67,0,0,0,.3.93.69.69,0,0,0,.62-1.24Z"/><path class="cls-3" d="M385.41,140.05l-.2-.15a.12.12,0,0,1-.07-.13A11.1,11.1,0,0,0,385,138l-.83,1.15-.35-.26,1.21-1.68.25.18a.19.19,0,0,1,.09.13,11.46,11.46,0,0,1,.17,1.56l.72-1,.35.26Z"/><path class="cls-3" d="M385.6,140.19c.6-.28,1.49-.67,2-.89l.38.38a.11.11,0,0,1,0,.12c-.2.53-.55,1.35-.85,2l-.37-.37c.08-.15.17-.33.26-.52l-.63-.63-.53.26Zm2-.42c-.21.08-.5.22-.79.36l.45.45c.14-.29.27-.58.35-.8Z"/><path class="cls-3" d="M388.16,143.07l-.84-1.09,1.65-1.26.28.36-1.33,1a0,0,0,0,0,0,.07l.53.69Z"/><path class="cls-3" d="M359.51,149a1.08,1.08,0,1,1,.92,1.3A1.09,1.09,0,0,1,359.51,149Zm1.76.25a.69.69,0,0,0-1.37-.2.69.69,0,0,0,1.37.2Z"/><path class="cls-3" d="M359.37,152.06l0-1.38,2.08,0v.45l-1.68,0a0,0,0,0,0-.05,0l0,.86Z"/><path class="cls-3" d="M359.51,153.45l-.05-.45.66-.08a15.18,15.18,0,0,1,1.32-.95l.06.5a5.92,5.92,0,0,0-.94.64,4.88,4.88,0,0,0,1.06.42l.05.49a12.52,12.52,0,0,1-1.5-.64Z"/><path class="cls-3" d="M361.56,156.06c-.35-.12-.76-.23-1.12-.32v0a10.19,10.19,0,0,0,.78-.87l-1.39.39-.11-.42,2-.56.11.39a.15.15,0,0,1,0,.12,7.07,7.07,0,0,1-.66.79c.33.09.74.22,1,.33l.13.46-2,.56-.13-.44Z"/><path class="cls-3" d="M361.32,157.73l-.56.26-.2-.41,1.89-.87.36.78c.22.48.14.9-.27,1.09a.77.77,0,0,1-1-.47Zm1-.46-.69.32.16.33a.38.38,0,0,0,.54.22.35.35,0,0,0,.14-.53Z"/><path class="cls-3" d="M361.77,160l-.23-.4,1.79-1.05.24.4Z"/><path class="cls-3" d="M363.42,161.85l-.09.39-.41-.14.09-.41a1.32,1.32,0,0,1-.34-.33,1.07,1.07,0,1,1,.75.49Zm.67-1.55a.69.69,0,1,0-1.11.83.69.69,0,0,0,1.11-.83Z"/><path class="cls-3" d="M365.75,163.41a.95.95,0,0,1-1.36-1.31l.86-.89.32.31-.85.89a.47.47,0,0,0,0,.7.46.46,0,0,0,.7,0l.86-.89.33.32Z"/><path class="cls-3" d="M367.57,164.26a2.36,2.36,0,0,1-.25.15.12.12,0,0,1-.16,0l-.54-.39-.29.4s0,.05,0,.07l.78.57-.2.28-1.2-.87,1.23-1.68,1.17.85-.2.29-.81-.59-.29.39Z"/><path class="cls-3" d="M370.06,165.6l-.21.19a.14.14,0,0,1-.17,0l-.6-.29-.21.45a0,0,0,0,0,0,.07l.87.41-.14.31-1.33-.63.89-1.88,1.31.63-.15.31-.9-.42-.21.43Z"/><path class="cls-3" d="M372.09,165.8l-.57-.19-.54,1.64-.44-.15.55-1.64-.57-.19.12-.33,1.56.53Z"/><path class="cls-3" d="M373,167.25a1.27,1.27,0,0,0,.63.3c.27,0,.44,0,.47-.17s-.08-.21-.27-.33l-.32-.18a.65.65,0,0,1-.39-.65c0-.32.37-.52.95-.44a1.73,1.73,0,0,1,.61.23l-.05.37a1.47,1.47,0,0,0-.6-.26c-.3,0-.42,0-.44.17s.06.2.24.3l.31.19c.31.18.47.37.43.63s-.43.56-1,.49a1.64,1.64,0,0,1-.66-.27Z"/><path class="cls-3" d="M375.5,167.41V168H375l0-2.08.87,0c.52,0,.86.26.85.71a.76.76,0,0,1-.86.74Zm0-1.11,0,.75h.37a.39.39,0,0,0,.44-.39c0-.23-.16-.36-.42-.37Z"/><path class="cls-3" d="M378.35,167.93a1.08,1.08,0,1,1,1-1.24A1.08,1.08,0,0,1,378.35,167.93Zm-.24-1.76a.69.69,0,0,0,.19,1.37.69.69,0,0,0-.19-1.37Z"/><path class="cls-3" d="M380.65,166.3a.35.35,0,0,0,.28-.45c-.06-.19-.22-.27-.48-.2l-.41.13a0,0,0,0,0,0,.05l.49,1.62-.44.13-.6-2,.94-.28c.51-.16.87,0,1,.37a.6.6,0,0,1-.32.75,7.58,7.58,0,0,1,.9.58l-.54.17a8.5,8.5,0,0,0-1.07-.68s0,0,0-.06v0Z"/><path class="cls-3" d="M383,164.66l-.54.25.7,1.57-.41.19L382,165.1l-.55.24-.14-.32,1.51-.68Z"/><path class="cls-3" d="M384.44,165.79l-.4.23-1-1.81.4-.23Z"/><path class="cls-3" d="M385.49,163.73c0,.09.05.21.06.28a.12.12,0,0,1-.06.15l-.54.37.45.66-.37.26-1.19-1.71,1.22-.84.2.29-.81.55s0,0,0,.06l.31.45Z"/><path class="cls-3" d="M387.55,161.85l.11.27a.16.16,0,0,1,0,.16l-.46.46.56.56-.32.32-1.47-1.47,1-1,.25.25-.69.69s0,0,0,.06l.38.38Z"/><path class="cls-3" d="M388.5,160.84a.36.36,0,0,0,0-.53c-.16-.12-.34-.1-.5.11l-.27.35a0,0,0,0,0,0,0l1.34,1-.28.36L387.11,161l.6-.78c.33-.42.72-.48,1-.26a.63.63,0,0,1,.18.8,7.25,7.25,0,0,1,1.06-.05l-.34.45a8.17,8.17,0,0,0-1.26.07.1.1,0,0,1-.07,0l0,0Z"/><path class="cls-3" d="M390.13,160.41c-.43-.51-1.05-1.25-1.42-1.73l.27-.48a.1.1,0,0,1,.1-.06c.57.05,1.45.16,2.16.27l-.25.46-.58-.1-.43.77.39.44Zm-.95-1.81c.14.18.35.42.56.67l.31-.56c-.32-.05-.63-.1-.86-.12Z"/><path class="cls-3" d="M392.09,156.12l-.08.24a.17.17,0,0,1-.12.11,11.12,11.12,0,0,0-1.65.59l1.34.48-.15.41-2-.71.11-.29a.16.16,0,0,1,.1-.11,11.31,11.31,0,0,1,1.46-.6l-1.15-.42.15-.4Z"/><path class="cls-3" d="M392.7,154.88l-.26-.17a1.06,1.06,0,0,1-1.23.71,1.08,1.08,0,0,1-.82-1.34,1.14,1.14,0,0,1,.55-.81l.19.37a.75.75,0,0,0-.37.51.66.66,0,0,0,.54.8.7.7,0,0,0,.66-1.16l.3-.29a1.05,1.05,0,0,1,.26.84l.26.16Z"/><path class="cls-3" d="M392.69,153.21c-.61-.26-1.5-.64-2-.91l0-.55c0-.05,0-.07.07-.09.53-.22,1.37-.51,2.05-.72l0,.51-.56.17,0,.89.54.21ZM391,152c.2.1.49.22.79.35l0-.64a7.7,7.7,0,0,0-.82.28Z"/><path class="cls-3" d="M392.71,150.06l0,.46-2.08.13,0-.46Z"/><path class="cls-3" d="M392.17,149.56a1.4,1.4,0,0,0,.09-.7c0-.26-.14-.41-.3-.39s-.18.14-.23.36l-.09.35c-.06.28-.18.52-.49.57s-.61-.2-.7-.78a1.7,1.7,0,0,1,0-.65l.37-.06a1.31,1.31,0,0,0-.07.65c.05.29.17.39.29.37s.17-.12.22-.32l.08-.35c.09-.35.22-.56.49-.6s.66.24.74.78a1.49,1.49,0,0,1-.05.71Z"/><circle class="cls-4" cx="361.7" cy="145.12" r="0.76"/><circle class="cls-4" cx="390.44" cy="145.12" r="0.76"/><path class="cls-3" d="M381,144.64a.66.66,0,0,0,.68-.61c0-.46-.33-.71-.79-.71s-.93.21-1.55.21a2.24,2.24,0,0,1-.87-.23c-.43-.25-.71-.53-.71-.94a.35.35,0,0,1,.3-.38.3.3,0,0,1,.32.27.35.35,0,0,1-.1.24c.13.07.41,0,.41-.36a.55.55,0,0,0-.6-.54.71.71,0,0,0-.72.77c0,.9.9,1.31,1.84,1.74,1.22.56,2.6,1.19,2.64,3s-1.63,3.18-3.39,4.72l-1.25,1.11c-.06-.29-.12-.57-.19-.84a3.41,3.41,0,0,0,1.73-2.63,1.8,1.8,0,0,0,1.17-1.09,3.05,3.05,0,0,0-.31-2.4,8.62,8.62,0,0,0-2.15-2.38,4.92,4.92,0,0,0-.56-.37,2.59,2.59,0,0,1-.13-.77,1.15,1.15,0,0,1,.53-1.07,1.43,1.43,0,0,1,.69-.2,6.78,6.78,0,0,1,.84.14.35.35,0,0,0,.28-.11c.17-.19.06-.5,0-.61a2.48,2.48,0,0,0-2.12-1.41.43.43,0,0,0-.33.15.33.33,0,0,0-.07.28c0,.18.25.33.35.49s0,.11,0,.09a3.14,3.14,0,0,0-.93-.15,1.68,1.68,0,0,0-1.08.36.48.48,0,0,0-.15.32.33.33,0,0,0,.25.33c.23.08.69.19.69.32s-.26.1-.58.21-1,.41-1,.92a.44.44,0,0,0,.51.43,3.71,3.71,0,0,1,1.91.54,10.44,10.44,0,0,0,.63,1.32,7.76,7.76,0,0,1,1.19,4.35c-1.29.24-2.1-1.24-2.4-1.92-.55-1.27-1.19-2.4-2.84-2.4a2.79,2.79,0,0,0-2.33,1.31,5.07,5.07,0,0,0-.82,2.83,3.1,3.1,0,0,0,1.12,2.8,1.3,1.3,0,0,0,1,.14,5.15,5.15,0,0,0,.65.92c.15.17.26.27.43.27a.38.38,0,0,0,.27-.14,4.21,4.21,0,0,1-1-1.19c.23-.14,1.28-.69,1.28-2.91,0-1.51-.54-1.92-1-2a.92.92,0,0,0-.69.26,3.16,3.16,0,0,0-.63,2.39,5,5,0,0,0,.45,2,1,1,0,0,1-.58-.12,2.74,2.74,0,0,1-.93-2.46,4.66,4.66,0,0,1,.75-2.61,2.43,2.43,0,0,1,2-1.14c1.41,0,2,1,2.48,2.17a4.54,4.54,0,0,0,1.24,1.73,2,2,0,0,0,1.47.44,3,3,0,0,1-1.43,2.15c0-.07-.48-1.8-1.48-2.27a.91.91,0,0,0-1.33.84,1.93,1.93,0,0,0,.7,1.42,2,2,0,0,0,1.85.52c.08.31.15.66.22,1a10.27,10.27,0,0,0-2,2.57h.45a9.59,9.59,0,0,1,1.67-2.09c.09.61.15,1.31.19,2.09h.39a20.82,20.82,0,0,0-.24-2.43c.46-.44.95-.87,1.43-1.29,1.84-1.6,3.57-3.12,3.52-5a3,3,0,0,0-1.24-2.42m-.11-.93c.13,0,.39,0,.39.28s-.23.29-.36.29a3.69,3.69,0,0,1-1.24-.41c.45,0,.8-.16,1.21-.16m-4.46-.77a3.68,3.68,0,0,0-.85-.32,3.65,3.65,0,0,0-.93-.1c-.15,0-.1-.09-.09-.12.21-.35.93-.55,1.11-.6s.47-.18.47-.4c0-.48-.69-.61-.89-.69s0-.1,0-.11a1.47,1.47,0,0,1,.74-.19,2.44,2.44,0,0,1,.73.11c.62.18.7-.22.7-.34s-.24-.45-.34-.55,0-.08,0-.07a2.05,2.05,0,0,1,1.66,1.21c0,.06,0,.13-.08.09a2.71,2.71,0,0,0-.71-.1,1.92,1.92,0,0,0-.89.25,1.53,1.53,0,0,0-.72,1.41,3,3,0,0,0,.05.52m1.12,1.65c-.14-.26-.27-.51-.39-.76a8.12,8.12,0,0,1,2.11,2.32,2.65,2.65,0,0,1,.28,2,1.36,1.36,0,0,1-.76.8,8.25,8.25,0,0,0-1.24-4.41m-5.71,4.93c0-1.34.26-1.88.5-2.1a.53.53,0,0,1,.36-.16c.38,0,.61.59.64,1.53a2.76,2.76,0,0,1-1.07,2.6,4.59,4.59,0,0,1-.43-1.87m3.22,1.85a1.53,1.53,0,0,1-.57-1.11.52.52,0,0,1,.51-.56c.58,0,1.17.89,1.54,2.11a1.62,1.62,0,0,1-1.48-.44"/><path class="cls-3" d="M379.38,143a1.75,1.75,0,0,0,.91-.42,5.73,5.73,0,0,0-.82-.05,4.91,4.91,0,0,0,.31-.79s-.8.39-.81.85a.4.4,0,0,0,.41.41"/><path class="cls-5" d="M375.88,161.28a2.27,2.27,0,1,1-2.27-2.27,2.27,2.27,0,0,1,2.27,2.27m-2.27-1.89a1.89,1.89,0,1,0,1.89,1.89,1.89,1.89,0,0,0-1.89-1.89"/><path class="cls-6" d="M380.8,161.28a2.27,2.27,0,1,1-2.27-2.27,2.27,2.27,0,0,1,2.27,2.27m-2.27-1.89a1.89,1.89,0,1,0,1.89,1.89,1.88,1.88,0,0,0-1.89-1.89"/><path class="cls-7" d="M371.16,156.93a2.27,2.27,0,0,0,0,4.54h.19c0-.06,0-.12,0-.18s0-.14,0-.2h-.19a1.92,1.92,0,1,1,.58-.1,2.83,2.83,0,0,0,0,.29.41.41,0,0,0,0,.11,2.27,2.27,0,0,0-.57-4.46Z"/><path class="cls-4" d="M381,156.93a2.28,2.28,0,0,0-2.26,2.09,2.32,2.32,0,0,1,.38.06,1.9,1.9,0,1,1,0,.4,1.8,1.8,0,0,0-.39-.08,2.26,2.26,0,1,0,2.25-2.47Z"/><path d="M376.26,161.28a1.27,1.27,0,0,1,0-.2h-.2a1.89,1.89,0,0,1-1.87-1.61,1.59,1.59,0,0,0-.39-.08,2.27,2.27,0,0,0,2.26,2.07h.2A1.09,1.09,0,0,1,376.26,161.28Z"/><path d="M376.07,156.93a2.27,2.27,0,0,0-2.26,2.09,2.2,2.2,0,0,1,.37.06,1.89,1.89,0,1,1,2.48,1.91,1.42,1.42,0,0,0,0,.29v.11a2.27,2.27,0,0,0-.57-4.46Z"/><rect class="cls-3" x="359.44" y="172.43" width="33.29" height="5.54"/><path class="cls-1" d="M372.34,176.08a1.51,1.51,0,0,1-1.26.58,1.47,1.47,0,0,1-1.56-1.48,1.46,1.46,0,0,1,1.56-1.43,1.57,1.57,0,0,1,1.22.52l-.44.35a1,1,0,0,0-.78-.35.88.88,0,0,0-.92.91.91.91,0,0,0,.92,1,.9.9,0,0,0,.79-.39Z"/><path class="cls-1" d="M374.18,173.79c1,0,1.55.48,1.55,1.36a1.37,1.37,0,0,1-1.55,1.45h-1v-2.81Zm-.41.48v1.78a.07.07,0,0,0,.07.08h.3a.88.88,0,0,0,.95-1c0-.61-.33-.88-.95-.88Z"/><path class="cls-1" d="M378.11,176.66a1.46,1.46,0,1,1,1.56-1.47A1.47,1.47,0,0,1,378.11,176.66Zm0-2.39a.89.89,0,0,0-.93.92.9.9,0,0,0,.93.95.94.94,0,0,0,0-1.87Z"/><path class="cls-1" d="M380.52,175.92a1.82,1.82,0,0,0,.91.27c.36,0,.58-.1.58-.32s-.14-.27-.43-.39l-.45-.18c-.35-.15-.64-.35-.64-.79s.39-.76,1.18-.76a2.1,2.1,0,0,1,.86.19v.49a1.82,1.82,0,0,0-.85-.22c-.4,0-.55.14-.55.31s.11.25.37.36l.46.18c.44.19.69.41.69.77,0,.52-.46.83-1.2.83a1.91,1.91,0,0,1-.93-.23Z"/><path class="cls-3" d="M367.68,182.93a15.07,15.07,0,0,0,.72-2.15h.65a24.25,24.25,0,0,1-1,2.69c0,.08-.07.11-.14.11h-.58c-.41-.88-.79-1.85-1.12-2.8h.68c.23.73.48,1.45.77,2.15Z"/><path class="cls-3" d="M370.9,183.58h-.62v-2.8h.62Z"/><path class="cls-3" d="M374.29,181.91c-.05.11-.11.26-.16.35a.16.16,0,0,1-.18.12h-.9V183a.06.06,0,0,0,.07.07h1.3v.47h-2v-2.8h1.95v.47h-1.34v.66Z"/><path class="cls-3" d="M378.37,183.58H378a.19.19,0,0,1-.19-.1,14.07,14.07,0,0,0-1.51-1.81v1.91h-.58v-2.8h.42a.24.24,0,0,1,.19.08,16,16,0,0,1,1.42,1.56v-1.64h.58Z"/><path class="cls-3" d="M382.48,183.58h-.33a.19.19,0,0,1-.19-.1,14.07,14.07,0,0,0-1.51-1.81v1.91h-.58v-2.8h.42a.26.26,0,0,1,.19.08,17.32,17.32,0,0,1,1.42,1.56v-1.64h.58Z"/><path class="cls-3" d="M385.83,181.91c-.05.11-.11.26-.16.35a.16.16,0,0,1-.18.12h-.9V183a.06.06,0,0,0,.07.07H386v.47h-2v-2.8h1.95v.47h-1.34v.66Z"/></g></g><rect class="cls-8" x="47.85" y="95.39" width="89.21" height="89.21"/><path class="cls-8" d="M55,147.91h3.23l3.42,10.35h.05L65,147.91H68.1l-4.82,13.48H59.94Z"/><path class="cls-8" d="M69.33,147.91h3v13.48h-3Z"/><path class="cls-8" d="M77.2,155.42a5.46,5.46,0,0,0,.22,1.51,3.72,3.72,0,0,0,.67,1.28,3.25,3.25,0,0,0,1.12.87,3.66,3.66,0,0,0,1.62.33,3.6,3.6,0,0,0,2.1-.56,3.36,3.36,0,0,0,1.18-1.68h2.82a5.75,5.75,0,0,1-.81,2,5.61,5.61,0,0,1-1.38,1.45,6.09,6.09,0,0,1-1.81.88,7.3,7.3,0,0,1-2.1.3,7.13,7.13,0,0,1-2.82-.52,5.6,5.6,0,0,1-2.07-1.46,6.11,6.11,0,0,1-1.28-2.24,9,9,0,0,1-.43-2.87,8,8,0,0,1,.46-2.72,6.8,6.8,0,0,1,1.3-2.27,6.17,6.17,0,0,1,4.76-2.13,5.94,5.94,0,0,1,2.85.67A6.11,6.11,0,0,1,85.7,150a7.05,7.05,0,0,1,1.21,2.51,7.62,7.62,0,0,1,.2,2.94Zm6.94-2a5.09,5.09,0,0,0-.3-1.35,3.6,3.6,0,0,0-.68-1.14,3.51,3.51,0,0,0-1-.78,3.09,3.09,0,0,0-1.37-.3,3.59,3.59,0,0,0-1.42.27,3.43,3.43,0,0,0-1.1.76,3.79,3.79,0,0,0-.73,1.13,4.13,4.13,0,0,0-.3,1.41Z"/><path class="cls-8" d="M88.73,147.91h2.81v2l.06.05a5.06,5.06,0,0,1,1.77-1.76,4.78,4.78,0,0,1,2.42-.64,5.09,5.09,0,0,1,3.5,1.15,4.4,4.4,0,0,1,1.27,3.44v9.26h-3v-8.47a3.63,3.63,0,0,0-.68-2.31,2.43,2.43,0,0,0-2-.72,3.27,3.27,0,0,0-1.36.27,3,3,0,0,0-1,.76,3.62,3.62,0,0,0-.66,1.13,4.27,4.27,0,0,0-.23,1.39v7.95h-3Z"/><path class="cls-8" d="M103,147.91h2.82v2l0,.05a5.06,5.06,0,0,1,1.77-1.76,4.79,4.79,0,0,1,2.43-.64,5.06,5.06,0,0,1,3.49,1.15,4.4,4.4,0,0,1,1.28,3.44v9.26h-3v-8.47a3.75,3.75,0,0,0-.68-2.31,2.47,2.47,0,0,0-2-.72,3.25,3.25,0,0,0-1.35.27,3.1,3.1,0,0,0-1,.76,3.41,3.41,0,0,0-.65,1.13,4,4,0,0,0-.24,1.39v7.95h-3Z"/><path class="cls-8" d="M119.68,155.42a5.11,5.11,0,0,0,.22,1.51,3.71,3.71,0,0,0,.66,1.28,3.35,3.35,0,0,0,1.12.87,3.66,3.66,0,0,0,1.62.33,3.6,3.6,0,0,0,2.1-.56,3.36,3.36,0,0,0,1.18-1.68h2.82a5.75,5.75,0,0,1-.81,2,5.61,5.61,0,0,1-1.38,1.45,6,6,0,0,1-1.81.88,7.3,7.3,0,0,1-2.1.3,7.13,7.13,0,0,1-2.82-.52,5.77,5.77,0,0,1-2.07-1.46,6.25,6.25,0,0,1-1.28-2.24,9.34,9.34,0,0,1-.43-2.87,8,8,0,0,1,.46-2.72,7,7,0,0,1,1.3-2.27,6.17,6.17,0,0,1,4.76-2.13,6,6,0,0,1,2.86.67,6.3,6.3,0,0,1,2.1,1.76,7.23,7.23,0,0,1,1.21,2.51,7.62,7.62,0,0,1,.19,2.94Zm6.93-2a4.41,4.41,0,0,0-.3-1.35,3.42,3.42,0,0,0-.68-1.14,3.27,3.27,0,0,0-1-.78,3.06,3.06,0,0,0-1.37-.3,3.63,3.63,0,0,0-1.42.27,3.28,3.28,0,0,0-1.09.76,3.81,3.81,0,0,0-.74,1.13,3.9,3.9,0,0,0-.29,1.41Z"/><path class="cls-8" d="M56.11,133.57v11.25h-1V133.57Z"/><path class="cls-8" d="M57.83,138a2.39,2.39,0,0,1,.68-.85,2.69,2.69,0,0,1,1-.49,4.75,4.75,0,0,1,1.29-.16,5.64,5.64,0,0,1,1.08.1,2.7,2.7,0,0,1,1,.39,2.14,2.14,0,0,1,.69.79,2.87,2.87,0,0,1,.27,1.34v4.31c0,.4.19.6.58.6a.83.83,0,0,0,.32-.06v.83l-.31.05-.34,0a1.51,1.51,0,0,1-.61-.11.72.72,0,0,1-.35-.29,1,1,0,0,1-.17-.45,4.78,4.78,0,0,1,0-.57h0a8.53,8.53,0,0,1-.54.7,3,3,0,0,1-.62.51,2.83,2.83,0,0,1-.77.32,4.39,4.39,0,0,1-1,.11,4,4,0,0,1-1.06-.14,2.43,2.43,0,0,1-.87-.42,2,2,0,0,1-.58-.74,2.38,2.38,0,0,1-.22-1.07,2.12,2.12,0,0,1,.38-1.33,2.41,2.41,0,0,1,1-.73,5.74,5.74,0,0,1,1.4-.36l1.59-.19c.21,0,.39-.05.55-.08a.87.87,0,0,0,.39-.17.73.73,0,0,0,.25-.32,1.37,1.37,0,0,0,.08-.54,1.79,1.79,0,0,0-.16-.82,1.2,1.2,0,0,0-.46-.51,1.64,1.64,0,0,0-.68-.26,4.22,4.22,0,0,0-.82-.08,2.52,2.52,0,0,0-1.55.45,1.76,1.76,0,0,0-.63,1.45h-1A3.18,3.18,0,0,1,57.83,138Zm5,2.42a.57.57,0,0,1-.36.26l-.47.11-1.3.19a7.66,7.66,0,0,0-1.22.26,2.41,2.41,0,0,0-.91.5,1.16,1.16,0,0,0-.35.92,1.44,1.44,0,0,0,.15.67,1.61,1.61,0,0,0,.4.5,1.75,1.75,0,0,0,.58.33,2.25,2.25,0,0,0,.68.11,3.32,3.32,0,0,0,1.09-.18,2.64,2.64,0,0,0,.9-.5,2.57,2.57,0,0,0,.62-.8,2.51,2.51,0,0,0,.22-1.08v-1.29Z"/><path class="cls-8" d="M82.19,140.46h.52v3.76h1.71v.46H82.19Z"/><path class="cls-8" d="M85.41,140.46h2.18v.46H85.93v1.33h1.56v.46H85.93v1.51h1.73v.46H85.41Z"/><path class="cls-8" d="M90.8,140.46h1.13c1.31,0,1.48.95,1.48,2.11s-.27,2.11-1.43,2.11H90.8Zm.52,3.8h.55c.89,0,1-.92,1-1.68s-.06-1.69-1-1.69h-.55Z"/><path class="cls-8" d="M94.63,140.46h2.18v.46H95.15v1.33h1.57v.46H95.15v1.51h1.73v.46H94.63Zm1.22-1.07h.58l-.64.84h-.36Z"/><path class="cls-8" d="M98,140.46H99a1.11,1.11,0,0,1,1.3,1.21,1.14,1.14,0,0,1-1.22,1.23h-.64v1.78H98Zm.52,2h.62c.38,0,.7-.26.7-.82a.67.67,0,0,0-.73-.76h-.59Z"/><path class="cls-8" d="M102.22,140.46h.7l1.14,4.22h-.55l-.3-1.16h-1.35l-.31,1.16H101ZM102,143.1h1.13l-.53-2h0Z"/><path class="cls-8" d="M105,140.46h1.36a1,1,0,0,1,1.08,1.06,1,1,0,0,1-.65,1.06v0a.69.69,0,0,1,.6.7l0,.72c0,.47.11.59.23.66H107a1.25,1.25,0,0,1-.14-.61l0-.65c0-.58-.36-.62-.63-.62h-.7v1.88H105Zm.52,1.92H106c.31,0,.87,0,.87-.82,0-.41-.28-.67-.76-.67h-.62Z"/><path class="cls-8" d="M109.89,144.68h-.52v-3.76h-1.06v-.46H111v.46h-1.06Z"/><path class="cls-8" d="M111.94,140.46h2.18v.46h-1.66v1.33H114v.46h-1.56v1.51h1.73v.46h-2.25Z"/><path class="cls-8" d="M115.28,140.46h.87l.85,3.35h0l.85-3.35h.87v4.22h-.52V141h0l-.93,3.69h-.52l-.94-3.69h0v3.69h-.52Z"/><path class="cls-8" d="M120,140.46h2.19v.46h-1.67v1.33h1.57v.46h-1.57v1.51h1.74v.46H120Z"/><path class="cls-8" d="M123.35,140.46H124l1.39,3.53h0v-3.53H126v4.22h-.72l-1.36-3.42h0v3.42h-.52Z"/><path class="cls-8" d="M128.52,144.68H128v-3.76h-1.06v-.46h2.64v.46h-1.06Z"/><path class="cls-8" d="M89.91,119c-1.76-4-7.08-3.67-8.14-3.39a3.39,3.39,0,0,0-2.13,1.95c-1.35,2.68-3.88,8.54-5.36,12.48v0s-.33.7-.33.71a129.91,129.91,0,0,0-6.16-16.51,3.41,3.41,0,0,0-2.14-2c-1.05-.27-6.37-.59-8.14,3.4-1.14,2.59.06,7.47,1.34,9.91,1.88,3.6,7.79,9,9.63,11.3s2.46,4.32,2,6.21-1.61,5.15.89,3.41c0,0,.9-.9,2.61-2.56v0l.11-.13.06-.05v0c2.14-2.47,10.59-10,13.21-14.45C88.81,127,91.06,121.61,89.91,119Z"/><rect class="cls-9" x="47.85" y="95.39" width="89.21" height="89.21"/><path class="cls-1" d="M55,147.91h3.23l3.42,10.35h.05L65,147.91H68.1l-4.82,13.48H59.94Z"/><path class="cls-1" d="M69.33,147.91h3v13.48h-3Z"/><path class="cls-1" d="M77.2,155.42a5.46,5.46,0,0,0,.22,1.51,3.72,3.72,0,0,0,.67,1.28,3.25,3.25,0,0,0,1.12.87,3.66,3.66,0,0,0,1.62.33,3.6,3.6,0,0,0,2.1-.56,3.36,3.36,0,0,0,1.18-1.68h2.82a5.75,5.75,0,0,1-.81,2,5.61,5.61,0,0,1-1.38,1.45,6.09,6.09,0,0,1-1.81.88,7.3,7.3,0,0,1-2.1.3,7.13,7.13,0,0,1-2.82-.52,5.6,5.6,0,0,1-2.07-1.46,6.11,6.11,0,0,1-1.28-2.24,9,9,0,0,1-.43-2.87,8,8,0,0,1,.46-2.72,6.8,6.8,0,0,1,1.3-2.27,6.17,6.17,0,0,1,4.76-2.13,5.94,5.94,0,0,1,2.85.67A6.11,6.11,0,0,1,85.7,150a7.05,7.05,0,0,1,1.21,2.51,7.62,7.62,0,0,1,.2,2.94Zm6.94-2a5.09,5.09,0,0,0-.3-1.35,3.6,3.6,0,0,0-.68-1.14,3.51,3.51,0,0,0-1-.78,3.09,3.09,0,0,0-1.37-.3,3.59,3.59,0,0,0-1.42.27,3.43,3.43,0,0,0-1.1.76,3.79,3.79,0,0,0-.73,1.13,4.13,4.13,0,0,0-.3,1.41Z"/><path class="cls-1" d="M88.73,147.91h2.81v2l.06.05a5.06,5.06,0,0,1,1.77-1.76,4.78,4.78,0,0,1,2.42-.64,5.09,5.09,0,0,1,3.5,1.15,4.4,4.4,0,0,1,1.27,3.44v9.26h-3v-8.47a3.63,3.63,0,0,0-.68-2.31,2.43,2.43,0,0,0-2-.72,3.27,3.27,0,0,0-1.36.27,3,3,0,0,0-1,.76,3.62,3.62,0,0,0-.66,1.13,4.27,4.27,0,0,0-.23,1.39v7.95h-3Z"/><path class="cls-1" d="M103,147.91h2.82v2l0,.05a5.06,5.06,0,0,1,1.77-1.76,4.79,4.79,0,0,1,2.43-.64,5.06,5.06,0,0,1,3.49,1.15,4.4,4.4,0,0,1,1.28,3.44v9.26h-3v-8.47a3.75,3.75,0,0,0-.68-2.31,2.47,2.47,0,0,0-2-.72,3.25,3.25,0,0,0-1.35.27,3.1,3.1,0,0,0-1,.76,3.41,3.41,0,0,0-.65,1.13,4,4,0,0,0-.24,1.39v7.95h-3Z"/><path class="cls-1" d="M119.68,155.42a5.11,5.11,0,0,0,.22,1.51,3.71,3.71,0,0,0,.66,1.28,3.35,3.35,0,0,0,1.12.87,3.66,3.66,0,0,0,1.62.33,3.6,3.6,0,0,0,2.1-.56,3.36,3.36,0,0,0,1.18-1.68h2.82a5.75,5.75,0,0,1-.81,2,5.61,5.61,0,0,1-1.38,1.45,6,6,0,0,1-1.81.88,7.3,7.3,0,0,1-2.1.3,7.13,7.13,0,0,1-2.82-.52,5.77,5.77,0,0,1-2.07-1.46,6.25,6.25,0,0,1-1.28-2.24,9.34,9.34,0,0,1-.43-2.87,8,8,0,0,1,.46-2.72,7,7,0,0,1,1.3-2.27,6.17,6.17,0,0,1,4.76-2.13,6,6,0,0,1,2.86.67,6.3,6.3,0,0,1,2.1,1.76,7.23,7.23,0,0,1,1.21,2.51,7.62,7.62,0,0,1,.19,2.94Zm6.93-2a4.41,4.41,0,0,0-.3-1.35,3.42,3.42,0,0,0-.68-1.14,3.27,3.27,0,0,0-1-.78,3.06,3.06,0,0,0-1.37-.3,3.63,3.63,0,0,0-1.42.27,3.28,3.28,0,0,0-1.09.76,3.81,3.81,0,0,0-.74,1.13,3.9,3.9,0,0,0-.29,1.41Z"/><path class="cls-1" d="M56.11,133.57v11.25h-1V133.57Z"/><path class="cls-1" d="M57.83,138a2.39,2.39,0,0,1,.68-.85,2.69,2.69,0,0,1,1-.49,4.75,4.75,0,0,1,1.29-.16,5.64,5.64,0,0,1,1.08.1,2.7,2.7,0,0,1,1,.39,2.14,2.14,0,0,1,.69.79,2.87,2.87,0,0,1,.27,1.34v4.31c0,.4.19.6.58.6a.83.83,0,0,0,.32-.06v.83l-.31.05-.34,0a1.51,1.51,0,0,1-.61-.11.72.72,0,0,1-.35-.29,1,1,0,0,1-.17-.45,4.78,4.78,0,0,1,0-.57h0a8.53,8.53,0,0,1-.54.7,3,3,0,0,1-.62.51,2.83,2.83,0,0,1-.77.32,4.39,4.39,0,0,1-1,.11,4,4,0,0,1-1.06-.14,2.43,2.43,0,0,1-.87-.42,2,2,0,0,1-.58-.74,2.38,2.38,0,0,1-.22-1.07,2.12,2.12,0,0,1,.38-1.33,2.41,2.41,0,0,1,1-.73,5.74,5.74,0,0,1,1.4-.36l1.59-.19c.21,0,.39-.05.55-.08a.87.87,0,0,0,.39-.17.73.73,0,0,0,.25-.32,1.37,1.37,0,0,0,.08-.54,1.79,1.79,0,0,0-.16-.82,1.2,1.2,0,0,0-.46-.51,1.64,1.64,0,0,0-.68-.26,4.22,4.22,0,0,0-.82-.08,2.52,2.52,0,0,0-1.55.45,1.76,1.76,0,0,0-.63,1.45h-1A3.18,3.18,0,0,1,57.83,138Zm5,2.42a.57.57,0,0,1-.36.26l-.47.11-1.3.19a7.66,7.66,0,0,0-1.22.26,2.41,2.41,0,0,0-.91.5,1.16,1.16,0,0,0-.35.92,1.44,1.44,0,0,0,.15.67,1.61,1.61,0,0,0,.4.5,1.75,1.75,0,0,0,.58.33,2.25,2.25,0,0,0,.68.11,3.32,3.32,0,0,0,1.09-.18,2.64,2.64,0,0,0,.9-.5,2.57,2.57,0,0,0,.62-.8,2.51,2.51,0,0,0,.22-1.08v-1.29Z"/><path class="cls-1" d="M82.19,140.46h.52v3.76h1.71v.46H82.19Z"/><path class="cls-1" d="M85.41,140.46h2.18v.46H85.93v1.33h1.56v.46H85.93v1.51h1.73v.46H85.41Z"/><path class="cls-1" d="M90.8,140.46h1.13c1.31,0,1.48.95,1.48,2.11s-.27,2.11-1.43,2.11H90.8Zm.52,3.8h.55c.89,0,1-.92,1-1.68s-.06-1.69-1-1.69h-.55Z"/><path class="cls-1" d="M94.63,140.46h2.18v.46H95.15v1.33h1.57v.46H95.15v1.51h1.73v.46H94.63Zm1.22-1.07h.58l-.64.84h-.36Z"/><path class="cls-1" d="M98,140.46H99a1.11,1.11,0,0,1,1.3,1.21,1.14,1.14,0,0,1-1.22,1.23h-.64v1.78H98Zm.52,2h.62c.38,0,.7-.26.7-.82a.67.67,0,0,0-.73-.76h-.59Z"/><path class="cls-1" d="M102.22,140.46h.7l1.14,4.22h-.55l-.3-1.16h-1.35l-.31,1.16H101ZM102,143.1h1.13l-.53-2h0Z"/><path class="cls-1" d="M105,140.46h1.36a1,1,0,0,1,1.08,1.06,1,1,0,0,1-.65,1.06v0a.69.69,0,0,1,.6.7l0,.72c0,.47.11.59.23.66H107a1.25,1.25,0,0,1-.14-.61l0-.65c0-.58-.36-.62-.63-.62h-.7v1.88H105Zm.52,1.92H106c.31,0,.87,0,.87-.82,0-.41-.28-.67-.76-.67h-.62Z"/><path class="cls-1" d="M109.89,144.68h-.52v-3.76h-1.06v-.46H111v.46h-1.06Z"/><path class="cls-1" d="M111.94,140.46h2.18v.46h-1.66v1.33H114v.46h-1.56v1.51h1.73v.46h-2.25Z"/><path class="cls-1" d="M115.28,140.46h.87l.85,3.35h0l.85-3.35h.87v4.22h-.52V141h0l-.93,3.69h-.52l-.94-3.69h0v3.69h-.52Z"/><path class="cls-1" d="M120,140.46h2.19v.46h-1.67v1.33h1.57v.46h-1.57v1.51h1.74v.46H120Z"/><path class="cls-1" d="M123.35,140.46H124l1.39,3.53h0v-3.53H126v4.22h-.72l-1.36-3.42h0v3.42h-.52Z"/><path class="cls-1" d="M128.52,144.68H128v-3.76h-1.06v-.46h2.64v.46h-1.06Z"/><path class="cls-8" d="M89.91,119c-1.76-4-7.08-3.67-8.14-3.39a3.39,3.39,0,0,0-2.13,1.95c-1.35,2.68-3.88,8.54-5.36,12.48v0s-.33.7-.33.71a129.91,129.91,0,0,0-6.16-16.51,3.41,3.41,0,0,0-2.14-2c-1.05-.27-6.37-.59-8.14,3.4-1.14,2.59.06,7.47,1.34,9.91,1.88,3.6,7.79,9,9.63,11.3s2.46,4.32,2,6.21-1.61,5.15.89,3.41c0,0,.9-.9,2.61-2.56v0l.11-.13.06-.05v0c2.14-2.47,10.59-10,13.21-14.45C88.81,127,91.06,121.61,89.91,119Z"/><path class="cls-10" d="M292.26,176.46a11.14,11.14,0,0,1,1.76-.13,2.9,2.9,0,0,1,2,.59,1.94,1.94,0,0,1,.62,1.48,2.12,2.12,0,0,1-.54,1.52,3,3,0,0,1-2.17.78,3.31,3.31,0,0,1-.74-.06v2.84h-.92Zm.92,3.43a3.22,3.22,0,0,0,.76.07c1.1,0,1.78-.55,1.78-1.5s-.68-1.41-1.68-1.41a3.85,3.85,0,0,0-.86.08Z"/><path class="cls-10" d="M297.67,180c0-.6,0-1.11-.05-1.59h.82l0,1h0a1.54,1.54,0,0,1,1.42-1.11l.25,0v.87a1.42,1.42,0,0,0-.31,0,1.29,1.29,0,0,0-1.24,1.18,2,2,0,0,0,0,.43v2.72h-.92Z"/><path class="cls-10" d="M305.62,180.89a2.5,2.5,0,0,1-2.54,2.71,2.43,2.43,0,0,1-2.44-2.63,2.49,2.49,0,0,1,2.53-2.69A2.41,2.41,0,0,1,305.62,180.89Zm-4,.05c0,1.12.63,2,1.53,2s1.55-.83,1.55-2c0-.86-.43-1.95-1.52-1.95S301.59,180,301.59,180.94Z"/><path class="cls-10" d="M306.79,180.05c0-.66,0-1.18,0-1.67h.82l.05.88h0a2,2,0,0,1,1.82-1,2.31,2.31,0,0,1,2.17,2.58c0,1.83-1.13,2.74-2.33,2.74a1.79,1.79,0,0,1-1.57-.8h0v2.77h-.92Zm.92,1.36a1.58,1.58,0,0,0,0,.38,1.43,1.43,0,0,0,1.39,1.08c1,0,1.55-.8,1.55-2,0-1-.54-1.89-1.52-1.89a1.47,1.47,0,0,0-1.4,1.14,1.68,1.68,0,0,0-.06.37Z"/><path class="cls-10" d="M317.4,180.89a2.5,2.5,0,0,1-2.54,2.71,2.43,2.43,0,0,1-2.44-2.63,2.49,2.49,0,0,1,2.53-2.69A2.41,2.41,0,0,1,317.4,180.89Zm-4,.05c0,1.12.64,2,1.54,2s1.55-.83,1.55-2c0-.86-.43-1.95-1.53-1.95S313.36,180,313.36,180.94Z"/><path class="cls-10" d="M318.44,182.54a2.63,2.63,0,0,0,1.24.36c.66,0,1-.32,1-.76s-.27-.67-.94-.92c-.93-.34-1.36-.84-1.36-1.45a1.57,1.57,0,0,1,1.76-1.49,2.35,2.35,0,0,1,1.24.31l-.22.68a1.94,1.94,0,0,0-1-.31c-.55,0-.85.32-.85.7s.3.61,1,.87c.88.33,1.34.77,1.34,1.53,0,.91-.7,1.54-1.9,1.54a2.93,2.93,0,0,1-1.43-.36Z"/><path class="cls-10" d="M323.26,181.1a1.62,1.62,0,0,0,1.75,1.77,3.3,3.3,0,0,0,1.41-.26l.17.66a4.14,4.14,0,0,1-1.71.33,2.38,2.38,0,0,1-2.51-2.58,2.47,2.47,0,0,1,2.4-2.74,2.14,2.14,0,0,1,2.1,2.39,2.31,2.31,0,0,1,0,.43Zm2.72-.66a1.32,1.32,0,0,0-1.29-1.5,1.51,1.51,0,0,0-1.42,1.5Zm.21-4.26-1.29,1.51h-.65l.93-1.51Z"/><path class="cls-10" d="M330.25,180.05c0-.66,0-1.18,0-1.67H331l.06.88h0a2,2,0,0,1,1.81-1,2.31,2.31,0,0,1,2.17,2.58c0,1.83-1.13,2.74-2.33,2.74a1.81,1.81,0,0,1-1.57-.8h0v2.77h-.92Zm.92,1.36a1.58,1.58,0,0,0,0,.38,1.43,1.43,0,0,0,1.39,1.08c1,0,1.55-.8,1.55-2,0-1-.53-1.89-1.51-1.89a1.47,1.47,0,0,0-1.41,1.14,1.68,1.68,0,0,0-.06.37Z"/><path class="cls-10" d="M339.83,182.26a7.57,7.57,0,0,0,.08,1.22h-.84l-.07-.64h0a1.92,1.92,0,0,1-1.56.76,1.46,1.46,0,0,1-1.56-1.47c0-1.23,1.09-1.9,3.06-1.89v-.11a1,1,0,0,0-1.15-1.17,2.48,2.48,0,0,0-1.34.38l-.21-.62a3.32,3.32,0,0,1,1.68-.44c1.56,0,1.94,1.06,1.94,2.07Zm-.89-1.38c-1,0-2.16.16-2.16,1.15a.81.81,0,0,0,.86.88,1.28,1.28,0,0,0,1.25-.85.86.86,0,0,0,.05-.3Z"/><path class="cls-10" d="M341.33,180c0-.6,0-1.11-.05-1.59h.82l0,1h0a1.54,1.54,0,0,1,1.42-1.11l.26,0v.87a1.57,1.57,0,0,0-.32,0,1.29,1.29,0,0,0-1.24,1.18,2,2,0,0,0,0,.43v2.72h-.92Z"/><path class="cls-10" d="M347,176h.92v7.48H347Z"/><path class="cls-10" d="M350,181.1a1.62,1.62,0,0,0,1.75,1.77,3.3,3.3,0,0,0,1.41-.26l.17.66a4.14,4.14,0,0,1-1.71.33,2.38,2.38,0,0,1-2.51-2.58,2.47,2.47,0,0,1,2.4-2.74,2.14,2.14,0,0,1,2.1,2.39,2.31,2.31,0,0,1,0,.43Zm2.72-.66a1.32,1.32,0,0,0-1.29-1.5,1.51,1.51,0,0,0-1.42,1.5Z"/><path class="cls-9" d="M42.33,10.5,34.33,71H10.43L1.34,10.5H17.93q2.89,25,4.13,42.3,1.22-17.49,2.59-31L25.74,10.5Z"/><path class="cls-9" d="M60.08,10.5v7.88H44.54V10.5Zm0,10.91V71H44.54V21.41Z"/><path class="cls-9" d="M99.68,47.08H80.14V57.8a12,12,0,0,0,.49,4.34,1.9,1.9,0,0,0,1.87,1,2.28,2.28,0,0,0,2.3-1.29,14.31,14.31,0,0,0,.57-5V50.29H99.68V54A33.39,33.39,0,0,1,99.11,61a14.37,14.37,0,0,1-2.71,5.26A13.24,13.24,0,0,1,91,70.49a21,21,0,0,1-8.2,1.4,23.88,23.88,0,0,1-8.45-1.38,13.61,13.61,0,0,1-5.7-3.8,13.83,13.83,0,0,1-2.82-5.3A34.47,34.47,0,0,1,65.05,53V38.52q0-6.5,1.75-10.25a12.11,12.11,0,0,1,5.76-5.76,20.31,20.31,0,0,1,9.19-2,20.63,20.63,0,0,1,10.48,2.41A13.3,13.3,0,0,1,98,29.31q1.67,4,1.66,11.19ZM84.55,39V35.38a18.08,18.08,0,0,0-.41-5,1.62,1.62,0,0,0-1.68-1.12c-1,0-1.69.32-1.94,1a19.57,19.57,0,0,0-.38,5.13V39Z"/><path class="cls-9" d="M120,21.41,119.71,26a11.38,11.38,0,0,1,4-4.1,10.76,10.76,0,0,1,5.47-1.37,10.37,10.37,0,0,1,6.35,1.83A8.13,8.13,0,0,1,138.73,27a42.33,42.33,0,0,1,.71,9.28V71h-15.1V36.65a32.58,32.58,0,0,0-.33-6.24c-.23-.74-.85-1.12-1.87-1.12a1.88,1.88,0,0,0-2,1.29,32.79,32.79,0,0,0-.41,6.9V71H104.62V21.41Z"/><path class="cls-9" d="M160,21.41,159.73,26a11.28,11.28,0,0,1,4-4.1,10.82,10.82,0,0,1,5.48-1.37,10.37,10.37,0,0,1,6.35,1.83A8.23,8.23,0,0,1,178.75,27a42.33,42.33,0,0,1,.71,9.28V71h-15.1V36.65a32.58,32.58,0,0,0-.33-6.24c-.23-.74-.85-1.12-1.87-1.12a1.87,1.87,0,0,0-2,1.29,32.07,32.07,0,0,0-.41,6.9V71h-15.1V21.41Z"/><path class="cls-9" d="M218.84,47.08H199.3V57.8a12.09,12.09,0,0,0,.48,4.34,1.91,1.91,0,0,0,1.87,1,2.27,2.27,0,0,0,2.3-1.29,14.25,14.25,0,0,0,.58-5V50.29h14.31V54a33.27,33.27,0,0,1-.58,7.07,14.37,14.37,0,0,1-2.71,5.26,13.24,13.24,0,0,1-5.4,4.21,21,21,0,0,1-8.2,1.4,23.92,23.92,0,0,1-8.45-1.38,13.16,13.16,0,0,1-8.51-9.1A33.89,33.89,0,0,1,184.2,53V38.52q0-6.5,1.76-10.25a12.09,12.09,0,0,1,5.75-5.76,20.34,20.34,0,0,1,9.19-2,20.6,20.6,0,0,1,10.48,2.41,13.27,13.27,0,0,1,5.8,6.39q1.65,4,1.66,11.19ZM203.71,39V35.38a17.94,17.94,0,0,0-.42-5,1.62,1.62,0,0,0-1.68-1.12c-1,0-1.69.32-1.94,1a19.76,19.76,0,0,0-.37,5.13V39Z"/><path class="cls-10" d="M42.33,10.5,34.33,71H10.43L1.34,10.5H17.93q2.89,25,4.13,42.3,1.22-17.49,2.59-31L25.74,10.5Z"/><path class="cls-10" d="M60.08,10.5v7.88H44.54V10.5Zm0,10.91V71H44.54V21.41Z"/><path class="cls-10" d="M99.68,47.08H80.14V57.8a12,12,0,0,0,.49,4.34,1.9,1.9,0,0,0,1.87,1,2.28,2.28,0,0,0,2.3-1.29,14.31,14.31,0,0,0,.57-5V50.29H99.68V54A33.39,33.39,0,0,1,99.11,61a14.37,14.37,0,0,1-2.71,5.26A13.24,13.24,0,0,1,91,70.49a21,21,0,0,1-8.2,1.4,23.88,23.88,0,0,1-8.45-1.38,13.61,13.61,0,0,1-5.7-3.8,13.83,13.83,0,0,1-2.82-5.3A34.47,34.47,0,0,1,65.05,53V38.52q0-6.5,1.75-10.25a12.11,12.11,0,0,1,5.76-5.76,20.31,20.31,0,0,1,9.19-2,20.63,20.63,0,0,1,10.48,2.41A13.3,13.3,0,0,1,98,29.31q1.67,4,1.66,11.19ZM84.55,39V35.38a18.08,18.08,0,0,0-.41-5,1.62,1.62,0,0,0-1.68-1.12c-1,0-1.69.32-1.94,1a19.57,19.57,0,0,0-.38,5.13V39Z"/><path class="cls-10" d="M120,21.41,119.71,26a11.38,11.38,0,0,1,4-4.1,10.76,10.76,0,0,1,5.47-1.37,10.37,10.37,0,0,1,6.35,1.83A8.13,8.13,0,0,1,138.73,27a42.33,42.33,0,0,1,.71,9.28V71h-15.1V36.65a32.58,32.58,0,0,0-.33-6.24c-.23-.74-.85-1.12-1.87-1.12a1.88,1.88,0,0,0-2,1.29,32.79,32.79,0,0,0-.41,6.9V71H104.62V21.41Z"/><path class="cls-10" d="M160,21.41,159.73,26a11.28,11.28,0,0,1,4-4.1,10.82,10.82,0,0,1,5.48-1.37,10.37,10.37,0,0,1,6.35,1.83A8.23,8.23,0,0,1,178.75,27a42.33,42.33,0,0,1,.71,9.28V71h-15.1V36.65a32.58,32.58,0,0,0-.33-6.24c-.23-.74-.85-1.12-1.87-1.12a1.87,1.87,0,0,0-2,1.29,32.07,32.07,0,0,0-.41,6.9V71h-15.1V21.41Z"/><path class="cls-10" d="M218.84,47.08H199.3V57.8a12.09,12.09,0,0,0,.48,4.34,1.91,1.91,0,0,0,1.87,1,2.27,2.27,0,0,0,2.3-1.29,14.25,14.25,0,0,0,.58-5V50.29h14.31V54a33.27,33.27,0,0,1-.58,7.07,14.37,14.37,0,0,1-2.71,5.26,13.24,13.24,0,0,1-5.4,4.21,21,21,0,0,1-8.2,1.4,23.92,23.92,0,0,1-8.45-1.38,13.16,13.16,0,0,1-8.51-9.1A33.89,33.89,0,0,1,184.2,53V38.52q0-6.5,1.76-10.25a12.09,12.09,0,0,1,5.75-5.76,20.34,20.34,0,0,1,9.19-2,20.6,20.6,0,0,1,10.48,2.41,13.27,13.27,0,0,1,5.8,6.39q1.65,4,1.66,11.19ZM203.71,39V35.38a17.94,17.94,0,0,0-.42-5,1.62,1.62,0,0,0-1.68-1.12c-1,0-1.69.32-1.94,1a19.76,19.76,0,0,0-.37,5.13V39Z"/><path class="cls-8" d="M199,87.05H179.44V97.77a12.09,12.09,0,0,0,.48,4.34,1.91,1.91,0,0,0,1.87,1,2.27,2.27,0,0,0,2.3-1.29,14.25,14.25,0,0,0,.58-5V90.26H199v3.66a32.45,32.45,0,0,1-.58,7.06,14.41,14.41,0,0,1-2.71,5.27,13.24,13.24,0,0,1-5.4,4.21,21,21,0,0,1-8.2,1.4,23.59,23.59,0,0,1-8.44-1.39,13.11,13.11,0,0,1-8.52-9.09,33.89,33.89,0,0,1-.79-8.43V78.49q0-6.49,1.76-10.26a12.07,12.07,0,0,1,5.75-5.75,20.34,20.34,0,0,1,9.19-2,20.6,20.6,0,0,1,10.48,2.41,13.27,13.27,0,0,1,5.8,6.39q1.65,4,1.66,11.19ZM183.85,79V75.35a18.5,18.5,0,0,0-.41-5,1.64,1.64,0,0,0-1.69-1.12c-1,0-1.69.32-1.94,1a19.76,19.76,0,0,0-.37,5.13V79Z"/><path class="cls-8" d="M219.27,61.38,219,66a11.2,11.2,0,0,1,4-4.1,10.79,10.79,0,0,1,5.48-1.37,10.39,10.39,0,0,1,6.35,1.83A8.13,8.13,0,0,1,238,66.93a41.71,41.71,0,0,1,.71,9.28V111H223.64V76.62a31.36,31.36,0,0,0-.34-6.24c-.22-.74-.84-1.12-1.87-1.12a1.86,1.86,0,0,0-2,1.29,32.07,32.07,0,0,0-.41,6.9V111h-15.1V61.38Z"/><path class="cls-8" d="M277.11,50.47V90.9c0,6-.07,9.94-.19,11.67a9,9,0,0,1-1.71,4.69,7.75,7.75,0,0,1-4.11,2.9,28.58,28.58,0,0,1-7.82.8H255.4V100.39c.94.07,1.63.11,2,.11a4,4,0,0,0,2.66-.82,3.11,3.11,0,0,0,1.12-2,45.51,45.51,0,0,0,.15-4.63V50.47Z"/><path class="cls-8" d="M316.94,87.05H297.39V97.77a12,12,0,0,0,.49,4.34,1.9,1.9,0,0,0,1.87,1,2.28,2.28,0,0,0,2.3-1.29,14.25,14.25,0,0,0,.58-5V90.26h14.31v3.66a33.1,33.1,0,0,1-.58,7.06,14.41,14.41,0,0,1-2.71,5.27,13.24,13.24,0,0,1-5.4,4.21,21,21,0,0,1-8.2,1.4,23.65,23.65,0,0,1-8.45-1.39,13.4,13.4,0,0,1-5.69-3.79,13.72,13.72,0,0,1-2.83-5.3A34.47,34.47,0,0,1,282.3,93V78.49q0-6.49,1.76-10.26a12,12,0,0,1,5.75-5.75,20.31,20.31,0,0,1,9.19-2,20.6,20.6,0,0,1,10.48,2.41,13.3,13.3,0,0,1,5.79,6.39q1.67,4,1.67,11.19ZM301.8,79V75.35a18.08,18.08,0,0,0-.41-5,1.62,1.62,0,0,0-1.68-1.12c-1,0-1.69.32-1.94,1a19.57,19.57,0,0,0-.38,5.13V79Z"/><path class="cls-8" d="M356.43,61.38V111H341.07l.26-4.12a10.42,10.42,0,0,1-3.86,3.76,10.83,10.83,0,0,1-5.29,1.26,11.84,11.84,0,0,1-5.64-1.2,7.76,7.76,0,0,1-3.31-3.17,11.76,11.76,0,0,1-1.33-4.13c-.17-1.44-.26-4.28-.26-8.54V61.38h15.1V95.12a35.89,35.89,0,0,0,.35,6.87c.24.73.88,1.09,1.93,1.09s1.78-.38,2-1.12a43.77,43.77,0,0,0,.31-7.22V61.38Z"/><path class="cls-8" d="M391.77,61.38l-6,23.69L393.05,111H378.37q-2.19-9.81-3.32-16.89-1.5,8.84-3.27,16.89H359.16l6.5-25.89-6.5-23.69h12.62q3,15.2,3.27,17.26,2.19-12.69,3.32-17.26Z"/><path class="cls-8" d="M199,87.05H179.44V97.77a12.09,12.09,0,0,0,.48,4.34,1.91,1.91,0,0,0,1.87,1,2.27,2.27,0,0,0,2.3-1.29,14.25,14.25,0,0,0,.58-5V90.26H199v3.66a32.45,32.45,0,0,1-.58,7.06,14.41,14.41,0,0,1-2.71,5.27,13.24,13.24,0,0,1-5.4,4.21,21,21,0,0,1-8.2,1.4,23.59,23.59,0,0,1-8.44-1.39,13.11,13.11,0,0,1-8.52-9.09,33.89,33.89,0,0,1-.79-8.43V78.49q0-6.49,1.76-10.26a12.07,12.07,0,0,1,5.75-5.75,20.34,20.34,0,0,1,9.19-2,20.6,20.6,0,0,1,10.48,2.41,13.27,13.27,0,0,1,5.8,6.39q1.65,4,1.66,11.19ZM183.85,79V75.35a18.5,18.5,0,0,0-.41-5,1.64,1.64,0,0,0-1.69-1.12c-1,0-1.69.32-1.94,1a19.76,19.76,0,0,0-.37,5.13V79Z"/><path class="cls-8" d="M219.27,61.38,219,66a11.2,11.2,0,0,1,4-4.1,10.79,10.79,0,0,1,5.48-1.37,10.39,10.39,0,0,1,6.35,1.83A8.13,8.13,0,0,1,238,66.93a41.71,41.71,0,0,1,.71,9.28V111H223.64V76.62a31.36,31.36,0,0,0-.34-6.24c-.22-.74-.84-1.12-1.87-1.12a1.86,1.86,0,0,0-2,1.29,32.07,32.07,0,0,0-.41,6.9V111h-15.1V61.38Z"/><path class="cls-8" d="M277.11,50.47V90.9c0,6-.07,9.94-.19,11.67a9,9,0,0,1-1.71,4.69,7.75,7.75,0,0,1-4.11,2.9,28.58,28.58,0,0,1-7.82.8H255.4V100.39c.94.07,1.63.11,2,.11a4,4,0,0,0,2.66-.82,3.11,3.11,0,0,0,1.12-2,45.51,45.51,0,0,0,.15-4.63V50.47Z"/><path class="cls-8" d="M316.94,87.05H297.39V97.77a12,12,0,0,0,.49,4.34,1.9,1.9,0,0,0,1.87,1,2.28,2.28,0,0,0,2.3-1.29,14.25,14.25,0,0,0,.58-5V90.26h14.31v3.66a33.1,33.1,0,0,1-.58,7.06,14.41,14.41,0,0,1-2.71,5.27,13.24,13.24,0,0,1-5.4,4.21,21,21,0,0,1-8.2,1.4,23.65,23.65,0,0,1-8.45-1.39,13.4,13.4,0,0,1-5.69-3.79,13.72,13.72,0,0,1-2.83-5.3A34.47,34.47,0,0,1,282.3,93V78.49q0-6.49,1.76-10.26a12,12,0,0,1,5.75-5.75,20.31,20.31,0,0,1,9.19-2,20.6,20.6,0,0,1,10.48,2.41,13.3,13.3,0,0,1,5.79,6.39q1.67,4,1.67,11.19ZM301.8,79V75.35a18.08,18.08,0,0,0-.41-5,1.62,1.62,0,0,0-1.68-1.12c-1,0-1.69.32-1.94,1a19.57,19.57,0,0,0-.38,5.13V79Z"/><path class="cls-8" d="M356.43,61.38V111H341.07l.26-4.12a10.42,10.42,0,0,1-3.86,3.76,10.83,10.83,0,0,1-5.29,1.26,11.84,11.84,0,0,1-5.64-1.2,7.76,7.76,0,0,1-3.31-3.17,11.76,11.76,0,0,1-1.33-4.13c-.17-1.44-.26-4.28-.26-8.54V61.38h15.1V95.12a35.89,35.89,0,0,0,.35,6.87c.24.73.88,1.09,1.93,1.09s1.78-.38,2-1.12a43.77,43.77,0,0,0,.31-7.22V61.38Z"/><path class="cls-8" d="M391.77,61.38l-6,23.69L393.05,111H378.37q-2.19-9.81-3.32-16.89-1.5,8.84-3.27,16.89H359.16l6.5-25.89-6.5-23.69h12.62q3,15.2,3.27,17.26,2.19-12.69,3.32-17.26Z"/></svg>